<svg version="1.1" baseProfile="full" xmlns="http://www.w3.org/2000/svg" width="568.4333333333333" height="80">
	<g>
		<line x1="10" y1="40.0" x2="353.03333333333336" y2="40.0" style="stroke:rgb(70,70,70); stroke-width:3 "/>
		<g>
			<title>tcyP (OJOJPOKM_01495)
L-cystine uptake protein TcyP</title>
			<polygon class="tcyP (OJOJPOKM_01495)
L-cystine uptake protein TcyP" points="16,25 32,25 32,10 62,40 32,70 32,55 16,55" fill="rgb(255,255,255)" fill-opacity="1.0" stroke="rgb(0,0,0)" stroke-width="2"  />
			<g>
				<title>SDF (PF00375)
"Sodium:dicarboxylate symporter family"</title>
				<polygon class="PF00375" points="19,28 46,28 58,40 46,52 19,52" stroke-linejoin="round" width="41" height="24" fill="rgb(141,207,101)" stroke="rgb(112,165,80)" stroke-width="1" opacity="0.75" />
			</g>
		</g>
		<g>
			<title>OJOJPOKM_01496_gene (OJOJPOKM_01496)
putative ABC transporter ATP-binding protein</title>
			<polygon class="OJOJPOKM_01496_gene (OJOJPOKM_01496)
putative ABC transporter ATP-binding protein" points="77,40 98,10 98,70" fill="rgb(255,255,255)" fill-opacity="1.0" stroke="rgb(0,0,0)" stroke-width="2"  />
			<g>
				<title>ABC_tran (PF00005)
"ABC transporter"</title>
				<polygon class="PF00005" points="82,39 90,28 96,28 96,52 90,52 82,41" stroke-linejoin="round" width="14" height="24" fill="rgb(129,201,63)" stroke="rgb(103,160,50)" stroke-width="1" opacity="0.75" />
			</g>
		</g>
		<g>
			<title>OJOJPOKM_01497_gene (OJOJPOKM_01497)
hypothetical protein</title>
			<polygon class="OJOJPOKM_01497_gene (OJOJPOKM_01497)
hypothetical protein" points="99,40 110,10 110,70" fill="rgb(255,255,255)" fill-opacity="1.0" stroke="rgb(0,0,0)" stroke-width="2"  />
		</g>
		<g>
			<title>OJOJPOKM_01498_gene (OJOJPOKM_01498)
hypothetical protein</title>
			<polygon class="OJOJPOKM_01498_gene (OJOJPOKM_01498)
hypothetical protein" points="175,25 140,25 140,10 110,40 140,70 140,55 175,55" fill="rgb(255,255,255)" fill-opacity="1.0" stroke="rgb(0,0,0)" stroke-width="2"  />
			<g>
				<title>DUF1430 (PF07242)
"Protein of unknown function (DUF1430)"</title>
				<polygon class="PF07242" points="114,40 119,35 119,45" stroke-linejoin="round" width="9" height="24" fill="rgb(183,55,187)" stroke="rgb(146,44,149)" stroke-width="1" opacity="0.75" />
			</g>
		</g>
		<g>
			<title>OJOJPOKM_01499_gene (OJOJPOKM_01499)
hypothetical protein</title>
			<polygon class="OJOJPOKM_01499_gene (OJOJPOKM_01499)
hypothetical protein" points="176,40 185,10 185,70" fill="rgb(255,255,255)" fill-opacity="1.0" stroke="rgb(0,0,0)" stroke-width="2"  />
			<g>
				<title>Lactococcin_972 (PF09683)
"Bacteriocin (Lactococcin_972)"</title>
				<polygon class="PF09683" points="179,40 182,31 182,49" stroke-linejoin="round" width="6" height="24" fill="rgb(202,100,222)" stroke="rgb(161,80,177)" stroke-width="1" opacity="0.75" />
			</g>
		</g>
		<g>
			<title>nfrA (OJOJPOKM_01500)
NADPH-dependent oxidoreductase</title>
			<polygon class="nfrA (OJOJPOKM_01500)
NADPH-dependent oxidoreductase" points="203,40 228,10 228,70" fill="rgb(255,255,255)" fill-opacity="1.0" stroke="rgb(0,0,0)" stroke-width="2"  />
			<g>
				<title>Nitroreductase (PF00881)
"Nitroreductase family"</title>
				<polygon class="PF00881" points="211,35 217,28 226,28 226,52 217,52 211,45" stroke-linejoin="round" width="15" height="24" fill="rgb(79,118,187)" stroke="rgb(63,94,149)" stroke-width="1" opacity="0.75" />
			</g>
		</g>
		<g>
			<title>ahpC (OJOJPOKM_01501)
Alkyl hydroperoxide reductase subunit C</title>
			<polygon class="ahpC (OJOJPOKM_01501)
Alkyl hydroperoxide reductase subunit C" points="247,10 266,40 247,70" fill="rgb(255,255,255)" fill-opacity="1.0" stroke="rgb(0,0,0)" stroke-width="2"  />
			<g>
				<title>AhpC-TSA (PF00578)
"AhpC/TSA family"</title>
				<polygon class="PF00578" points="247,28 254,28 260,37 260,43 254,52 247,52" stroke-linejoin="round" width="13" height="24" fill="rgb(166,71,190)" stroke="rgb(132,56,152)" stroke-width="1" opacity="0.75" />
			</g>
			<g>
				<title>1-cysPrx_C (PF10417)
"C-terminal domain of 1-Cys peroxiredoxin"</title>
				<polygon class="PF10417" points="262,40 262,40 262,40" stroke-linejoin="round" width="2" height="24" fill="rgb(80,189,172)" stroke="rgb(64,151,137)" stroke-width="1" opacity="0.75" />
			</g>
		</g>
		<g>
			<title>ahpF (OJOJPOKM_01502)
NADH dehydrogenase</title>
			<polygon class="ahpF (OJOJPOKM_01502)
NADH dehydrogenase" points="266,25 286,25 286,10 316,40 286,70 286,55 266,55" fill="rgb(255,255,255)" fill-opacity="1.0" stroke="rgb(0,0,0)" stroke-width="2"  />
			<g>
				<title>Pyr_redox_2 (PF07992)
"Pyridine nucleotide-disulphide oxidoreductase"</title>
				<polygon class="PF07992" points="286,28 300,28 312,40 300,52 286,52" stroke-linejoin="round" width="28" height="24" fill="rgb(83,223,167)" stroke="rgb(66,178,133)" stroke-width="1" opacity="0.75" />
			</g>
		</g>
	</g>
</svg>
