<svg version="1.1" baseProfile="full" xmlns="http://www.w3.org/2000/svg" width="520.0" height="80">
	<g>
		<line x1="10" y1="40.0" x2="510.0" y2="40.0" style="stroke:rgb(70,70,70); stroke-width:3 "/>
		<g>
			<title>DNGEGIOB_00997_gene (DNGEGIOB_00997)
hypothetical protein</title>
			<polygon class="DNGEGIOB_00997_gene (DNGEGIOB_00997)
hypothetical protein" points="37,40 63,10 63,70" fill="rgb(255,255,255)" fill-opacity="1.0" stroke="rgb(0,0,0)" stroke-width="2"  />
		</g>
		<g>
			<title>DNGEGIOB_00998_gene (DNGEGIOB_00998)
hypothetical protein</title>
			<polygon class="DNGEGIOB_00998_gene (DNGEGIOB_00998)
hypothetical protein" points="65,40 79,10 79,70" fill="rgb(255,255,255)" fill-opacity="1.0" stroke="rgb(0,0,0)" stroke-width="2"  />
		</g>
		<g>
			<title>DNGEGIOB_00999_gene (DNGEGIOB_00999)
hypothetical protein</title>
			<polygon class="DNGEGIOB_00999_gene (DNGEGIOB_00999)
hypothetical protein" points="85,40 110,10 110,70" fill="rgb(255,255,255)" fill-opacity="1.0" stroke="rgb(0,0,0)" stroke-width="2"  />
			<g>
				<title>ParBc (PF02195)
"ParB-like nuclease domain"</title>
				<rect class="PF02195" x="101" y="28" stroke-linejoin="round" width="7" height="24" fill="rgb(55,214,209)" stroke="rgb(44,171,167)" stroke-width="1" opacity="0.75" />
			</g>
		</g>
		<g>
			<title>btrK (DNGEGIOB_01000)
L-glutamyl-[BtrI acyl-carrier protein] decarboxylase</title>
			<polygon class="btrK (DNGEGIOB_01000)
L-glutamyl-[BtrI acyl-carrier protein] decarboxylase" points="151,25 141,25 141,10 111,40 141,70 141,55 151,55" fill="rgb(255,255,255)" fill-opacity="1.0" stroke="rgb(0,0,0)" stroke-width="2"  />
			<g>
				<title>Orn_Arg_deC_N (PF02784)
"Pyridoxal-dependent decarboxylase, pyridoxal binding domain"</title>
				<polygon class="PF02784" points="123,32 127,28 147,28 147,52 127,52 123,48" stroke-linejoin="round" width="24" height="24" fill="rgb(106,204,212)" stroke="rgb(84,163,169)" stroke-width="1" opacity="0.75" />
			</g>
		</g>
		<g>
			<title>garL (DNGEGIOB_01001)
5-keto-4-deoxy-D-glucarate aldolase</title>
			<polygon class="garL (DNGEGIOB_01001)
5-keto-4-deoxy-D-glucarate aldolase" points="151,40 176,10 176,70" fill="rgb(255,255,255)" fill-opacity="1.0" stroke="rgb(0,0,0)" stroke-width="2"  />
			<g>
				<title>HpcH_HpaI (PF03328)
"HpcH/HpaI aldolase/citrate lyase family"</title>
				<polygon class="PF03328" points="155,40 165,28 174,28 174,52 165,52" stroke-linejoin="round" width="22" height="24" fill="rgb(81,183,94)" stroke="rgb(64,146,75)" stroke-width="1" opacity="0.75" />
			</g>
		</g>
		<g>
			<title>iucC_1 (DNGEGIOB_01002)
Aerobactin synthase</title>
			<polygon class="iucC_1 (DNGEGIOB_01002)
Aerobactin synthase" points="235,25 206,25 206,10 176,40 206,70 206,55 235,55" fill="rgb(255,255,255)" fill-opacity="1.0" stroke="rgb(0,0,0)" stroke-width="2"  />
			<g>
				<title>FhuF (PF06276)
"Ferric iron reductase FhuF-like transporter"</title>
				<polygon class="PF06276" points="180,40 192,28 195,28 195,52 192,52" stroke-linejoin="round" width="17" height="24" fill="rgb(76,151,221)" stroke="rgb(60,120,176)" stroke-width="1" opacity="0.75" />
			</g>
			<g>
				<title>IucA_IucC (PF04183)
"IucA / IucC family"</title>
				<rect class="PF04183" x="197" y="28" stroke-linejoin="round" width="24" height="24" fill="rgb(221,104,121)" stroke="rgb(176,83,96)" stroke-width="1" opacity="0.75" />
			</g>
		</g>
		<g>
			<title>iucA_1 (DNGEGIOB_01003)
N(2)-citryl-N(6)-acetyl-N(6)-hydroxylysine synthase</title>
			<polygon class="iucA_1 (DNGEGIOB_01003)
N(2)-citryl-N(6)-acetyl-N(6)-hydroxylysine synthase" points="293,25 266,25 266,10 236,40 266,70 266,55 293,55" fill="rgb(255,255,255)" fill-opacity="1.0" stroke="rgb(0,0,0)" stroke-width="2"  />
			<g>
				<title>FhuF (PF06276)
"Ferric iron reductase FhuF-like transporter"</title>
				<polygon class="PF06276" points="240,40 252,28 253,28 253,52 252,52" stroke-linejoin="round" width="16" height="24" fill="rgb(76,151,221)" stroke="rgb(60,120,176)" stroke-width="1" opacity="0.75" />
			</g>
			<g>
				<title>IucA_IucC (PF04183)
"IucA / IucC family"</title>
				<rect class="PF04183" x="256" y="28" stroke-linejoin="round" width="23" height="24" fill="rgb(221,104,121)" stroke="rgb(176,83,96)" stroke-width="1" opacity="0.75" />
			</g>
		</g>
		<g>
			<title>tetA_2 (DNGEGIOB_01004)
Tetracycline resistance protein, class B</title>
			<polygon class="tetA_2 (DNGEGIOB_01004)
Tetracycline resistance protein, class B" points="334,25 323,25 323,10 293,40 323,70 323,55 334,55" fill="rgb(255,255,255)" fill-opacity="1.0" stroke="rgb(0,0,0)" stroke-width="2"  />
			<g>
				<title>MFS_1 (PF07690)
"Major Facilitator Superfamily"</title>
				<polygon class="PF07690" points="309,28 309,28 332,28 332,52 309,52 309,52" stroke-linejoin="round" width="23" height="24" fill="rgb(193,224,74)" stroke="rgb(154,179,59)" stroke-width="1" opacity="0.75" />
			</g>
		</g>
		<g>
			<title>iucC_2 (DNGEGIOB_01005)
Aerobactin synthase</title>
			<polygon class="iucC_2 (DNGEGIOB_01005)
Aerobactin synthase" points="392,25 364,25 364,10 334,40 364,70 364,55 392,55" fill="rgb(255,255,255)" fill-opacity="1.0" stroke="rgb(0,0,0)" stroke-width="2"  />
			<g>
				<title>FhuF (PF06276)
"Ferric iron reductase FhuF-like transporter"</title>
				<polygon class="PF06276" points="338,40 350,28 351,28 351,52 350,52" stroke-linejoin="round" width="16" height="24" fill="rgb(76,151,221)" stroke="rgb(60,120,176)" stroke-width="1" opacity="0.75" />
			</g>
			<g>
				<title>IucA_IucC (PF04183)
"IucA / IucC family"</title>
				<rect class="PF04183" x="354" y="28" stroke-linejoin="round" width="24" height="24" fill="rgb(221,104,121)" stroke="rgb(176,83,96)" stroke-width="1" opacity="0.75" />
			</g>
		</g>
		<g>
			<title>arcB_1 (DNGEGIOB_01006)
Delta(1)-pyrroline-2-carboxylate reductase</title>
			<polygon class="arcB_1 (DNGEGIOB_01006)
Delta(1)-pyrroline-2-carboxylate reductase" points="427,25 424,25 424,10 394,40 424,70 424,55 427,55" fill="rgb(255,255,255)" fill-opacity="1.0" stroke="rgb(0,0,0)" stroke-width="2"  />
			<g>
				<title>OCD_Mu_crystall (PF02423)
"Ornithine cyclodeaminase/mu-crystallin family"</title>
				<polygon class="PF02423" points="398,40 410,28 426,28 426,52 410,52" stroke-linejoin="round" width="32" height="24" fill="rgb(221,120,93)" stroke="rgb(176,96,74)" stroke-width="1" opacity="0.75" />
			</g>
		</g>
		<g>
			<title>sbnA (DNGEGIOB_01007)
putative siderophore biosynthesis protein SbnA</title>
			<polygon class="sbnA (DNGEGIOB_01007)
putative siderophore biosynthesis protein SbnA" points="459,25 457,25 457,10 427,40 457,70 457,55 459,55" fill="rgb(255,255,255)" fill-opacity="1.0" stroke="rgb(0,0,0)" stroke-width="2"  />
			<g>
				<title>PALP (PF00291)
"Pyridoxal-phosphate dependent enzyme"</title>
				<polygon class="PF00291" points="431,40 443,28 457,28 457,52 443,52" stroke-linejoin="round" width="28" height="24" fill="rgb(180,55,145)" stroke="rgb(144,44,116)" stroke-width="1" opacity="0.75" />
			</g>
		</g>
		<g>
			<title>yfiY (DNGEGIOB_01008)
putative siderophore-binding lipoprotein YfiY</title>
			<polygon class="yfiY (DNGEGIOB_01008)
putative siderophore-binding lipoprotein YfiY" points="467,25 470,25 470,10 500,40 470,70 470,55 467,55" fill="rgb(255,255,255)" fill-opacity="1.0" stroke="rgb(0,0,0)" stroke-width="2"  />
			<g>
				<title>Peripla_BP_2 (PF01497)
"Periplasmic binding protein"</title>
				<polygon class="PF01497" points="472,28 483,28 495,40 483,52 472,52" stroke-linejoin="round" width="24" height="24" fill="rgb(183,226,104)" stroke="rgb(146,180,83)" stroke-width="1" opacity="0.75" />
			</g>
		</g>
	</g>
</svg>
