<svg version="1.1" baseProfile="full" xmlns="http://www.w3.org/2000/svg" width="715.4666666666667" height="80">
	<g>
		<line x1="10" y1="40.0" x2="705.4666666666667" y2="40.0" style="stroke:rgb(70,70,70); stroke-width:3 "/>
		<g>
			<title>mnhA1 (CJKFNKEN_01930)
Na(+)/H(+) antiporter subunit A1</title>
			<polygon class="mnhA1 (CJKFNKEN_01930)
Na(+)/H(+) antiporter subunit A1" points="21,25 71,25 71,10 101,40 71,70 71,55 21,55" fill="rgb(255,255,255)" fill-opacity="1.0" stroke="rgb(0,0,0)" stroke-width="2"  />
			<g>
				<title>Proton_antipo_N (PF00662)
"NADH-Ubiquinone oxidoreductase (complex I), chain 5 N-terminus"</title>
				<rect class="PF00662" x="27" y="28" stroke-linejoin="round" width="5" height="24" fill="rgb(120,87,218)" stroke="rgb(96,69,174)" stroke-width="1" opacity="0.75" />
			</g>
			<g>
				<title>Proton_antipo_M (PF00361)
"Proton-conducting membrane transporter"</title>
				<rect class="PF00361" x="33" y="28" stroke-linejoin="round" width="30" height="24" fill="rgb(54,193,132)" stroke="rgb(43,154,105)" stroke-width="1" opacity="0.75" />
			</g>
			<g>
				<title>DUF4040 (PF13244)
"Domain of unknown function (DUF4040)"</title>
				<polygon class="PF13244" points="84,28 85,28 90,33 90,47 85,52 84,52" stroke-linejoin="round" width="6" height="24" fill="rgb(225,104,219)" stroke="rgb(180,83,175)" stroke-width="1" opacity="0.75" />
			</g>
		</g>
		<g>
			<title>mnhB1 (CJKFNKEN_01931)
Na(+)/H(+) antiporter subunit B1</title>
			<polygon class="mnhB1 (CJKFNKEN_01931)
Na(+)/H(+) antiporter subunit B1" points="101,10 115,40 101,70" fill="rgb(255,255,255)" fill-opacity="1.0" stroke="rgb(0,0,0)" stroke-width="2"  />
			<g>
				<title>MnhB (PF04039)
"Domain related to MnhB subunit of Na+/H+ antiporter"</title>
				<polygon class="PF04039" points="101,28 106,28 111,40 106,52 101,52" stroke-linejoin="round" width="12" height="24" fill="rgb(153,222,110)" stroke="rgb(122,177,88)" stroke-width="1" opacity="0.75" />
			</g>
		</g>
		<g>
			<title>mnhC1_1 (CJKFNKEN_01932)
Na(+)/H(+) antiporter subunit C1</title>
			<polygon class="mnhC1_1 (CJKFNKEN_01932)
Na(+)/H(+) antiporter subunit C1" points="115,10 126,40 115,70" fill="rgb(255,255,255)" fill-opacity="1.0" stroke="rgb(0,0,0)" stroke-width="2"  />
			<g>
				<title>Oxidored_q2 (PF00420)
"NADH-ubiquinone/plastoquinone oxidoreductase chain 4L"</title>
				<polygon class="PF00420" points="115,28 118,28 123,40 118,52 115,52" stroke-linejoin="round" width="10" height="24" fill="rgb(73,55,194)" stroke="rgb(58,44,155)" stroke-width="1" opacity="0.75" />
			</g>
		</g>
		<g>
			<title>mnhD1 (CJKFNKEN_01933)
Na(+)/H(+) antiporter subunit D1</title>
			<polygon class="mnhD1 (CJKFNKEN_01933)
Na(+)/H(+) antiporter subunit D1" points="126,25 145,25 145,10 175,40 145,70 145,55 126,55" fill="rgb(255,255,255)" fill-opacity="1.0" stroke="rgb(0,0,0)" stroke-width="2"  />
			<g>
				<title>Proton_antipo_M (PF00361)
"Proton-conducting membrane transporter"</title>
				<polygon class="PF00361" points="138,28 159,28 167,36 167,44 159,52 138,52" stroke-linejoin="round" width="29" height="24" fill="rgb(54,193,132)" stroke="rgb(43,154,105)" stroke-width="1" opacity="0.75" />
			</g>
		</g>
		<g>
			<title>mnhE1 (CJKFNKEN_01934)
Na(+)/H(+) antiporter subunit E1</title>
			<polygon class="mnhE1 (CJKFNKEN_01934)
Na(+)/H(+) antiporter subunit E1" points="176,10 192,40 176,70" fill="rgb(255,255,255)" fill-opacity="1.0" stroke="rgb(0,0,0)" stroke-width="2"  />
			<g>
				<title>MNHE (PF01899)
"Na+/H+ ion antiporter subunit"</title>
				<polygon class="PF01899" points="176,28 182,28 188,40 182,52 176,52" stroke-linejoin="round" width="14" height="24" fill="rgb(77,64,195)" stroke="rgb(61,51,156)" stroke-width="1" opacity="0.75" />
			</g>
		</g>
		<g>
			<title>mnhF1 (CJKFNKEN_01935)
Na(+)/H(+) antiporter subunit F1</title>
			<polygon class="mnhF1 (CJKFNKEN_01935)
Na(+)/H(+) antiporter subunit F1" points="192,10 201,40 192,70" fill="rgb(255,255,255)" fill-opacity="1.0" stroke="rgb(0,0,0)" stroke-width="2"  />
			<g>
				<title>MrpF_PhaF (PF04066)
"Multiple resistance and pH regulation protein F (MrpF / PhaF)"</title>
				<polygon class="PF04066" points="195,30 198,40 195,50" stroke-linejoin="round" width="5" height="24" fill="rgb(98,190,89)" stroke="rgb(78,152,71)" stroke-width="1" opacity="0.75" />
			</g>
		</g>
		<g>
			<title>mnhG1 (CJKFNKEN_01936)
Na(+)/H(+) antiporter subunit G1</title>
			<polygon class="mnhG1 (CJKFNKEN_01936)
Na(+)/H(+) antiporter subunit G1" points="201,10 212,40 201,70" fill="rgb(255,255,255)" fill-opacity="1.0" stroke="rgb(0,0,0)" stroke-width="2"  />
			<g>
				<title>PhaG_MnhG_YufB (PF03334)
"Na+/H+ antiporter subunit"</title>
				<polygon class="PF03334" points="202,28 204,28 209,40 204,52 202,52" stroke-linejoin="round" width="8" height="24" fill="rgb(111,223,196)" stroke="rgb(88,178,156)" stroke-width="1" opacity="0.75" />
			</g>
		</g>
		<g>
			<title>CJKFNKEN_01937_gene (CJKFNKEN_01937)
hypothetical protein</title>
			<polygon class="CJKFNKEN_01937_gene (CJKFNKEN_01937)
hypothetical protein" points="217,25 226,25 226,10 256,40 226,70 226,55 217,55" fill="rgb(255,255,255)" fill-opacity="1.0" stroke="rgb(0,0,0)" stroke-width="2"  />
			<g>
				<title>K_oxygenase (PF13434)
"L-lysine 6-monooxygenase (NADPH-requiring)"</title>
				<polygon class="PF13434" points="217,28 239,28 247,36 247,44 239,52 217,52" stroke-linejoin="round" width="30" height="24" fill="rgb(81,213,119)" stroke="rgb(64,170,95)" stroke-width="1" opacity="0.75" />
			</g>
		</g>
		<g>
			<title>CJKFNKEN_01938_gene (CJKFNKEN_01938)
Putative esterase</title>
			<polygon class="CJKFNKEN_01938_gene (CJKFNKEN_01938)
Putative esterase" points="257,40 269,10 269,70" fill="rgb(255,255,255)" fill-opacity="1.0" stroke="rgb(0,0,0)" stroke-width="2"  />
			<g>
				<title>4HBT (PF03061)
"Thioesterase superfamily"</title>
				<polygon class="PF03061" points="260,40 265,28 265,28 265,52 265,52" stroke-linejoin="round" width="7" height="24" fill="rgb(143,103,215)" stroke="rgb(114,82,172)" stroke-width="1" opacity="0.75" />
			</g>
		</g>
		<g>
			<title>CJKFNKEN_01939_gene (CJKFNKEN_01939)
hypothetical protein</title>
			<polygon class="CJKFNKEN_01939_gene (CJKFNKEN_01939)
hypothetical protein" points="314,25 300,25 300,10 270,40 300,70 300,55 314,55" fill="rgb(255,255,255)" fill-opacity="1.0" stroke="rgb(0,0,0)" stroke-width="2"  />
			<g>
				<title>Na_H_antiporter (PF03553)
"Na+/H+ antiporter family"</title>
				<polygon class="PF03553" points="274,40 286,28 298,28 298,52 286,52" stroke-linejoin="round" width="28" height="24" fill="rgb(115,72,216)" stroke="rgb(91,57,172)" stroke-width="1" opacity="0.75" />
			</g>
			<g>
				<title>Na_H_antiport_2 (PF13726)
"Na+-H+ antiporter family"</title>
				<rect class="PF13726" x="305" y="28" stroke-linejoin="round" width="8" height="24" fill="rgb(136,93,202)" stroke="rgb(108,74,161)" stroke-width="1" opacity="0.75" />
			</g>
		</g>
		<g>
			<title>pepA_2 (CJKFNKEN_01940)
Cytosol aminopeptidase</title>
			<polygon class="pepA_2 (CJKFNKEN_01940)
Cytosol aminopeptidase" points="374,25 355,25 355,10 325,40 355,70 355,55 374,55" fill="rgb(255,255,255)" fill-opacity="1.0" stroke="rgb(0,0,0)" stroke-width="2"  />
			<g>
				<title>Peptidase_M17 (PF00883)
"Cytosol aminopeptidase family, catalytic domain"</title>
				<polygon class="PF00883" points="329,40 341,28 355,28 355,52 341,52" stroke-linejoin="round" width="30" height="24" fill="rgb(81,178,163)" stroke="rgb(64,142,130)" stroke-width="1" opacity="0.75" />
			</g>
			<g>
				<title>Peptidase_M17_N (PF02789)
"Cytosol aminopeptidase family, N-terminal domain"</title>
				<rect class="PF02789" x="359" y="28" stroke-linejoin="round" width="12" height="24" fill="rgb(216,155,96)" stroke="rgb(172,124,76)" stroke-width="1" opacity="0.75" />
			</g>
		</g>
		<g>
			<title>CJKFNKEN_01941_gene (CJKFNKEN_01941)
NADH dehydrogenase-like protein</title>
			<polygon class="CJKFNKEN_01941_gene (CJKFNKEN_01941)
NADH dehydrogenase-like protein" points="421,25 411,25 411,10 381,40 411,70 411,55 421,55" fill="rgb(255,255,255)" fill-opacity="1.0" stroke="rgb(0,0,0)" stroke-width="2"  />
			<g>
				<title>Pyr_redox_2 (PF07992)
"Pyridine nucleotide-disulphide oxidoreductase"</title>
				<polygon class="PF07992" points="388,37 397,28 420,28 420,52 397,52 388,43" stroke-linejoin="round" width="32" height="24" fill="rgb(83,223,167)" stroke="rgb(66,178,133)" stroke-width="1" opacity="0.75" />
			</g>
		</g>
		<g>
			<title>CJKFNKEN_01942_gene (CJKFNKEN_01942)
hypothetical protein</title>
			<polygon class="CJKFNKEN_01942_gene (CJKFNKEN_01942)
hypothetical protein" points="465,25 461,25 461,10 431,40 461,70 461,55 465,55" fill="rgb(255,255,255)" fill-opacity="1.0" stroke="rgb(0,0,0)" stroke-width="2"  />
			<g>
				<title>Sacchrp_dh_NADP (PF03435)
"Saccharopine dehydrogenase NADP binding domain"</title>
				<rect class="PF03435" x="453" y="28" stroke-linejoin="round" width="11" height="24" fill="rgb(90,186,91)" stroke="rgb(72,148,72)" stroke-width="1" opacity="0.75" />
			</g>
		</g>
		<g>
			<title>CJKFNKEN_01943_gene (CJKFNKEN_01943)
putative ABC transporter ATP-binding protein</title>
			<polygon class="CJKFNKEN_01943_gene (CJKFNKEN_01943)
putative ABC transporter ATP-binding protein" points="523,25 496,25 496,10 466,40 496,70 496,55 523,55" fill="rgb(255,255,255)" fill-opacity="1.0" stroke="rgb(0,0,0)" stroke-width="2"  />
			<g>
				<title>ABC_tran (PF00005)
"ABC transporter"</title>
				<polygon class="PF00005" points="473,37 482,28 487,28 487,52 482,52 473,43" stroke-linejoin="round" width="14" height="24" fill="rgb(129,201,63)" stroke="rgb(103,160,50)" stroke-width="1" opacity="0.75" />
			</g>
			<g>
				<title>ABC_membrane (PF00664)
"ABC transporter transmembrane region"</title>
				<rect class="PF00664" x="494" y="28" stroke-linejoin="round" width="27" height="24" fill="rgb(149,226,73)" stroke="rgb(119,180,58)" stroke-width="1" opacity="0.75" />
			</g>
		</g>
		<g>
			<title>irtA_1 (CJKFNKEN_01944)
Iron import ATP-binding/permease protein IrtA</title>
			<polygon class="irtA_1 (CJKFNKEN_01944)
Iron import ATP-binding/permease protein IrtA" points="582,25 554,25 554,10 524,40 554,70 554,55 582,55" fill="rgb(255,255,255)" fill-opacity="1.0" stroke="rgb(0,0,0)" stroke-width="2"  />
			<g>
				<title>ABC_tran (PF00005)
"ABC transporter"</title>
				<polygon class="PF00005" points="532,36 540,28 546,28 546,52 540,52 532,44" stroke-linejoin="round" width="14" height="24" fill="rgb(129,201,63)" stroke="rgb(103,160,50)" stroke-width="1" opacity="0.75" />
			</g>
			<g>
				<title>ABC_membrane (PF00664)
"ABC transporter transmembrane region"</title>
				<rect class="PF00664" x="553" y="28" stroke-linejoin="round" width="27" height="24" fill="rgb(149,226,73)" stroke="rgb(119,180,58)" stroke-width="1" opacity="0.75" />
			</g>
		</g>
		<g>
			<title>ykoD_3 (CJKFNKEN_01945)
Putative HMP/thiamine import ATP-binding protein YkoD</title>
			<polygon class="ykoD_3 (CJKFNKEN_01945)
Putative HMP/thiamine import ATP-binding protein YkoD" points="632,25 614,25 614,10 584,40 614,70 614,55 632,55" fill="rgb(255,255,255)" fill-opacity="1.0" stroke="rgb(0,0,0)" stroke-width="2"  />
			<g>
				<title>ABC_tran (PF00005)
"ABC transporter"</title>
				<polygon class="PF00005" points="591,37 600,28 604,28 604,52 600,52 591,43" stroke-linejoin="round" width="13" height="24" fill="rgb(129,201,63)" stroke="rgb(103,160,50)" stroke-width="1" opacity="0.75" />
			</g>
			<g>
				<title>ABC_tran (PF00005)
"ABC transporter"</title>
				<rect class="PF00005" x="615" y="28" stroke-linejoin="round" width="15" height="24" fill="rgb(129,201,63)" stroke="rgb(103,160,50)" stroke-width="1" opacity="0.75" />
			</g>
		</g>
		<g>
			<title>ecfT_4 (CJKFNKEN_01946)
Energy-coupling factor transporter transmembrane protein EcfT</title>
			<polygon class="ecfT_4 (CJKFNKEN_01946)
Energy-coupling factor transporter transmembrane protein EcfT" points="632,40 656,10 656,70" fill="rgb(255,255,255)" fill-opacity="1.0" stroke="rgb(0,0,0)" stroke-width="2"  />
			<g>
				<title>CbiQ (PF02361)
"Cobalt transport protein"</title>
				<polygon class="PF02361" points="636,40 646,28 655,28 655,52 646,52" stroke-linejoin="round" width="20" height="24" fill="rgb(217,92,216)" stroke="rgb(173,73,172)" stroke-width="1" opacity="0.75" />
			</g>
		</g>
		<g>
			<title>CJKFNKEN_01947_gene (CJKFNKEN_01947)
hypothetical protein</title>
			<polygon class="CJKFNKEN_01947_gene (CJKFNKEN_01947)
hypothetical protein" points="656,40 675,10 675,70" fill="rgb(255,255,255)" fill-opacity="1.0" stroke="rgb(0,0,0)" stroke-width="2"  />
			<g>
				<title>Trep_Strep (PF09605)
"Hypothetical bacterial integral membrane protein (Trep_Strep)"</title>
				<polygon class="PF09605" points="660,40 668,28 674,28 674,52 668,52" stroke-linejoin="round" width="18" height="24" fill="rgb(200,75,172)" stroke="rgb(160,60,137)" stroke-width="1" opacity="0.75" />
			</g>
		</g>
	</g>
</svg>
