<svg version="1.1" baseProfile="full" xmlns="http://www.w3.org/2000/svg" width="1392.3333333333333" height="80">
	<g>
		<line x1="10" y1="40.0" x2="1382.3333333333333" y2="40.0" style="stroke:rgb(70,70,70); stroke-width:3 "/>
		<g>
			<title>capC (PLAHONHL_01825)
Capsule biosynthesis protein CapC</title>
			<polygon class="capC (PLAHONHL_01825)
Capsule biosynthesis protein CapC" points="24,40 39,10 39,70" fill="rgb(255,255,255)" fill-opacity="1.0" stroke="rgb(0,0,0)" stroke-width="2"  />
			<g>
				<title>Caps_synth_CapC (PF14102)
"Capsule biosynthesis CapC"</title>
				<polygon class="PF14102" points="27,40 33,28 37,28 37,52 33,52" stroke-linejoin="round" width="11" height="24" fill="rgb(56,185,111)" stroke="rgb(44,148,88)" stroke-width="1" opacity="0.75" />
			</g>
		</g>
		<g>
			<title>capB (PLAHONHL_01826)
Capsule biosynthesis protein CapB</title>
			<polygon class="capB (PLAHONHL_01826)
Capsule biosynthesis protein CapB" points="77,25 69,25 69,10 39,40 69,70 69,55 77,55" fill="rgb(255,255,255)" fill-opacity="1.0" stroke="rgb(0,0,0)" stroke-width="2"  />
			<g>
				<title>Mur_ligase_M (PF08245)
"Mur ligase middle domain"</title>
				<polygon class="PF08245" points="53,30 55,28 73,28 73,52 55,52 53,50" stroke-linejoin="round" width="20" height="24" fill="rgb(57,133,195)" stroke="rgb(45,106,156)" stroke-width="1" opacity="0.75" />
			</g>
		</g>
		<g>
			<title>PLAHONHL_01827_gene (PLAHONHL_01827)
hypothetical protein</title>
			<polygon class="PLAHONHL_01827_gene (PLAHONHL_01827)
hypothetical protein" points="95,10 105,40 95,70" fill="rgb(255,255,255)" fill-opacity="1.0" stroke="rgb(0,0,0)" stroke-width="2"  />
		</g>
		<g>
			<title>lipR (PLAHONHL_01828)
Putative acetyl-hydrolase LipR</title>
			<polygon class="lipR (PLAHONHL_01828)
Putative acetyl-hydrolase LipR" points="138,25 136,25 136,10 106,40 136,70 136,55 138,55" fill="rgb(255,255,255)" fill-opacity="1.0" stroke="rgb(0,0,0)" stroke-width="2"  />
			<g>
				<title>Abhydrolase_3 (PF07859)
"alpha/beta hydrolase fold"</title>
				<polygon class="PF07859" points="110,40 122,28 128,28 128,52 122,52" stroke-linejoin="round" width="20" height="24" fill="rgb(183,51,179)" stroke="rgb(146,40,143)" stroke-width="1" opacity="0.75" />
			</g>
		</g>
		<g>
			<title>ldhA (PLAHONHL_01829)
L-lactate dehydrogenase 1</title>
			<polygon class="ldhA (PLAHONHL_01829)
L-lactate dehydrogenase 1" points="149,25 151,25 151,10 181,40 151,70 151,55 149,55" fill="rgb(255,255,255)" fill-opacity="1.0" stroke="rgb(0,0,0)" stroke-width="2"  />
			<g>
				<title>Ldh_1_N (PF00056)
"lactate/malate dehydrogenase, NAD binding domain"</title>
				<rect class="PF00056" x="149" y="28" stroke-linejoin="round" width="13" height="24" fill="rgb(205,51,142)" stroke="rgb(164,40,113)" stroke-width="1" opacity="0.75" />
			</g>
			<g>
				<title>Ldh_1_C (PF02866)
"lactate/malate dehydrogenase, alpha/beta C-terminal domain"</title>
				<polygon class="PF02866" points="163,28 164,28 176,40 164,52 163,52" stroke-linejoin="round" width="17" height="24" fill="rgb(94,219,97)" stroke="rgb(75,175,77)" stroke-width="1" opacity="0.75" />
			</g>
		</g>
		<g>
			<title>PLAHONHL_01830_gene (PLAHONHL_01830)
hypothetical protein</title>
			<polygon class="PLAHONHL_01830_gene (PLAHONHL_01830)
hypothetical protein" points="205,40 218,10 218,70" fill="rgb(255,255,255)" fill-opacity="1.0" stroke="rgb(0,0,0)" stroke-width="2"  />
			<g>
				<title>4HBT_2 (PF13279)
"Thioesterase-like superfamily"</title>
				<polygon class="PF13279" points="208,40 213,28 216,28 216,52 213,52" stroke-linejoin="round" width="11" height="24" fill="rgb(213,114,82)" stroke="rgb(170,91,65)" stroke-width="1" opacity="0.75" />
			</g>
		</g>
		<g>
			<title>adh_2 (PLAHONHL_01831)
Alcohol dehydrogenase</title>
			<polygon class="adh_2 (PLAHONHL_01831)
Alcohol dehydrogenase" points="226,25 231,25 231,10 261,40 231,70 231,55 226,55" fill="rgb(255,255,255)" fill-opacity="1.0" stroke="rgb(0,0,0)" stroke-width="2"  />
			<g>
				<title>ADH_N (PF08240)
"Alcohol dehydrogenase GroES-like domain"</title>
				<rect class="PF08240" x="228" y="28" stroke-linejoin="round" width="11" height="24" fill="rgb(211,65,138)" stroke="rgb(168,51,110)" stroke-width="1" opacity="0.75" />
			</g>
			<g>
				<title>ADH_zinc_N (PF00107)
"Zinc-binding dehydrogenase"</title>
				<polygon class="PF00107" points="243,28 244,28 255,39 255,41 244,52 243,52" stroke-linejoin="round" width="12" height="24" fill="rgb(81,108,215)" stroke="rgb(64,86,172)" stroke-width="1" opacity="0.75" />
			</g>
		</g>
		<g>
			<title>eamB_2 (PLAHONHL_01832)
Cysteine/O-acetylserine efflux protein</title>
			<polygon class="eamB_2 (PLAHONHL_01832)
Cysteine/O-acetylserine efflux protein" points="266,10 284,40 266,70" fill="rgb(255,255,255)" fill-opacity="1.0" stroke="rgb(0,0,0)" stroke-width="2"  />
			<g>
				<title>LysE (PF01810)
"LysE type translocator"</title>
				<polygon class="PF01810" points="266,28 273,28 281,40 273,52 266,52" stroke-linejoin="round" width="17" height="24" fill="rgb(198,75,167)" stroke="rgb(158,60,133)" stroke-width="1" opacity="0.75" />
			</g>
		</g>
		<g>
			<title>cueR (PLAHONHL_01833)
HTH-type transcriptional regulator CueR</title>
			<polygon class="cueR (PLAHONHL_01833)
HTH-type transcriptional regulator CueR" points="287,40 299,10 299,70" fill="rgb(255,255,255)" fill-opacity="1.0" stroke="rgb(0,0,0)" stroke-width="2"  />
			<g>
				<title>MerR_1 (PF13411)
"MerR HTH family regulatory protein"</title>
				<polygon class="PF13411" points="292,35 295,28 298,28 298,52 295,52 292,45" stroke-linejoin="round" width="6" height="24" fill="rgb(100,202,107)" stroke="rgb(80,161,85)" stroke-width="1" opacity="0.75" />
			</g>
		</g>
		<g>
			<title>PLAHONHL_01834_gene (PLAHONHL_01834)
putative oxidoreductase</title>
			<polygon class="PLAHONHL_01834_gene (PLAHONHL_01834)
putative oxidoreductase" points="303,10 327,40 303,70" fill="rgb(255,255,255)" fill-opacity="1.0" stroke="rgb(0,0,0)" stroke-width="2"  />
			<g>
				<title>adh_short (PF00106)
"short chain dehydrogenase"</title>
				<polygon class="PF00106" points="303,28 314,28 322,38 322,42 314,52 303,52" stroke-linejoin="round" width="19" height="24" fill="rgb(182,219,73)" stroke="rgb(145,175,58)" stroke-width="1" opacity="0.75" />
			</g>
		</g>
		<g>
			<title>glcB_1 (PLAHONHL_01835)
PTS system glucoside-specific EIICBA component</title>
			<polygon class="glcB_1 (PLAHONHL_01835)
PTS system glucoside-specific EIICBA component" points="329,40 346,10 346,70" fill="rgb(255,255,255)" fill-opacity="1.0" stroke="rgb(0,0,0)" stroke-width="2"  />
			<g>
				<title>PTS_EIIA_1 (PF00358)
"phosphoenolpyruvate-dependent sugar phosphotransferase system, EIIA 1"</title>
				<polygon class="PF00358" points="332,40 339,28 343,28 343,52 339,52" stroke-linejoin="round" width="12" height="24" fill="rgb(125,49,194)" stroke="rgb(100,39,155)" stroke-width="1" opacity="0.75" />
			</g>
		</g>
		<g>
			<title>glcB_2 (PLAHONHL_01836)
PTS system glucoside-specific EIICBA component</title>
			<polygon class="glcB_2 (PLAHONHL_01836)
PTS system glucoside-specific EIICBA component" points="398,25 378,25 378,10 348,40 378,70 378,55 398,55" fill="rgb(255,255,255)" fill-opacity="1.0" stroke="rgb(0,0,0)" stroke-width="2"  />
			<g>
				<title>PTS_EIIB (PF00367)
"phosphotransferase system, EIIB"</title>
				<polygon class="PF00367" points="352,40 353,39 353,41" stroke-linejoin="round" width="3" height="24" fill="rgb(188,77,92)" stroke="rgb(150,61,73)" stroke-width="1" opacity="0.75" />
			</g>
			<g>
				<title>PTS_EIIC (PF02378)
"Phosphotransferase system, EIIC"</title>
				<polygon class="PF02378" points="362,30 364,28 396,28 396,52 364,52 362,50" stroke-linejoin="round" width="34" height="24" fill="rgb(73,199,212)" stroke="rgb(58,159,169)" stroke-width="1" opacity="0.75" />
			</g>
		</g>
		<g>
			<title>ydaP (PLAHONHL_01837)
Putative thiamine pyrophosphate-containing protein YdaP</title>
			<polygon class="ydaP (PLAHONHL_01837)
Putative thiamine pyrophosphate-containing protein YdaP" points="474,25 446,25 446,10 416,40 446,70 446,55 474,55" fill="rgb(255,255,255)" fill-opacity="1.0" stroke="rgb(0,0,0)" stroke-width="2"  />
			<g>
				<title>TPP_enzyme_C (PF02775)
"Thiamine pyrophosphate enzyme, C-terminal TPP binding domain"</title>
				<polygon class="PF02775" points="421,39 432,28 435,28 435,52 432,52 421,41" stroke-linejoin="round" width="14" height="24" fill="rgb(156,179,45)" stroke="rgb(124,143,36)" stroke-width="1" opacity="0.75" />
			</g>
			<g>
				<title>TPP_enzyme_M (PF00205)
"Thiamine pyrophosphate enzyme, central domain"</title>
				<rect class="PF00205" x="441" y="28" stroke-linejoin="round" width="12" height="24" fill="rgb(149,194,69)" stroke="rgb(119,155,55)" stroke-width="1" opacity="0.75" />
			</g>
			<g>
				<title>TPP_enzyme_N (PF02776)
"Thiamine pyrophosphate enzyme, N-terminal TPP binding domain"</title>
				<rect class="PF02776" x="456" y="28" stroke-linejoin="round" width="17" height="24" fill="rgb(55,81,185)" stroke="rgb(44,64,148)" stroke-width="1" opacity="0.75" />
			</g>
		</g>
		<g>
			<title>cidB (PLAHONHL_01838)
Holin-like protein CidB</title>
			<polygon class="cidB (PLAHONHL_01838)
Holin-like protein CidB" points="476,40 499,10 499,70" fill="rgb(255,255,255)" fill-opacity="1.0" stroke="rgb(0,0,0)" stroke-width="2"  />
			<g>
				<title>LrgB (PF04172)
"LrgB-like family"</title>
				<polygon class="PF04172" points="480,40 489,28 497,28 497,52 489,52" stroke-linejoin="round" width="21" height="24" fill="rgb(57,227,179)" stroke="rgb(45,181,143)" stroke-width="1" opacity="0.75" />
			</g>
		</g>
		<g>
			<title>cidA (PLAHONHL_01839)
Holin-like protein CidA</title>
			<polygon class="cidA (PLAHONHL_01839)
Holin-like protein CidA" points="499,40 512,10 512,70" fill="rgb(255,255,255)" fill-opacity="1.0" stroke="rgb(0,0,0)" stroke-width="2"  />
			<g>
				<title>LrgA (PF03788)
"LrgA family"</title>
				<polygon class="PF03788" points="502,40 507,28 509,28 509,52 507,52" stroke-linejoin="round" width="9" height="24" fill="rgb(51,191,185)" stroke="rgb(40,152,148)" stroke-width="1" opacity="0.75" />
			</g>
		</g>
		<g>
			<title>cynR_1 (PLAHONHL_01840)
HTH-type transcriptional regulator CynR</title>
			<polygon class="cynR_1 (PLAHONHL_01840)
HTH-type transcriptional regulator CynR" points="519,40 548,10 548,70" fill="rgb(255,255,255)" fill-opacity="1.0" stroke="rgb(0,0,0)" stroke-width="2"  />
			<g>
				<title>LysR_substrate (PF03466)
"LysR substrate binding domain"</title>
				<polygon class="PF03466" points="523,40 535,28 539,28 539,52 535,52" stroke-linejoin="round" width="20" height="24" fill="rgb(55,136,195)" stroke="rgb(44,108,156)" stroke-width="1" opacity="0.75" />
			</g>
			<g>
				<title>HTH_1 (PF00126)
"Bacterial regulatory helix-turn-helix protein, lysR family"</title>
				<rect class="PF00126" x="542" y="28" stroke-linejoin="round" width="5" height="24" fill="rgb(125,227,79)" stroke="rgb(99,181,63)" stroke-width="1" opacity="0.75" />
			</g>
		</g>
		<g>
			<title>PLAHONHL_01841_gene (PLAHONHL_01841)
hypothetical protein</title>
			<polygon class="PLAHONHL_01841_gene (PLAHONHL_01841)
hypothetical protein" points="554,10 561,40 554,70" fill="rgb(255,255,255)" fill-opacity="1.0" stroke="rgb(0,0,0)" stroke-width="2"  />
			<g>
				<title>YozE_SAM_like (PF06855)
"YozE SAM-like fold"</title>
				<polygon class="PF06855" points="554,28 554,28 558,40 554,52 554,52" stroke-linejoin="round" width="6" height="24" fill="rgb(83,201,171)" stroke="rgb(66,160,136)" stroke-width="1" opacity="0.75" />
			</g>
		</g>
		<g>
			<title>ssaA_2 (PLAHONHL_01842)
Staphylococcal secretory antigen SsaA</title>
			<polygon class="ssaA_2 (PLAHONHL_01842)
Staphylococcal secretory antigen SsaA" points="572,10 586,40 572,70" fill="rgb(255,255,255)" fill-opacity="1.0" stroke="rgb(0,0,0)" stroke-width="2"  />
			<g>
				<title>CHAP (PF05257)
"CHAP domain"</title>
				<polygon class="PF05257" points="575,28 577,28 583,40 583,40 577,52 575,52" stroke-linejoin="round" width="8" height="24" fill="rgb(54,187,84)" stroke="rgb(43,149,67)" stroke-width="1" opacity="0.75" />
			</g>
		</g>
		<g>
			<title>mvaA (PLAHONHL_01843)
3-hydroxy-3-methylglutaryl-coenzyme A reductase</title>
			<polygon class="mvaA (PLAHONHL_01843)
3-hydroxy-3-methylglutaryl-coenzyme A reductase" points="634,25 621,25 621,10 591,40 621,70 621,55 634,55" fill="rgb(255,255,255)" fill-opacity="1.0" stroke="rgb(0,0,0)" stroke-width="2"  />
			<g>
				<title>HMG-CoA_red (PF00368)
"Hydroxymethylglutaryl-coenzyme A reductase"</title>
				<polygon class="PF00368" points="595,40 607,28 632,28 632,52 607,52 595,40" stroke-linejoin="round" width="37" height="24" fill="rgb(67,203,137)" stroke="rgb(53,162,109)" stroke-width="1" opacity="0.75" />
			</g>
		</g>
		<g>
			<title>thlA (PLAHONHL_01844)
Acetyl-CoA acetyltransferase</title>
			<polygon class="thlA (PLAHONHL_01844)
Acetyl-CoA acetyltransferase" points="672,25 664,25 664,10 634,40 664,70 664,55 672,55" fill="rgb(255,255,255)" fill-opacity="1.0" stroke="rgb(0,0,0)" stroke-width="2"  />
			<g>
				<title>Thiolase_C (PF02803)
"Thiolase, C-terminal domain"</title>
				<polygon class="PF02803" points="638,40 646,32 646,48" stroke-linejoin="round" width="12" height="24" fill="rgb(218,187,56)" stroke="rgb(174,149,44)" stroke-width="1" opacity="0.75" />
			</g>
			<g>
				<title>Thiolase_N (PF00108)
"Thiolase, N-terminal domain"</title>
				<polygon class="PF00108" points="647,31 650,28 671,28 671,52 650,52 647,49" stroke-linejoin="round" width="24" height="24" fill="rgb(82,90,195)" stroke="rgb(65,72,156)" stroke-width="1" opacity="0.75" />
			</g>
		</g>
		<g>
			<title>mvaS (PLAHONHL_01845)
Hydroxymethylglutaryl-CoA synthase</title>
			<polygon class="mvaS (PLAHONHL_01845)
Hydroxymethylglutaryl-CoA synthase" points="676,25 685,25 685,10 715,40 685,70 685,55 676,55" fill="rgb(255,255,255)" fill-opacity="1.0" stroke="rgb(0,0,0)" stroke-width="2"  />
			<g>
				<title>HMG_CoA_synt_N (PF01154)
"Hydroxymethylglutaryl-coenzyme A synthase N terminal"</title>
				<rect class="PF01154" x="676" y="28" stroke-linejoin="round" width="16" height="24" fill="rgb(88,216,218)" stroke="rgb(70,172,174)" stroke-width="1" opacity="0.75" />
			</g>
			<g>
				<title>HMG_CoA_synt_C (PF08540)
"Hydroxymethylglutaryl-coenzyme A synthase C terminal"</title>
				<polygon class="PF08540" points="700,30 710,40 700,50" stroke-linejoin="round" width="14" height="24" fill="rgb(49,194,86)" stroke="rgb(39,155,68)" stroke-width="1" opacity="0.75" />
			</g>
		</g>
		<g>
			<title>PLAHONHL_01846_gene (PLAHONHL_01846)
hypothetical protein</title>
			<polygon class="PLAHONHL_01846_gene (PLAHONHL_01846)
hypothetical protein" points="722,40 740,10 740,70" fill="rgb(255,255,255)" fill-opacity="1.0" stroke="rgb(0,0,0)" stroke-width="2"  />
			<g>
				<title>TetR_C_8 (PF14278)
"Transcriptional regulator C-terminal region"</title>
				<polygon class="PF14278" points="726,40 732,30 732,50" stroke-linejoin="round" width="10" height="24" fill="rgb(192,229,97)" stroke="rgb(153,183,77)" stroke-width="1" opacity="0.75" />
			</g>
			<g>
				<title>TetR_N (PF00440)
"Bacterial regulatory proteins, tetR family"</title>
				<polygon class="PF00440" points="734,27 734,28 738,28 738,52 734,52 734,53" stroke-linejoin="round" width="4" height="24" fill="rgb(73,212,190)" stroke="rgb(58,169,152)" stroke-width="1" opacity="0.75" />
			</g>
		</g>
		<g>
			<title>ybhF (PLAHONHL_01847)
putative ABC transporter ATP-binding protein YbhF</title>
			<polygon class="ybhF (PLAHONHL_01847)
putative ABC transporter ATP-binding protein YbhF" points="746,10 770,40 746,70" fill="rgb(255,255,255)" fill-opacity="1.0" stroke="rgb(0,0,0)" stroke-width="2"  />
			<g>
				<title>ABC_tran (PF00005)
"ABC transporter"</title>
				<polygon class="PF00005" points="748,28 757,28 762,35 762,45 757,52 748,52" stroke-linejoin="round" width="14" height="24" fill="rgb(129,201,63)" stroke="rgb(103,160,50)" stroke-width="1" opacity="0.75" />
			</g>
		</g>
		<g>
			<title>ybhR (PLAHONHL_01848)
Inner membrane transport permease YbhR</title>
			<polygon class="ybhR (PLAHONHL_01848)
Inner membrane transport permease YbhR" points="770,25 776,25 776,10 806,40 776,70 776,55 770,55" fill="rgb(255,255,255)" fill-opacity="1.0" stroke="rgb(0,0,0)" stroke-width="2"  />
			<g>
				<title>ABC2_membrane_3 (PF12698)
"ABC-2 family transporter protein"</title>
				<polygon class="PF12698" points="771,28 789,28 801,40 789,52 771,52" stroke-linejoin="round" width="33" height="24" fill="rgb(151,189,55)" stroke="rgb(120,151,44)" stroke-width="1" opacity="0.75" />
			</g>
		</g>
		<g>
			<title>PLAHONHL_01849_gene (PLAHONHL_01849)
Hemolysin H1C</title>
			<polygon class="PLAHONHL_01849_gene (PLAHONHL_01849)
Hemolysin H1C" points="822,10 826,40 822,70" fill="rgb(255,255,255)" fill-opacity="1.0" stroke="rgb(0,0,0)" stroke-width="2"  />
			<g>
				<title>Staph_haemo (PF05480)
"Staphylococcus haemolytic protein"</title>
				<polygon class="PF05480" points="822,31 823,40 822,49" stroke-linejoin="round" width="4" height="24" fill="rgb(197,90,80)" stroke="rgb(157,72,64)" stroke-width="1" opacity="0.75" />
			</g>
		</g>
		<g>
			<title>PLAHONHL_01850_gene (PLAHONHL_01850)
Hemolysin H1C</title>
			<polygon class="PLAHONHL_01850_gene (PLAHONHL_01850)
Hemolysin H1C" points="828,10 832,40 828,70" fill="rgb(255,255,255)" fill-opacity="1.0" stroke="rgb(0,0,0)" stroke-width="2"  />
			<g>
				<title>Staph_haemo (PF05480)
"Staphylococcus haemolytic protein"</title>
				<polygon class="PF05480" points="828,31 829,40 828,49" stroke-linejoin="round" width="4" height="24" fill="rgb(197,90,80)" stroke="rgb(157,72,64)" stroke-width="1" opacity="0.75" />
			</g>
		</g>
		<g>
			<title>PLAHONHL_01851_gene (PLAHONHL_01851)
Hemolysin H1C</title>
			<polygon class="PLAHONHL_01851_gene (PLAHONHL_01851)
Hemolysin H1C" points="834,10 838,40 834,70" fill="rgb(255,255,255)" fill-opacity="1.0" stroke="rgb(0,0,0)" stroke-width="2"  />
			<g>
				<title>Staph_haemo (PF05480)
"Staphylococcus haemolytic protein"</title>
				<polygon class="PF05480" points="834,31 835,40 834,49" stroke-linejoin="round" width="4" height="24" fill="rgb(197,90,80)" stroke="rgb(157,72,64)" stroke-width="1" opacity="0.75" />
			</g>
		</g>
		<g>
			<title>ogt (PLAHONHL_01852)
Methylated-DNA--protein-cysteine methyltransferase</title>
			<polygon class="ogt (PLAHONHL_01852)
Methylated-DNA--protein-cysteine methyltransferase" points="841,40 858,10 858,70" fill="rgb(255,255,255)" fill-opacity="1.0" stroke="rgb(0,0,0)" stroke-width="2"  />
			<g>
				<title>DNA_binding_1 (PF01035)
"6-O-methylguanine DNA methyltransferase, DNA binding domain"</title>
				<polygon class="PF01035" points="844,40 850,30 850,50" stroke-linejoin="round" width="8" height="24" fill="rgb(79,155,220)" stroke="rgb(63,123,176)" stroke-width="1" opacity="0.75" />
			</g>
		</g>
		<g>
			<title>corA_2 (PLAHONHL_01853)
Cobalt/magnesium transport protein CorA</title>
			<polygon class="corA_2 (PLAHONHL_01853)
Cobalt/magnesium transport protein CorA" points="891,25 890,25 890,10 860,40 890,70 890,55 891,55" fill="rgb(255,255,255)" fill-opacity="1.0" stroke="rgb(0,0,0)" stroke-width="2"  />
			<g>
				<title>CorA (PF01544)
"CorA-like Mg2+ transporter protein"</title>
				<polygon class="PF01544" points="864,40 876,28 888,28 888,52 876,52" stroke-linejoin="round" width="28" height="24" fill="rgb(65,141,201)" stroke="rgb(52,112,160)" stroke-width="1" opacity="0.75" />
			</g>
		</g>
		<g>
			<title>PLAHONHL_01854_gene (PLAHONHL_01854)
hypothetical protein</title>
			<polygon class="PLAHONHL_01854_gene (PLAHONHL_01854)
hypothetical protein" points="892,40 908,10 908,70" fill="rgb(255,255,255)" fill-opacity="1.0" stroke="rgb(0,0,0)" stroke-width="2"  />
		</g>
		<g>
			<title>ydfJ (PLAHONHL_01855)
Membrane protein YdfJ</title>
			<polygon class="ydfJ (PLAHONHL_01855)
Membrane protein YdfJ" points="996,25 943,25 943,10 913,40 943,70 943,55 996,55" fill="rgb(255,255,255)" fill-opacity="1.0" stroke="rgb(0,0,0)" stroke-width="2"  />
			<g>
				<title>MMPL (PF03176)
"MMPL family"</title>
				<polygon class="PF03176" points="926,31 929,28 957,28 957,52 929,52 926,49" stroke-linejoin="round" width="31" height="24" fill="rgb(228,109,193)" stroke="rgb(182,87,154)" stroke-width="1" opacity="0.75" />
			</g>
			<g>
				<title>MMPL (PF03176)
"MMPL family"</title>
				<rect class="PF03176" x="960" y="28" stroke-linejoin="round" width="31" height="24" fill="rgb(228,109,193)" stroke="rgb(182,87,154)" stroke-width="1" opacity="0.75" />
			</g>
		</g>
		<g>
			<title>PLAHONHL_01856_gene (PLAHONHL_01856)
hypothetical protein</title>
			<polygon class="PLAHONHL_01856_gene (PLAHONHL_01856)
hypothetical protein" points="1001,10 1019,40 1001,70" fill="rgb(255,255,255)" fill-opacity="1.0" stroke="rgb(0,0,0)" stroke-width="2"  />
		</g>
		<g>
			<title>rocA (PLAHONHL_01857)
1-pyrroline-5-carboxylate dehydrogenase</title>
			<polygon class="rocA (PLAHONHL_01857)
1-pyrroline-5-carboxylate dehydrogenase" points="1079,25 1058,25 1058,10 1028,40 1058,70 1058,55 1079,55" fill="rgb(255,255,255)" fill-opacity="1.0" stroke="rgb(0,0,0)" stroke-width="2"  />
			<g>
				<title>Aldedh (PF00171)
"Aldehyde dehydrogenase family"</title>
				<polygon class="PF00171" points="1032,40 1044,28 1074,28 1074,52 1044,52" stroke-linejoin="round" width="46" height="24" fill="rgb(105,213,139)" stroke="rgb(84,170,111)" stroke-width="1" opacity="0.75" />
			</g>
		</g>
		<g>
			<title>PLAHONHL_01858_gene (PLAHONHL_01858)
UDP-glucose 4-epimerase</title>
			<polygon class="PLAHONHL_01858_gene (PLAHONHL_01858)
UDP-glucose 4-epimerase" points="1089,25 1090,25 1090,10 1120,40 1090,70 1090,55 1089,55" fill="rgb(255,255,255)" fill-opacity="1.0" stroke="rgb(0,0,0)" stroke-width="2"  />
			<g>
				<title>Epimerase (PF01370)
"NAD dependent epimerase/dehydratase family"</title>
				<polygon class="PF01370" points="1089,28 1104,28 1113,37 1113,43 1104,52 1089,52" stroke-linejoin="round" width="24" height="24" fill="rgb(98,102,214)" stroke="rgb(78,81,171)" stroke-width="1" opacity="0.75" />
			</g>
		</g>
		<g>
			<title>tagF_3 (PLAHONHL_01859)
Teichoic acid poly(glycerol phosphate) polymerase</title>
			<polygon class="tagF_3 (PLAHONHL_01859)
Teichoic acid poly(glycerol phosphate) polymerase" points="1204,25 1151,25 1151,10 1121,40 1151,70 1151,55 1204,55" fill="rgb(255,255,255)" fill-opacity="1.0" stroke="rgb(0,0,0)" stroke-width="2"  />
			<g>
				<title>Glycos_transf_1 (PF00534)
"Glycosyl transferases group 1"</title>
				<polygon class="PF00534" points="1125,40 1137,28 1138,28 1138,52 1137,52" stroke-linejoin="round" width="16" height="24" fill="rgb(228,92,150)" stroke="rgb(182,73,119)" stroke-width="1" opacity="0.75" />
			</g>
			<g>
				<title>Glyphos_transf (PF04464)
"CDP-Glycerol:Poly(glycerophosphate) glycerophosphotransferase"</title>
				<rect class="PF04464" x="1163" y="28" stroke-linejoin="round" width="37" height="24" fill="rgb(55,181,67)" stroke="rgb(44,144,53)" stroke-width="1" opacity="0.75" />
			</g>
		</g>
		<g>
			<title>PLAHONHL_01860_gene (PLAHONHL_01860)
Putative acetyltransferase</title>
			<polygon class="PLAHONHL_01860_gene (PLAHONHL_01860)
Putative acetyltransferase" points="1214,40 1233,10 1233,70" fill="rgb(255,255,255)" fill-opacity="1.0" stroke="rgb(0,0,0)" stroke-width="2"  />
			<g>
				<title>Hexapep (PF00132)
"Bacterial transferase hexapeptide (six repeats)"</title>
				<polygon class="PF00132" points="1218,40 1219,38 1219,42" stroke-linejoin="round" width="3" height="24" fill="rgb(89,131,202)" stroke="rgb(71,104,161)" stroke-width="1" opacity="0.75" />
			</g>
			<g>
				<title>Hexapep_2 (PF14602)
"Hexapeptide repeat of succinyl-transferase"</title>
				<polygon class="PF14602" points="1222,34 1223,32 1223,48 1222,46" stroke-linejoin="round" width="1" height="24" fill="rgb(79,205,115)" stroke="rgb(63,164,92)" stroke-width="1" opacity="0.75" />
			</g>
			<g>
				<title>Mac (PF12464)
"Maltose acetyltransferase"</title>
				<rect class="PF12464" x="1227" y="28" stroke-linejoin="round" width="5" height="24" fill="rgb(188,228,87)" stroke="rgb(150,182,69)" stroke-width="1" opacity="0.75" />
			</g>
		</g>
		<g>
			<title>PLAHONHL_01861_gene (PLAHONHL_01861)
hypothetical protein</title>
			<polygon class="PLAHONHL_01861_gene (PLAHONHL_01861)
hypothetical protein" points="1241,10 1247,40 1241,70" fill="rgb(255,255,255)" fill-opacity="1.0" stroke="rgb(0,0,0)" stroke-width="2"  />
		</g>
		<g>
			<title>copA (PLAHONHL_01862)
Copper-exporting P-type ATPase A</title>
			<polygon class="copA (PLAHONHL_01862)
Copper-exporting P-type ATPase A" points="1254,25 1303,25 1303,10 1333,40 1303,70 1303,55 1254,55" fill="rgb(255,255,255)" fill-opacity="1.0" stroke="rgb(0,0,0)" stroke-width="2"  />
			<g>
				<title>HMA (PF00403)
"Heavy-metal-associated domain"</title>
				<rect class="PF00403" x="1254" y="28" stroke-linejoin="round" width="6" height="24" fill="rgb(91,198,182)" stroke="rgb(72,158,145)" stroke-width="1" opacity="0.75" />
			</g>
			<g>
				<title>HMA (PF00403)
"Heavy-metal-associated domain"</title>
				<rect class="PF00403" x="1261" y="28" stroke-linejoin="round" width="6" height="24" fill="rgb(91,198,182)" stroke="rgb(72,158,145)" stroke-width="1" opacity="0.75" />
			</g>
			<g>
				<title>E1-E2_ATPase (PF00122)
"E1-E2 ATPase"</title>
				<rect class="PF00122" x="1283" y="28" stroke-linejoin="round" width="18" height="24" fill="rgb(149,204,70)" stroke="rgb(119,163,56)" stroke-width="1" opacity="0.75" />
			</g>
			<g>
				<title>Hydrolase (PF00702)
"haloacid dehalogenase-like hydrolase"</title>
				<polygon class="PF00702" points="1303,28 1317,28 1324,35 1324,45 1317,52 1303,52" stroke-linejoin="round" width="21" height="24" fill="rgb(68,220,102)" stroke="rgb(54,176,81)" stroke-width="1" opacity="0.75" />
			</g>
		</g>
		<g>
			<title>copZ (PLAHONHL_01863)
Copper chaperone CopZ</title>
			<polygon class="copZ (PLAHONHL_01863)
Copper chaperone CopZ" points="1336,10 1342,40 1336,70" fill="rgb(255,255,255)" fill-opacity="1.0" stroke="rgb(0,0,0)" stroke-width="2"  />
			<g>
				<title>HMA (PF00403)
"Heavy-metal-associated domain"</title>
				<polygon class="PF00403" points="1336,28 1336,28 1339,40 1336,52 1336,52" stroke-linejoin="round" width="6" height="24" fill="rgb(91,198,182)" stroke="rgb(72,158,145)" stroke-width="1" opacity="0.75" />
			</g>
		</g>
	</g>
</svg>
