<svg version="1.1" baseProfile="full" xmlns="http://www.w3.org/2000/svg" width="466.56666666666666" height="80">
	<g>
		<line x1="10" y1="40.0" x2="456.56666666666666" y2="40.0" style="stroke:rgb(70,70,70); stroke-width:3 "/>
		<g>
			<title>fecD_2 (LGEIKLPL_02214)
Fe(3+) dicitrate transport system permease protein FecD</title>
			<polygon class="fecD_2 (LGEIKLPL_02214)
Fe(3+) dicitrate transport system permease protein FecD" points="59,25 57,25 57,10 27,40 57,70 57,55 59,55" fill="rgb(255,255,255)" fill-opacity="1.0" stroke="rgb(0,0,0)" stroke-width="2"  />
			<g>
				<title>FecCD (PF01032)
"FecCD transport family"</title>
				<polygon class="PF01032" points="31,40 43,28 57,28 57,52 43,52" stroke-linejoin="round" width="30" height="24" fill="rgb(210,177,70)" stroke="rgb(168,141,56)" stroke-width="1" opacity="0.75" />
			</g>
		</g>
		<g>
			<title>yfiZ_2 (LGEIKLPL_02215)
putative siderophore transport system permease protein YfiZ</title>
			<polygon class="yfiZ_2 (LGEIKLPL_02215)
putative siderophore transport system permease protein YfiZ" points="94,25 90,25 90,10 60,40 90,70 90,55 94,55" fill="rgb(255,255,255)" fill-opacity="1.0" stroke="rgb(0,0,0)" stroke-width="2"  />
			<g>
				<title>FecCD (PF01032)
"FecCD transport family"</title>
				<polygon class="PF01032" points="64,40 76,28 90,28 90,52 76,52" stroke-linejoin="round" width="30" height="24" fill="rgb(210,177,70)" stroke="rgb(168,141,56)" stroke-width="1" opacity="0.75" />
			</g>
		</g>
		<g>
			<title>yfmC_2 (LGEIKLPL_02216)
Fe(3+)-citrate-binding protein YfmC</title>
			<polygon class="yfmC_2 (LGEIKLPL_02216)
Fe(3+)-citrate-binding protein YfmC" points="126,25 124,25 124,10 94,40 124,70 124,55 126,55" fill="rgb(255,255,255)" fill-opacity="1.0" stroke="rgb(0,0,0)" stroke-width="2"  />
			<g>
				<title>Peripla_BP_2 (PF01497)
"Periplasmic binding protein"</title>
				<polygon class="PF01497" points="98,40 110,28 120,28 120,52 110,52" stroke-linejoin="round" width="24" height="24" fill="rgb(183,226,104)" stroke="rgb(146,180,83)" stroke-width="1" opacity="0.75" />
			</g>
		</g>
		<g>
			<title>orr (LGEIKLPL_02217)
Ornithine racemase</title>
			<polygon class="orr (LGEIKLPL_02217)
Ornithine racemase" points="175,25 170,25 170,10 140,40 170,70 170,55 175,55" fill="rgb(255,255,255)" fill-opacity="1.0" stroke="rgb(0,0,0)" stroke-width="2"  />
			<g>
				<title>Ala_racemase_N (PF01168)
"Alanine racemase, N-terminal domain"</title>
				<polygon class="PF01168" points="153,31 156,28 174,28 174,52 156,52 153,49" stroke-linejoin="round" width="21" height="24" fill="rgb(87,82,180)" stroke="rgb(69,65,144)" stroke-width="1" opacity="0.75" />
			</g>
		</g>
		<g>
			<title>iucA_2 (LGEIKLPL_02218)
N(2)-citryl-N(6)-acetyl-N(6)-hydroxylysine synthase</title>
			<polygon class="iucA_2 (LGEIKLPL_02218)
N(2)-citryl-N(6)-acetyl-N(6)-hydroxylysine synthase" points="234,25 206,25 206,10 176,40 206,70 206,55 234,55" fill="rgb(255,255,255)" fill-opacity="1.0" stroke="rgb(0,0,0)" stroke-width="2"  />
			<g>
				<title>FhuF (PF06276)
"Ferric iron reductase FhuF-like transporter"</title>
				<polygon class="PF06276" points="180,40 192,28 193,28 193,52 192,52" stroke-linejoin="round" width="16" height="24" fill="rgb(76,151,221)" stroke="rgb(60,120,176)" stroke-width="1" opacity="0.75" />
			</g>
			<g>
				<title>IucA_IucC (PF04183)
"IucA / IucC family"</title>
				<rect class="PF04183" x="196" y="28" stroke-linejoin="round" width="22" height="24" fill="rgb(221,104,121)" stroke="rgb(176,83,96)" stroke-width="1" opacity="0.75" />
			</g>
		</g>
		<g>
			<title>LGEIKLPL_02219_gene (LGEIKLPL_02219)
hypothetical protein</title>
			<polygon class="LGEIKLPL_02219_gene (LGEIKLPL_02219)
hypothetical protein" points="273,25 264,25 264,10 234,40 264,70 264,55 273,55" fill="rgb(255,255,255)" fill-opacity="1.0" stroke="rgb(0,0,0)" stroke-width="2"  />
			<g>
				<title>MFS_3 (PF05977)
"Transmembrane secretion effector"</title>
				<polygon class="PF05977" points="238,40 250,28 273,28 273,52 250,52" stroke-linejoin="round" width="39" height="24" fill="rgb(80,62,217)" stroke="rgb(64,49,173)" stroke-width="1" opacity="0.75" />
			</g>
		</g>
		<g>
			<title>iucC_3 (LGEIKLPL_02220)
Aerobactin synthase</title>
			<polygon class="iucC_3 (LGEIKLPL_02220)
Aerobactin synthase" points="277,25 312,25 312,10 342,40 312,70 312,55 277,55" fill="rgb(255,255,255)" fill-opacity="1.0" stroke="rgb(0,0,0)" stroke-width="2"  />
			<g>
				<title>IucA_IucC (PF04183)
"IucA / IucC family"</title>
				<rect class="PF04183" x="296" y="28" stroke-linejoin="round" width="24" height="24" fill="rgb(221,104,121)" stroke="rgb(176,83,96)" stroke-width="1" opacity="0.75" />
			</g>
			<g>
				<title>FhuF (PF06276)
"Ferric iron reductase FhuF-like transporter"</title>
				<polygon class="PF06276" points="323,28 326,28 338,40 326,52 323,52" stroke-linejoin="round" width="17" height="24" fill="rgb(76,151,221)" stroke="rgb(60,120,176)" stroke-width="1" opacity="0.75" />
			</g>
		</g>
		<g>
			<title>LGEIKLPL_02221_gene (LGEIKLPL_02221)
Alkaline shock protein 23</title>
			<polygon class="LGEIKLPL_02221_gene (LGEIKLPL_02221)
Alkaline shock protein 23" points="349,40 366,10 366,70" fill="rgb(255,255,255)" fill-opacity="1.0" stroke="rgb(0,0,0)" stroke-width="2"  />
			<g>
				<title>Asp23 (PF03780)
"Asp23 family, cell envelope-related function"</title>
				<polygon class="PF03780" points="352,40 359,28 361,28 361,52 359,52" stroke-linejoin="round" width="10" height="24" fill="rgb(195,60,141)" stroke="rgb(156,48,112)" stroke-width="1" opacity="0.75" />
			</g>
		</g>
		<g>
			<title>LGEIKLPL_02222_gene (LGEIKLPL_02222)
hypothetical protein</title>
			<polygon class="LGEIKLPL_02222_gene (LGEIKLPL_02222)
hypothetical protein" points="368,40 376,10 376,70" fill="rgb(255,255,255)" fill-opacity="1.0" stroke="rgb(0,0,0)" stroke-width="2"  />
			<g>
				<title>DUF2273 (PF10031)
"Small integral membrane protein (DUF2273)"</title>
				<polygon class="PF10031" points="371,40 373,32 373,48" stroke-linejoin="round" width="4" height="24" fill="rgb(203,147,56)" stroke="rgb(162,117,44)" stroke-width="1" opacity="0.75" />
			</g>
		</g>
		<g>
			<title>LGEIKLPL_02223_gene (LGEIKLPL_02223)
hypothetical protein</title>
			<polygon class="LGEIKLPL_02223_gene (LGEIKLPL_02223)
hypothetical protein" points="376,40 393,10 393,70" fill="rgb(255,255,255)" fill-opacity="1.0" stroke="rgb(0,0,0)" stroke-width="2"  />
		</g>
		<g>
			<title>opuD_3 (LGEIKLPL_02224)
Glycine betaine transporter OpuD</title>
			<polygon class="opuD_3 (LGEIKLPL_02224)
Glycine betaine transporter OpuD" points="452,25 430,25 430,10 400,40 430,70 430,55 452,55" fill="rgb(255,255,255)" fill-opacity="1.0" stroke="rgb(0,0,0)" stroke-width="2"  />
			<g>
				<title>BCCT (PF02028)
"BCCT, betaine/carnitine/choline family transporter"</title>
				<polygon class="PF02028" points="404,40 416,28 451,28 451,52 416,52" stroke-linejoin="round" width="48" height="24" fill="rgb(206,109,74)" stroke="rgb(164,87,59)" stroke-width="1" opacity="0.75" />
			</g>
		</g>
	</g>
</svg>
