<svg version="1.1" baseProfile="full" xmlns="http://www.w3.org/2000/svg" width="1897.7" height="80">
	<g>
		<line x1="10" y1="40.0" x2="1582.5333333333333" y2="40.0" style="stroke:rgb(70,70,70); stroke-width:3 "/>
		<g>
			<title>MNHGGPBM_00669_gene (MNHGGPBM_00669)
hypothetical protein</title>
			<polygon class="MNHGGPBM_00669_gene (MNHGGPBM_00669)
hypothetical protein" points="18,25 34,25 34,10 64,40 34,70 34,55 18,55" fill="rgb(255,255,255)" fill-opacity="1.0" stroke="rgb(0,0,0)" stroke-width="2"  />
		</g>
		<g>
			<title>maa_1 (MNHGGPBM_00670)
Maltose O-acetyltransferase</title>
			<polygon class="maa_1 (MNHGGPBM_00670)
Maltose O-acetyltransferase" points="64,10 82,40 64,70" fill="rgb(255,255,255)" fill-opacity="1.0" stroke="rgb(0,0,0)" stroke-width="2"  />
			<g>
				<title>Hexapep (PF00132)
"Bacterial transferase hexapeptide (six repeats)"</title>
				<polygon class="PF00132" points="77,37 79,40 77,43" stroke-linejoin="round" width="3" height="24" fill="rgb(89,131,202)" stroke="rgb(71,104,161)" stroke-width="1" opacity="0.75" />
			</g>
		</g>
		<g>
			<title>MNHGGPBM_00671_gene (MNHGGPBM_00671)
hypothetical protein</title>
			<polygon class="MNHGGPBM_00671_gene (MNHGGPBM_00671)
hypothetical protein" points="83,25 93,25 93,10 123,40 93,70 93,55 83,55" fill="rgb(255,255,255)" fill-opacity="1.0" stroke="rgb(0,0,0)" stroke-width="2"  />
			<g>
				<title>Polysacc_synt_3 (PF13440)
"Polysaccharide biosynthesis protein"</title>
				<polygon class="PF13440" points="86,28 107,28 115,36 115,44 107,52 86,52" stroke-linejoin="round" width="29" height="24" fill="rgb(90,196,165)" stroke="rgb(72,156,132)" stroke-width="1" opacity="0.75" />
			</g>
		</g>
		<g>
			<title>MNHGGPBM_00672_gene (MNHGGPBM_00672)
hypothetical protein</title>
			<polygon class="MNHGGPBM_00672_gene (MNHGGPBM_00672)
hypothetical protein" points="125,25 135,25 135,10 165,40 135,70 135,55 125,55" fill="rgb(255,255,255)" fill-opacity="1.0" stroke="rgb(0,0,0)" stroke-width="2"  />
			<g>
				<title>Glycos_transf_1 (PF00534)
"Glycosyl transferases group 1"</title>
				<polygon class="PF00534" points="146,28 148,28 160,40 148,52 146,52" stroke-linejoin="round" width="17" height="24" fill="rgb(228,92,150)" stroke="rgb(182,73,119)" stroke-width="1" opacity="0.75" />
			</g>
		</g>
		<g>
			<title>epsL (MNHGGPBM_00673)
putative sugar transferase EpsL</title>
			<polygon class="epsL (MNHGGPBM_00673)
putative sugar transferase EpsL" points="166,10 184,40 166,70" fill="rgb(255,255,255)" fill-opacity="1.0" stroke="rgb(0,0,0)" stroke-width="2"  />
			<g>
				<title>Bac_transf (PF02397)
"Bacterial sugar transferase"</title>
				<polygon class="PF02397" points="166,28 173,28 181,40 173,52 166,52" stroke-linejoin="round" width="17" height="24" fill="rgb(57,165,209)" stroke="rgb(45,131,167)" stroke-width="1" opacity="0.75" />
			</g>
		</g>
		<g>
			<title>gnu (MNHGGPBM_00674)
N-acetyl-alpha-D-glucosaminyl-diphospho-ditrans,o ctacis-undecaprenol 4-epimerase</title>
			<polygon class="gnu (MNHGGPBM_00674)
N-acetyl-alpha-D-glucosaminyl-diphospho-ditrans,o ctacis-undecaprenol 4-epimerase" points="184,10 213,40 184,70" fill="rgb(255,255,255)" fill-opacity="1.0" stroke="rgb(0,0,0)" stroke-width="2"  />
			<g>
				<title>Epimerase (PF01370)
"NAD dependent epimerase/dehydratase family"</title>
				<polygon class="PF01370" points="184,28 197,28 203,34 203,46 197,52 184,52" stroke-linejoin="round" width="19" height="24" fill="rgb(98,102,214)" stroke="rgb(78,81,171)" stroke-width="1" opacity="0.75" />
			</g>
		</g>
		<g>
			<title>wecC (MNHGGPBM_00675)
UDP-N-acetyl-D-mannosamine dehydrogenase</title>
			<polygon class="wecC (MNHGGPBM_00675)
UDP-N-acetyl-D-mannosamine dehydrogenase" points="216,25 228,25 228,10 258,40 228,70 228,55 216,55" fill="rgb(255,255,255)" fill-opacity="1.0" stroke="rgb(0,0,0)" stroke-width="2"  />
			<g>
				<title>UDPG_MGDP_dh_N (PF03721)
"UDP-glucose/GDP-mannose dehydrogenase family, NAD binding domain"</title>
				<rect class="PF03721" x="216" y="28" stroke-linejoin="round" width="18" height="24" fill="rgb(156,194,58)" stroke="rgb(124,155,46)" stroke-width="1" opacity="0.75" />
			</g>
			<g>
				<title>UDPG_MGDP_dh (PF00984)
"UDP-glucose/GDP-mannose dehydrogenase family, central domain"</title>
				<polygon class="PF00984" points="235,28 241,28 243,30 243,50 241,52 235,52" stroke-linejoin="round" width="8" height="24" fill="rgb(69,189,184)" stroke="rgb(55,151,147)" stroke-width="1" opacity="0.75" />
			</g>
			<g>
				<title>UDPG_MGDP_dh_C (PF03720)
"UDP-glucose/GDP-mannose dehydrogenase family, UDP binding domain"</title>
				<polygon class="PF03720" points="246,33 253,40 246,47" stroke-linejoin="round" width="9" height="24" fill="rgb(221,130,74)" stroke="rgb(176,103,59)" stroke-width="1" opacity="0.75" />
			</g>
		</g>
		<g>
			<title>mnaA_1 (MNHGGPBM_00676)
UDP-N-acetylglucosamine 2-epimerase</title>
			<polygon class="mnaA_1 (MNHGGPBM_00676)
UDP-N-acetylglucosamine 2-epimerase" points="260,25 268,25 268,10 298,40 268,70 268,55 260,55" fill="rgb(255,255,255)" fill-opacity="1.0" stroke="rgb(0,0,0)" stroke-width="2"  />
			<g>
				<title>Epimerase_2 (PF02350)
"UDP-N-acetylglucosamine 2-epimerase"</title>
				<polygon class="PF02350" points="262,28 281,28 293,40 281,52 262,52" stroke-linejoin="round" width="34" height="24" fill="rgb(212,113,103)" stroke="rgb(169,90,82)" stroke-width="1" opacity="0.75" />
			</g>
		</g>
		<g>
			<title>isdI (MNHGGPBM_00677)
Heme oxygenase (staphylobilin-producing) 2</title>
			<polygon class="isdI (MNHGGPBM_00677)
Heme oxygenase (staphylobilin-producing) 2" points="301,40 311,10 311,70" fill="rgb(255,255,255)" fill-opacity="1.0" stroke="rgb(0,0,0)" stroke-width="2"  />
			<g>
				<title>ABM (PF03992)
"Antibiotic biosynthesis monooxygenase"</title>
				<polygon class="PF03992" points="304,40 308,28 311,28 311,52 308,52 304,40" stroke-linejoin="round" width="7" height="24" fill="rgb(193,84,127)" stroke="rgb(154,67,101)" stroke-width="1" opacity="0.75" />
			</g>
		</g>
		<g>
			<title>ybaN (MNHGGPBM_00678)
Inner membrane protein YbaN</title>
			<polygon class="ybaN (MNHGGPBM_00678)
Inner membrane protein YbaN" points="312,40 324,10 324,70" fill="rgb(255,255,255)" fill-opacity="1.0" stroke="rgb(0,0,0)" stroke-width="2"  />
			<g>
				<title>DUF454 (PF04304)
"Protein of unknown function (DUF454)"</title>
				<polygon class="PF04304" points="315,40 320,28 324,28 324,52 320,52" stroke-linejoin="round" width="11" height="24" fill="rgb(89,204,158)" stroke="rgb(71,163,126)" stroke-width="1" opacity="0.75" />
			</g>
		</g>
		<g>
			<title>aldA (MNHGGPBM_00679)
Putative aldehyde dehydrogenase AldA</title>
			<polygon class="aldA (MNHGGPBM_00679)
Putative aldehyde dehydrogenase AldA" points="339,25 358,25 358,10 388,40 358,70 358,55 339,55" fill="rgb(255,255,255)" fill-opacity="1.0" stroke="rgb(0,0,0)" stroke-width="2"  />
			<g>
				<title>Aldedh (PF00171)
"Aldehyde dehydrogenase family"</title>
				<polygon class="PF00171" points="341,28 372,28 384,40 372,52 341,52" stroke-linejoin="round" width="46" height="24" fill="rgb(105,213,139)" stroke="rgb(84,170,111)" stroke-width="1" opacity="0.75" />
			</g>
		</g>
		<g>
			<title>MNHGGPBM_00680_gene (MNHGGPBM_00680)
hypothetical protein</title>
			<polygon class="MNHGGPBM_00680_gene (MNHGGPBM_00680)
hypothetical protein" points="393,10 397,40 393,70" fill="rgb(255,255,255)" fill-opacity="1.0" stroke="rgb(0,0,0)" stroke-width="2"  />
		</g>
		<g>
			<title>czcD_1 (MNHGGPBM_00681)
Cadmium, cobalt and zinc/H(+)-K(+) antiporter</title>
			<polygon class="czcD_1 (MNHGGPBM_00681)
Cadmium, cobalt and zinc/H(+)-K(+) antiporter" points="410,25 412,25 412,10 442,40 412,70 412,55 410,55" fill="rgb(255,255,255)" fill-opacity="1.0" stroke="rgb(0,0,0)" stroke-width="2"  />
			<g>
				<title>Cation_efflux (PF01545)
"Cation efflux family"</title>
				<polygon class="PF01545" points="413,28 425,28 432,35 432,45 425,52 413,52" stroke-linejoin="round" width="19" height="24" fill="rgb(151,84,211)" stroke="rgb(120,67,168)" stroke-width="1" opacity="0.75" />
			</g>
		</g>
		<g>
			<title>MNHGGPBM_00682_gene (MNHGGPBM_00682)
hypothetical protein</title>
			<polygon class="MNHGGPBM_00682_gene (MNHGGPBM_00682)
hypothetical protein" points="444,40 450,10 450,70" fill="rgb(255,255,255)" fill-opacity="1.0" stroke="rgb(0,0,0)" stroke-width="2"  />
		</g>
		<g>
			<title>MNHGGPBM_00683_gene (MNHGGPBM_00683)
hypothetical protein</title>
			<polygon class="MNHGGPBM_00683_gene (MNHGGPBM_00683)
hypothetical protein" points="457,10 474,40 457,70" fill="rgb(255,255,255)" fill-opacity="1.0" stroke="rgb(0,0,0)" stroke-width="2"  />
			<g>
				<title>DUF4242 (PF14026)
"Protein of unknown function (DUF4242)"</title>
				<polygon class="PF14026" points="466,32 470,40 466,48" stroke-linejoin="round" width="7" height="24" fill="rgb(115,66,182)" stroke="rgb(92,52,145)" stroke-width="1" opacity="0.75" />
			</g>
		</g>
		<g>
			<title>cmpD (MNHGGPBM_00684)
Bicarbonate transport ATP-binding protein CmpD</title>
			<polygon class="cmpD (MNHGGPBM_00684)
Bicarbonate transport ATP-binding protein CmpD" points="485,10 509,40 485,70" fill="rgb(255,255,255)" fill-opacity="1.0" stroke="rgb(0,0,0)" stroke-width="2"  />
			<g>
				<title>ABC_tran (PF00005)
"ABC transporter"</title>
				<polygon class="PF00005" points="486,28 496,28 499,32 499,48 496,52 486,52" stroke-linejoin="round" width="13" height="24" fill="rgb(129,201,63)" stroke="rgb(103,160,50)" stroke-width="1" opacity="0.75" />
			</g>
		</g>
		<g>
			<title>cmpC (MNHGGPBM_00685)
Bicarbonate transport ATP-binding protein CmpC</title>
			<polygon class="cmpC (MNHGGPBM_00685)
Bicarbonate transport ATP-binding protein CmpC" points="510,25 512,25 512,10 542,40 512,70 512,55 510,55" fill="rgb(255,255,255)" fill-opacity="1.0" stroke="rgb(0,0,0)" stroke-width="2"  />
			<g>
				<title>NMT1_2 (PF13379)
"NMT1-like family"</title>
				<polygon class="PF13379" points="513,28 526,28 535,37 535,43 526,52 513,52" stroke-linejoin="round" width="22" height="24" fill="rgb(139,182,81)" stroke="rgb(111,145,64)" stroke-width="1" opacity="0.75" />
			</g>
		</g>
		<g>
			<title>ssuC (MNHGGPBM_00686)
Putative aliphatic sulfonates transport permease protein SsuC</title>
			<polygon class="ssuC (MNHGGPBM_00686)
Putative aliphatic sulfonates transport permease protein SsuC" points="543,10 568,40 543,70" fill="rgb(255,255,255)" fill-opacity="1.0" stroke="rgb(0,0,0)" stroke-width="2"  />
			<g>
				<title>BPD_transp_1 (PF00528)
"Binding-protein-dependent transport system inner membrane component"</title>
				<polygon class="PF00528" points="550,28 554,28 564,40 554,52 550,52" stroke-linejoin="round" width="17" height="24" fill="rgb(77,208,225)" stroke="rgb(61,166,180)" stroke-width="1" opacity="0.75" />
			</g>
		</g>
		<g>
			<title>MNHGGPBM_00687_gene (MNHGGPBM_00687)
hypothetical protein</title>
			<polygon class="MNHGGPBM_00687_gene (MNHGGPBM_00687)
hypothetical protein" points="568,25 572,25 572,10 602,40 572,70 572,55 568,55" fill="rgb(255,255,255)" fill-opacity="1.0" stroke="rgb(0,0,0)" stroke-width="2"  />
		</g>
		<g>
			<title>MNHGGPBM_00688_gene (MNHGGPBM_00688)
hypothetical protein</title>
			<polygon class="MNHGGPBM_00688_gene (MNHGGPBM_00688)
hypothetical protein" points="620,25 631,25 631,10 661,40 631,70 631,55 620,55" fill="rgb(255,255,255)" fill-opacity="1.0" stroke="rgb(0,0,0)" stroke-width="2"  />
			<g>
				<title>MFS_1 (PF07690)
"Major Facilitator Superfamily"</title>
				<polygon class="PF07690" points="621,28 645,28 657,40 657,40 645,52 621,52" stroke-linejoin="round" width="36" height="24" fill="rgb(193,224,74)" stroke="rgb(154,179,59)" stroke-width="1" opacity="0.75" />
			</g>
		</g>
		<g>
			<title>grsB (MNHGGPBM_00689)
Gramicidin S synthase 2</title>
			<polygon class="grsB (MNHGGPBM_00689)
Gramicidin S synthase 2" points="676,25 885,25 885,10 915,40 885,70 885,55 676,55" fill="rgb(255,255,255)" fill-opacity="1.0" stroke="rgb(0,0,0)" stroke-width="2"  />
			<g>
				<title>Condensation (PF00668)
"Condensation domain"</title>
				<rect class="PF00668" x="676" y="28" stroke-linejoin="round" width="16" height="24" fill="rgb(224,184,98)" stroke="rgb(179,147,78)" stroke-width="1" opacity="0.75" />
			</g>
			<g>
				<title>AMP-binding (PF00501)
"AMP-binding enzyme"</title>
				<rect class="PF00501" x="717" y="28" stroke-linejoin="round" width="38" height="24" fill="rgb(60,217,223)" stroke="rgb(48,173,178)" stroke-width="1" opacity="0.75" />
			</g>
			<g>
				<title>AMP-binding_C (PF13193)
"AMP-binding enzyme C-terminal domain"</title>
				<rect class="PF13193" x="757" y="28" stroke-linejoin="round" width="7" height="24" fill="rgb(182,50,118)" stroke="rgb(145,39,94)" stroke-width="1" opacity="0.75" />
			</g>
			<g>
				<title>PP-binding (PF00550)
"Phosphopantetheine attachment site"</title>
				<rect class="PF00550" x="767" y="28" stroke-linejoin="round" width="6" height="24" fill="rgb(103,191,88)" stroke="rgb(82,152,70)" stroke-width="1" opacity="0.75" />
			</g>
			<g>
				<title>Condensation (PF00668)
"Condensation domain"</title>
				<rect class="PF00668" x="775" y="28" stroke-linejoin="round" width="41" height="24" fill="rgb(224,184,98)" stroke="rgb(179,147,78)" stroke-width="1" opacity="0.75" />
			</g>
			<g>
				<title>AMP-binding (PF00501)
"AMP-binding enzyme"</title>
				<rect class="PF00501" x="820" y="28" stroke-linejoin="round" width="39" height="24" fill="rgb(60,217,223)" stroke="rgb(48,173,178)" stroke-width="1" opacity="0.75" />
			</g>
			<g>
				<title>AMP-binding_C (PF13193)
"AMP-binding enzyme C-terminal domain"</title>
				<rect class="PF13193" x="860" y="28" stroke-linejoin="round" width="7" height="24" fill="rgb(182,50,118)" stroke="rgb(145,39,94)" stroke-width="1" opacity="0.75" />
			</g>
			<g>
				<title>PP-binding (PF00550)
"Phosphopantetheine attachment site"</title>
				<rect class="PF00550" x="869" y="28" stroke-linejoin="round" width="6" height="24" fill="rgb(103,191,88)" stroke="rgb(82,152,70)" stroke-width="1" opacity="0.75" />
			</g>
			<g>
				<title>NAD_binding_4 (PF07993)
"Male sterility protein"</title>
				<polygon class="PF07993" points="880,28 898,28 903,33 903,47 898,52 880,52" stroke-linejoin="round" width="23" height="24" fill="rgb(100,212,204)" stroke="rgb(80,169,163)" stroke-width="1" opacity="0.75" />
			</g>
		</g>
		<g>
			<title>sfp_2 (MNHGGPBM_00690)
4'-phosphopantetheinyl transferase sfp</title>
			<polygon class="sfp_2 (MNHGGPBM_00690)
4'-phosphopantetheinyl transferase sfp" points="916,10 937,40 916,70" fill="rgb(255,255,255)" fill-opacity="1.0" stroke="rgb(0,0,0)" stroke-width="2"  />
			<g>
				<title>ACPS (PF01648)
"4'-phosphopantetheinyl transferase superfamily"</title>
				<polygon class="PF01648" points="926,30 933,40 926,50" stroke-linejoin="round" width="8" height="24" fill="rgb(85,184,135)" stroke="rgb(68,147,108)" stroke-width="1" opacity="0.75" />
			</g>
		</g>
		<g>
			<title>yagU (MNHGGPBM_00691)
Inner membrane protein YagU</title>
			<polygon class="yagU (MNHGGPBM_00691)
Inner membrane protein YagU" points="948,40 964,10 964,70" fill="rgb(255,255,255)" fill-opacity="1.0" stroke="rgb(0,0,0)" stroke-width="2"  />
			<g>
				<title>DUF1440 (PF07274)
"Protein of unknown function (DUF1440)"</title>
				<polygon class="PF07274" points="951,40 958,28 962,28 962,52 958,52" stroke-linejoin="round" width="13" height="24" fill="rgb(67,129,184)" stroke="rgb(53,103,147)" stroke-width="1" opacity="0.75" />
			</g>
		</g>
		<g>
			<title>argB (MNHGGPBM_00692)
Acetylglutamate kinase</title>
			<polygon class="argB (MNHGGPBM_00692)
Acetylglutamate kinase" points="973,40 998,10 998,70" fill="rgb(255,255,255)" fill-opacity="1.0" stroke="rgb(0,0,0)" stroke-width="2"  />
			<g>
				<title>AA_kinase (PF00696)
"Amino acid kinase family"</title>
				<polygon class="PF00696" points="977,40 987,28 997,28 997,52 987,52" stroke-linejoin="round" width="22" height="24" fill="rgb(148,78,224)" stroke="rgb(118,62,179)" stroke-width="1" opacity="0.75" />
			</g>
		</g>
		<g>
			<title>argJ (MNHGGPBM_00693)
Arginine biosynthesis bifunctional protein ArgJ</title>
			<polygon class="argJ (MNHGGPBM_00693)
Arginine biosynthesis bifunctional protein ArgJ" points="1040,25 1029,25 1029,10 999,40 1029,70 1029,55 1040,55" fill="rgb(255,255,255)" fill-opacity="1.0" stroke="rgb(0,0,0)" stroke-width="2"  />
			<g>
				<title>ArgJ (PF01960)
"ArgJ family"</title>
				<polygon class="PF01960" points="1003,40 1015,28 1037,28 1037,52 1015,52" stroke-linejoin="round" width="38" height="24" fill="rgb(81,120,181)" stroke="rgb(64,95,144)" stroke-width="1" opacity="0.75" />
			</g>
		</g>
		<g>
			<title>argC (MNHGGPBM_00694)
N-acetyl-gamma-glutamyl-phosphate reductase</title>
			<polygon class="argC (MNHGGPBM_00694)
N-acetyl-gamma-glutamyl-phosphate reductase" points="1075,25 1071,25 1071,10 1041,40 1071,70 1071,55 1075,55" fill="rgb(255,255,255)" fill-opacity="1.0" stroke="rgb(0,0,0)" stroke-width="2"  />
			<g>
				<title>Semialdhyde_dhC (PF02774)
"Semialdehyde dehydrogenase, dimerisation domain"</title>
				<polygon class="PF02774" points="1045,40 1057,28 1059,28 1059,52 1057,52" stroke-linejoin="round" width="15" height="24" fill="rgb(57,188,185)" stroke="rgb(45,150,147)" stroke-width="1" opacity="0.75" />
			</g>
			<g>
				<title>Semialdhyde_dh (PF01118)
"Semialdehyde dehydrogenase, NAD binding domain"</title>
				<rect class="PF01118" x="1061" y="28" stroke-linejoin="round" width="13" height="24" fill="rgb(191,106,221)" stroke="rgb(152,84,176)" stroke-width="1" opacity="0.75" />
			</g>
		</g>
		<g>
			<title>rocD2_1 (MNHGGPBM_00695)
Ornithine aminotransferase 2</title>
			<polygon class="rocD2_1 (MNHGGPBM_00695)
Ornithine aminotransferase 2" points="1115,25 1106,25 1106,10 1076,40 1106,70 1106,55 1115,55" fill="rgb(255,255,255)" fill-opacity="1.0" stroke="rgb(0,0,0)" stroke-width="2"  />
			<g>
				<title>Aminotran_3 (PF00202)
"Aminotransferase class-III"</title>
				<polygon class="PF00202" points="1080,40 1092,28 1114,28 1114,52 1092,52" stroke-linejoin="round" width="38" height="24" fill="rgb(49,163,189)" stroke="rgb(39,130,151)" stroke-width="1" opacity="0.75" />
			</g>
		</g>
		<g>
			<title>brnQ_1 (MNHGGPBM_00696)
Branched-chain amino acid transport system 2 carrier protein</title>
			<polygon class="brnQ_1 (MNHGGPBM_00696)
Branched-chain amino acid transport system 2 carrier protein" points="1169,25 1154,25 1154,10 1124,40 1154,70 1154,55 1169,55" fill="rgb(255,255,255)" fill-opacity="1.0" stroke="rgb(0,0,0)" stroke-width="2"  />
			<g>
				<title>Branch_AA_trans (PF05525)
"Branched-chain amino acid transport protein"</title>
				<polygon class="PF05525" points="1128,40 1140,28 1167,28 1167,52 1140,52" stroke-linejoin="round" width="43" height="24" fill="rgb(192,58,193)" stroke="rgb(153,46,154)" stroke-width="1" opacity="0.75" />
			</g>
		</g>
		<g>
			<title>yecD (MNHGGPBM_00697)
Isochorismatase family protein YecD</title>
			<polygon class="yecD (MNHGGPBM_00697)
Isochorismatase family protein YecD" points="1179,40 1197,10 1197,70" fill="rgb(255,255,255)" fill-opacity="1.0" stroke="rgb(0,0,0)" stroke-width="2"  />
			<g>
				<title>Isochorismatase (PF00857)
"Isochorismatase family"</title>
				<polygon class="PF00857" points="1183,40 1190,28 1196,28 1196,52 1190,52" stroke-linejoin="round" width="17" height="24" fill="rgb(144,224,70)" stroke="rgb(115,179,56)" stroke-width="1" opacity="0.75" />
			</g>
		</g>
		<g>
			<title>ipdC (MNHGGPBM_00698)
Indole-3-pyruvate decarboxylase</title>
			<polygon class="ipdC (MNHGGPBM_00698)
Indole-3-pyruvate decarboxylase" points="1254,25 1230,25 1230,10 1200,40 1230,70 1230,55 1254,55" fill="rgb(255,255,255)" fill-opacity="1.0" stroke="rgb(0,0,0)" stroke-width="2"  />
			<g>
				<title>TPP_enzyme_C (PF02775)
"Thiamine pyrophosphate enzyme, C-terminal TPP binding domain"</title>
				<polygon class="PF02775" points="1204,40 1216,28 1216,28 1216,52 1216,52" stroke-linejoin="round" width="14" height="24" fill="rgb(156,179,45)" stroke="rgb(124,143,36)" stroke-width="1" opacity="0.75" />
			</g>
			<g>
				<title>TPP_enzyme_M (PF00205)
"Thiamine pyrophosphate enzyme, central domain"</title>
				<rect class="PF00205" x="1222" y="28" stroke-linejoin="round" width="13" height="24" fill="rgb(149,194,69)" stroke="rgb(119,155,55)" stroke-width="1" opacity="0.75" />
			</g>
			<g>
				<title>TPP_enzyme_N (PF02776)
"Thiamine pyrophosphate enzyme, N-terminal TPP binding domain"</title>
				<rect class="PF02776" x="1236" y="28" stroke-linejoin="round" width="17" height="24" fill="rgb(55,81,185)" stroke="rgb(44,64,148)" stroke-width="1" opacity="0.75" />
			</g>
		</g>
		<g>
			<title>MNHGGPBM_00699_gene (MNHGGPBM_00699)
hypothetical protein</title>
			<polygon class="MNHGGPBM_00699_gene (MNHGGPBM_00699)
hypothetical protein" points="1259,10 1263,40 1259,70" fill="rgb(255,255,255)" fill-opacity="1.0" stroke="rgb(0,0,0)" stroke-width="2"  />
		</g>
		<g>
			<title>ptsG_1 (MNHGGPBM_00700)
PTS system glucose-specific EIICBA component</title>
			<polygon class="ptsG_1 (MNHGGPBM_00700)
PTS system glucose-specific EIICBA component" points="1331,25 1293,25 1293,10 1263,40 1293,70 1293,55 1331,55" fill="rgb(255,255,255)" fill-opacity="1.0" stroke="rgb(0,0,0)" stroke-width="2"  />
			<g>
				<title>PTS_EIIA_1 (PF00358)
"phosphoenolpyruvate-dependent sugar phosphotransferase system, EIIA 1"</title>
				<polygon class="PF00358" points="1267,40 1277,30 1277,50" stroke-linejoin="round" width="12" height="24" fill="rgb(125,49,194)" stroke="rgb(100,39,155)" stroke-width="1" opacity="0.75" />
			</g>
			<g>
				<title>PTS_EIIB (PF00367)
"phosphotransferase system, EIIB"</title>
				<rect class="PF00367" x="1285" y="28" stroke-linejoin="round" width="3" height="24" fill="rgb(188,77,92)" stroke="rgb(150,61,73)" stroke-width="1" opacity="0.75" />
			</g>
			<g>
				<title>PTS_EIIC (PF02378)
"Phosphotransferase system, EIIC"</title>
				<rect class="PF02378" x="1296" y="28" stroke-linejoin="round" width="33" height="24" fill="rgb(73,199,212)" stroke="rgb(58,159,169)" stroke-width="1" opacity="0.75" />
			</g>
		</g>
		<g>
			<title>MNHGGPBM_00701_gene (MNHGGPBM_00701)
hypothetical protein</title>
			<polygon class="MNHGGPBM_00701_gene (MNHGGPBM_00701)
hypothetical protein" points="1351,25 1356,25 1356,10 1386,40 1356,70 1356,55 1351,55" fill="rgb(255,255,255)" fill-opacity="1.0" stroke="rgb(0,0,0)" stroke-width="2"  />
			<g>
				<title>DUF871 (PF05913)
"Bacterial protein of unknown function (DUF871)"</title>
				<polygon class="PF05913" points="1351,28 1369,28 1381,40 1369,52 1351,52" stroke-linejoin="round" width="34" height="24" fill="rgb(145,216,105)" stroke="rgb(116,172,84)" stroke-width="1" opacity="0.75" />
			</g>
		</g>
		<g>
			<title>murQ (MNHGGPBM_00702)
N-acetylmuramic acid 6-phosphate etherase</title>
			<polygon class="murQ (MNHGGPBM_00702)
N-acetylmuramic acid 6-phosphate etherase" points="1386,10 1415,40 1386,70" fill="rgb(255,255,255)" fill-opacity="1.0" stroke="rgb(0,0,0)" stroke-width="2"  />
		</g>
		<g>
			<title>MNHGGPBM_00703_gene (MNHGGPBM_00703)
PTS system EIIBC component</title>
			<polygon class="MNHGGPBM_00703_gene (MNHGGPBM_00703)
PTS system EIIBC component" points="1417,25 1435,25 1435,10 1465,40 1435,70 1435,55 1417,55" fill="rgb(255,255,255)" fill-opacity="1.0" stroke="rgb(0,0,0)" stroke-width="2"  />
			<g>
				<title>PTS_EIIB (PF00367)
"phosphotransferase system, EIIB"</title>
				<rect class="PF00367" x="1417" y="28" stroke-linejoin="round" width="3" height="24" fill="rgb(188,77,92)" stroke="rgb(150,61,73)" stroke-width="1" opacity="0.75" />
			</g>
			<g>
				<title>PTS_EIIC (PF02378)
"Phosphotransferase system, EIIC"</title>
				<polygon class="PF02378" points="1430,28 1449,28 1458,37 1458,43 1449,52 1430,52" stroke-linejoin="round" width="28" height="24" fill="rgb(73,199,212)" stroke="rgb(58,159,169)" stroke-width="1" opacity="0.75" />
			</g>
		</g>
		<g>
			<title>ybbH_2 (MNHGGPBM_00704)
putative HTH-type transcriptional regulator YbbH</title>
			<polygon class="ybbH_2 (MNHGGPBM_00704)
putative HTH-type transcriptional regulator YbbH" points="1465,10 1494,40 1465,70" fill="rgb(255,255,255)" fill-opacity="1.0" stroke="rgb(0,0,0)" stroke-width="2"  />
			<g>
				<title>HTH_6 (PF01418)
"Helix-turn-helix domain, rpiR family"</title>
				<rect class="PF01418" x="1465" y="28" stroke-linejoin="round" width="7" height="24" fill="rgb(214,118,93)" stroke="rgb(171,94,74)" stroke-width="1" opacity="0.75" />
			</g>
			<g>
				<title>SIS (PF01380)
"SIS domain"</title>
				<polygon class="PF01380" points="1477,28 1478,28 1490,40 1490,40 1478,52 1477,52" stroke-linejoin="round" width="13" height="24" fill="rgb(212,106,227)" stroke="rgb(169,84,181)" stroke-width="1" opacity="0.75" />
			</g>
		</g>
		<g>
			<title>MNHGGPBM_00705_gene (MNHGGPBM_00705)
hypothetical protein</title>
			<polygon class="MNHGGPBM_00705_gene (MNHGGPBM_00705)
hypothetical protein" points="1501,40 1510,10 1510,70" fill="rgb(255,255,255)" fill-opacity="1.0" stroke="rgb(0,0,0)" stroke-width="2"  />
		</g>
	</g>
</svg>
