<svg version="1.1" baseProfile="full" xmlns="http://www.w3.org/2000/svg" width="568.4333333333333" height="80">
	<g>
		<line x1="10" y1="40.0" x2="384.1666666666667" y2="40.0" style="stroke:rgb(70,70,70); stroke-width:3 "/>
		<g>
			<title>albC (GFBPJCFC_01200)
Putative ABC transporter ATP-binding protein AlbC</title>
			<polygon class="albC (GFBPJCFC_01200)
Putative ABC transporter ATP-binding protein AlbC" points="31,40 54,10 54,70" fill="rgb(255,255,255)" fill-opacity="1.0" stroke="rgb(0,0,0)" stroke-width="2"  />
			<g>
				<title>ABC_tran (PF00005)
"ABC transporter"</title>
				<polygon class="PF00005" points="38,36 44,28 52,28 52,52 44,52 38,44" stroke-linejoin="round" width="14" height="24" fill="rgb(129,201,63)" stroke="rgb(103,160,50)" stroke-width="1" opacity="0.75" />
			</g>
		</g>
		<g>
			<title>GFBPJCFC_01201_gene (GFBPJCFC_01201)
hypothetical protein</title>
			<polygon class="GFBPJCFC_01201_gene (GFBPJCFC_01201)
hypothetical protein" points="54,40 59,10 59,70" fill="rgb(255,255,255)" fill-opacity="1.0" stroke="rgb(0,0,0)" stroke-width="2"  />
		</g>
		<g>
			<title>albA (GFBPJCFC_01202)
Antilisterial bacteriocin subtilosin biosynthesis protein AlbA</title>
			<polygon class="albA (GFBPJCFC_01202)
Antilisterial bacteriocin subtilosin biosynthesis protein AlbA" points="103,25 89,25 89,10 59,40 89,70 89,55 103,55" fill="rgb(255,255,255)" fill-opacity="1.0" stroke="rgb(0,0,0)" stroke-width="2"  />
			<g>
				<title>SPASM (PF13186)
"Iron-sulfur cluster-binding domain"</title>
				<polygon class="PF13186" points="63,40 69,34 69,46" stroke-linejoin="round" width="7" height="24" fill="rgb(183,66,65)" stroke="rgb(146,52,51)" stroke-width="1" opacity="0.75" />
			</g>
			<g>
				<title>Radical_SAM (PF04055)
"Radical SAM superfamily"</title>
				<polygon class="PF04055" points="75,28 75,28 90,28 90,52 75,52 75,52" stroke-linejoin="round" width="15" height="24" fill="rgb(149,56,222)" stroke="rgb(119,44,177)" stroke-width="1" opacity="0.75" />
			</g>
		</g>
		<g>
			<title>sboA (GFBPJCFC_01203)
Subtilosin-A</title>
			<polygon class="sboA (GFBPJCFC_01203)
Subtilosin-A" points="106,40 110,10 110,70" fill="rgb(255,255,255)" fill-opacity="1.0" stroke="rgb(0,0,0)" stroke-width="2"  />
			<g>
				<title>Subtilosin_A (PF11420)
"Bacteriocin subtilosin A"</title>
				<polygon class="PF11420" points="109,40 109,40 109,40" stroke-linejoin="round" width="3" height="24" fill="rgb(190,123,83)" stroke="rgb(152,98,66)" stroke-width="1" opacity="0.75" />
			</g>
		</g>
		<g>
			<title>kdpC (GFBPJCFC_01204)
Potassium-transporting ATPase KdpC subunit</title>
			<polygon class="kdpC (GFBPJCFC_01204)
Potassium-transporting ATPase KdpC subunit" points="115,40 133,10 133,70" fill="rgb(255,255,255)" fill-opacity="1.0" stroke="rgb(0,0,0)" stroke-width="2"  />
			<g>
				<title>KdpC (PF02669)
"K+-transporting ATPase, c chain"</title>
				<polygon class="PF02669" points="119,40 126,28 133,28 133,52 126,52" stroke-linejoin="round" width="18" height="24" fill="rgb(219,108,136)" stroke="rgb(175,86,108)" stroke-width="1" opacity="0.75" />
			</g>
		</g>
		<g>
			<title>kdpB (GFBPJCFC_01205)
Potassium-transporting ATPase ATP-binding subunit</title>
			<polygon class="kdpB (GFBPJCFC_01205)
Potassium-transporting ATPase ATP-binding subunit" points="202,25 165,25 165,10 135,40 165,70 165,55 202,55" fill="rgb(255,255,255)" fill-opacity="1.0" stroke="rgb(0,0,0)" stroke-width="2"  />
			<g>
				<title>Hydrolase (PF00702)
"haloacid dehalogenase-like hydrolase"</title>
				<polygon class="PF00702" points="150,29 151,28 172,28 172,52 151,52 150,51" stroke-linejoin="round" width="22" height="24" fill="rgb(68,220,102)" stroke="rgb(54,176,81)" stroke-width="1" opacity="0.75" />
			</g>
			<g>
				<title>E1-E2_ATPase (PF00122)
"E1-E2 ATPase"</title>
				<rect class="PF00122" x="174" y="28" stroke-linejoin="round" width="18" height="24" fill="rgb(149,204,70)" stroke="rgb(119,163,56)" stroke-width="1" opacity="0.75" />
			</g>
		</g>
		<g>
			<title>kdpA (GFBPJCFC_01206)
Potassium-transporting ATPase potassium-binding subunit</title>
			<polygon class="kdpA (GFBPJCFC_01206)
Potassium-transporting ATPase potassium-binding subunit" points="259,25 233,25 233,10 203,40 233,70 233,55 259,55" fill="rgb(255,255,255)" fill-opacity="1.0" stroke="rgb(0,0,0)" stroke-width="2"  />
			<g>
				<title>KdpA (PF03814)
"Potassium-transporting ATPase A subunit"</title>
				<polygon class="PF03814" points="207,40 219,28 258,28 258,52 219,52" stroke-linejoin="round" width="55" height="24" fill="rgb(220,180,109)" stroke="rgb(176,144,87)" stroke-width="1" opacity="0.75" />
			</g>
		</g>
		<g>
			<title>kdpD (GFBPJCFC_01207)
Sensor protein KdpD</title>
			<polygon class="kdpD (GFBPJCFC_01207)
Sensor protein KdpD" points="268,25 326,25 326,10 356,40 326,70 326,55 268,55" fill="rgb(255,255,255)" fill-opacity="1.0" stroke="rgb(0,0,0)" stroke-width="2"  />
			<g>
				<title>KdpD (PF02702)
"Osmosensitive K+ channel His kinase sensor domain"</title>
				<rect class="PF02702" x="268" y="28" stroke-linejoin="round" width="20" height="24" fill="rgb(180,144,84)" stroke="rgb(144,115,67)" stroke-width="1" opacity="0.75" />
			</g>
			<g>
				<title>DUF4118 (PF13493)
"Domain of unknown function (DUF4118)"</title>
				<rect class="PF13493" x="306" y="28" stroke-linejoin="round" width="11" height="24" fill="rgb(94,129,195)" stroke="rgb(75,103,156)" stroke-width="1" opacity="0.75" />
			</g>
			<g>
				<title>HisKA (PF00512)
"His Kinase A (phospho-acceptor) domain"</title>
				<rect class="PF00512" x="333" y="28" stroke-linejoin="round" width="6" height="24" fill="rgb(193,125,62)" stroke="rgb(154,100,49)" stroke-width="1" opacity="0.75" />
			</g>
			<g>
				<title>HATPase_c (PF02518)
"Histidine kinase-, DNA gyrase B-, and HSP90-like ATPase"</title>
				<polygon class="PF02518" points="344,32 352,40 344,48" stroke-linejoin="round" width="11" height="24" fill="rgb(80,94,225)" stroke="rgb(64,75,180)" stroke-width="1" opacity="0.75" />
			</g>
		</g>
		<g>
			<title>kdpE (GFBPJCFC_01208)
Transcriptional regulatory protein KdpE</title>
			<polygon class="kdpE (GFBPJCFC_01208)
Transcriptional regulatory protein KdpE" points="356,10 379,40 356,70" fill="rgb(255,255,255)" fill-opacity="1.0" stroke="rgb(0,0,0)" stroke-width="2"  />
			<g>
				<title>Response_reg (PF00072)
"Response regulator receiver domain"</title>
				<rect class="PF00072" x="356" y="28" stroke-linejoin="round" width="10" height="24" fill="rgb(100,107,203)" stroke="rgb(80,85,162)" stroke-width="1" opacity="0.75" />
			</g>
			<g>
				<title>Trans_reg_C (PF00486)
"Transcriptional regulatory protein, C terminal"</title>
				<polygon class="PF00486" points="370,33 375,40 370,47" stroke-linejoin="round" width="8" height="24" fill="rgb(204,153,57)" stroke="rgb(163,122,45)" stroke-width="1" opacity="0.75" />
			</g>
		</g>
	</g>
</svg>
