<svg version="1.1" baseProfile="full" xmlns="http://www.w3.org/2000/svg" width="568.4333333333333" height="80">
	<g>
		<line x1="10" y1="40.0" x2="558.4333333333333" y2="40.0" style="stroke:rgb(70,70,70); stroke-width:3 "/>
		<g>
			<title>bacF (IHDLCKJI_01996)
Transaminase BacF</title>
			<polygon class="bacF (IHDLCKJI_01996)
Transaminase BacF" points="27,25 35,25 35,10 65,40 35,70 35,55 27,55" fill="rgb(255,255,255)" fill-opacity="1.0" stroke="rgb(0,0,0)" stroke-width="2"  />
			<g>
				<title>Aminotran_1_2 (PF00155)
"Aminotransferase class I and II"</title>
				<polygon class="PF00155" points="29,28 49,28 61,40 49,52 29,52" stroke-linejoin="round" width="34" height="24" fill="rgb(89,113,198)" stroke="rgb(71,90,158)" stroke-width="1" opacity="0.75" />
			</g>
		</g>
		<g>
			<title>ldhD_2 (IHDLCKJI_01997)
D-lactate dehydrogenase</title>
			<polygon class="ldhD_2 (IHDLCKJI_01997)
D-lactate dehydrogenase" points="67,25 70,25 70,10 100,40 70,70 70,55 67,55" fill="rgb(255,255,255)" fill-opacity="1.0" stroke="rgb(0,0,0)" stroke-width="2"  />
			<g>
				<title>2-Hacid_dh_C (PF02826)
"D-isomer specific 2-hydroxyacid dehydrogenase, NAD binding domain"</title>
				<polygon class="PF02826" points="78,28 84,28 96,40 96,40 84,52 78,52" stroke-linejoin="round" width="18" height="24" fill="rgb(192,197,93)" stroke="rgb(153,157,74)" stroke-width="1" opacity="0.75" />
			</g>
		</g>
		<g>
			<title>copZ (IHDLCKJI_01998)
Copper chaperone CopZ</title>
			<polygon class="copZ (IHDLCKJI_01998)
Copper chaperone CopZ" points="102,40 108,10 108,70" fill="rgb(255,255,255)" fill-opacity="1.0" stroke="rgb(0,0,0)" stroke-width="2"  />
			<g>
				<title>HMA (PF00403)
"Heavy-metal-associated domain"</title>
				<polygon class="PF00403" points="105,40 108,28 108,28 108,52 108,52" stroke-linejoin="round" width="6" height="24" fill="rgb(91,198,182)" stroke="rgb(72,158,145)" stroke-width="1" opacity="0.75" />
			</g>
		</g>
		<g>
			<title>copA (IHDLCKJI_01999)
Copper-exporting P-type ATPase A</title>
			<polygon class="copA (IHDLCKJI_01999)
Copper-exporting P-type ATPase A" points="192,25 143,25 143,10 113,40 143,70 143,55 192,55" fill="rgb(255,255,255)" fill-opacity="1.0" stroke="rgb(0,0,0)" stroke-width="2"  />
			<g>
				<title>Hydrolase (PF00702)
"haloacid dehalogenase-like hydrolase"</title>
				<polygon class="PF00702" points="122,35 129,28 143,28 143,52 129,52 122,45" stroke-linejoin="round" width="21" height="24" fill="rgb(68,220,102)" stroke="rgb(54,176,81)" stroke-width="1" opacity="0.75" />
			</g>
			<g>
				<title>E1-E2_ATPase (PF00122)
"E1-E2 ATPase"</title>
				<rect class="PF00122" x="145" y="28" stroke-linejoin="round" width="18" height="24" fill="rgb(149,204,70)" stroke="rgb(119,163,56)" stroke-width="1" opacity="0.75" />
			</g>
			<g>
				<title>HMA (PF00403)
"Heavy-metal-associated domain"</title>
				<rect class="PF00403" x="179" y="28" stroke-linejoin="round" width="6" height="24" fill="rgb(91,198,182)" stroke="rgb(72,158,145)" stroke-width="1" opacity="0.75" />
			</g>
			<g>
				<title>HMA (PF00403)
"Heavy-metal-associated domain"</title>
				<rect class="PF00403" x="185" y="28" stroke-linejoin="round" width="6" height="24" fill="rgb(91,198,182)" stroke="rgb(72,158,145)" stroke-width="1" opacity="0.75" />
			</g>
		</g>
		<g>
			<title>IHDLCKJI_02000_gene (IHDLCKJI_02000)
hypothetical protein</title>
			<polygon class="IHDLCKJI_02000_gene (IHDLCKJI_02000)
hypothetical protein" points="200,40 206,10 206,70" fill="rgb(255,255,255)" fill-opacity="1.0" stroke="rgb(0,0,0)" stroke-width="2"  />
		</g>
		<g>
			<title>ydaD (IHDLCKJI_02001)
General stress protein 39</title>
			<polygon class="ydaD (IHDLCKJI_02001)
General stress protein 39" points="214,10 243,40 214,70" fill="rgb(255,255,255)" fill-opacity="1.0" stroke="rgb(0,0,0)" stroke-width="2"  />
			<g>
				<title>adh_short_C2 (PF13561)
"Enoyl-(Acyl carrier protein) reductase"</title>
				<polygon class="PF13561" points="218,28 226,28 238,40 226,52 218,52" stroke-linejoin="round" width="23" height="24" fill="rgb(73,205,127)" stroke="rgb(58,164,101)" stroke-width="1" opacity="0.75" />
			</g>
		</g>
		<g>
			<title>rocA (IHDLCKJI_02002)
1-pyrroline-5-carboxylate dehydrogenase</title>
			<polygon class="rocA (IHDLCKJI_02002)
1-pyrroline-5-carboxylate dehydrogenase" points="260,25 281,25 281,10 311,40 281,70 281,55 260,55" fill="rgb(255,255,255)" fill-opacity="1.0" stroke="rgb(0,0,0)" stroke-width="2"  />
			<g>
				<title>Aldedh (PF00171)
"Aldehyde dehydrogenase family"</title>
				<polygon class="PF00171" points="264,28 295,28 307,40 295,52 264,52" stroke-linejoin="round" width="46" height="24" fill="rgb(105,213,139)" stroke="rgb(84,170,111)" stroke-width="1" opacity="0.75" />
			</g>
		</g>
		<g>
			<title>IHDLCKJI_02003_gene (IHDLCKJI_02003)
hypothetical protein</title>
			<polygon class="IHDLCKJI_02003_gene (IHDLCKJI_02003)
hypothetical protein" points="321,10 328,40 321,70" fill="rgb(255,255,255)" fill-opacity="1.0" stroke="rgb(0,0,0)" stroke-width="2"  />
			<g>
				<title>FeoA (PF04023)
"FeoA domain"</title>
				<polygon class="PF04023" points="321,28 322,28 325,40 322,52 321,52" stroke-linejoin="round" width="7" height="24" fill="rgb(180,183,81)" stroke="rgb(144,146,64)" stroke-width="1" opacity="0.75" />
			</g>
		</g>
		<g>
			<title>feoB (IHDLCKJI_02004)
Fe(2+) transporter FeoB</title>
			<polygon class="feoB (IHDLCKJI_02004)
Fe(2+) transporter FeoB" points="329,25 365,25 365,10 395,40 365,70 365,55 329,55" fill="rgb(255,255,255)" fill-opacity="1.0" stroke="rgb(0,0,0)" stroke-width="2"  />
			<g>
				<title>FeoB_N (PF02421)
"Ferrous iron transport protein B"</title>
				<rect class="PF02421" x="329" y="28" stroke-linejoin="round" width="15" height="24" fill="rgb(82,207,209)" stroke="rgb(65,165,167)" stroke-width="1" opacity="0.75" />
			</g>
			<g>
				<title>FeoB_Cyto (PF17910)
"FeoB cytosolic helical domain"</title>
				<rect class="PF17910" x="346" y="28" stroke-linejoin="round" width="8" height="24" fill="rgb(85,92,198)" stroke="rgb(68,73,158)" stroke-width="1" opacity="0.75" />
			</g>
			<g>
				<title>Gate (PF07670)
"Nucleoside recognition"</title>
				<rect class="PF07670" x="363" y="28" stroke-linejoin="round" width="9" height="24" fill="rgb(124,94,191)" stroke="rgb(99,75,152)" stroke-width="1" opacity="0.75" />
			</g>
			<g>
				<title>FeoB_C (PF07664)
"Ferrous iron transport protein B C terminus"</title>
				<rect class="PF07664" x="374" y="28" stroke-linejoin="round" width="5" height="24" fill="rgb(186,56,114)" stroke="rgb(148,44,91)" stroke-width="1" opacity="0.75" />
			</g>
			<g>
				<title>Gate (PF07670)
"Nucleoside recognition"</title>
				<polygon class="PF07670" points="380,29 391,40 380,51" stroke-linejoin="round" width="12" height="24" fill="rgb(124,94,191)" stroke="rgb(99,75,152)" stroke-width="1" opacity="0.75" />
			</g>
		</g>
		<g>
			<title>IHDLCKJI_02005_gene (IHDLCKJI_02005)
hypothetical protein</title>
			<polygon class="IHDLCKJI_02005_gene (IHDLCKJI_02005)
hypothetical protein" points="395,10 401,40 395,70" fill="rgb(255,255,255)" fill-opacity="1.0" stroke="rgb(0,0,0)" stroke-width="2"  />
			<g>
				<title>FeoB_associated (PF12669)
"FeoB-associated Cys-rich membrane protein"</title>
				<polygon class="PF12669" points="395,28 395,28 398,40 395,52 395,52" stroke-linejoin="round" width="4" height="24" fill="rgb(111,78,186)" stroke="rgb(88,62,148)" stroke-width="1" opacity="0.75" />
			</g>
		</g>
		<g>
			<title>IHDLCKJI_02006_gene (IHDLCKJI_02006)
hypothetical protein</title>
			<polygon class="IHDLCKJI_02006_gene (IHDLCKJI_02006)
hypothetical protein" points="408,10 423,40 408,70" fill="rgb(255,255,255)" fill-opacity="1.0" stroke="rgb(0,0,0)" stroke-width="2"  />
		</g>
		<g>
			<title>ogt (IHDLCKJI_02007)
Methylated-DNA--protein-cysteine methyltransferase</title>
			<polygon class="ogt (IHDLCKJI_02007)
Methylated-DNA--protein-cysteine methyltransferase" points="433,10 450,40 433,70" fill="rgb(255,255,255)" fill-opacity="1.0" stroke="rgb(0,0,0)" stroke-width="2"  />
			<g>
				<title>DNA_binding_1 (PF01035)
"6-O-methylguanine DNA methyltransferase, DNA binding domain"</title>
				<polygon class="PF01035" points="440,29 446,40 440,51" stroke-linejoin="round" width="8" height="24" fill="rgb(79,155,220)" stroke="rgb(63,123,176)" stroke-width="1" opacity="0.75" />
			</g>
		</g>
		<g>
			<title>mvaS (IHDLCKJI_02008)
Hydroxymethylglutaryl-CoA synthase</title>
			<polygon class="mvaS (IHDLCKJI_02008)
Hydroxymethylglutaryl-CoA synthase" points="497,25 489,25 489,10 459,40 489,70 489,55 497,55" fill="rgb(255,255,255)" fill-opacity="1.0" stroke="rgb(0,0,0)" stroke-width="2"  />
			<g>
				<title>HMG_CoA_synt_C (PF08540)
"Hydroxymethylglutaryl-coenzyme A synthase C terminal"</title>
				<polygon class="PF08540" points="463,40 473,30 473,50" stroke-linejoin="round" width="14" height="24" fill="rgb(49,194,86)" stroke="rgb(39,155,68)" stroke-width="1" opacity="0.75" />
			</g>
			<g>
				<title>HMG_CoA_synt_N (PF01154)
"Hydroxymethylglutaryl-coenzyme A synthase N terminal"</title>
				<rect class="PF01154" x="481" y="28" stroke-linejoin="round" width="16" height="24" fill="rgb(88,216,218)" stroke="rgb(70,172,174)" stroke-width="1" opacity="0.75" />
			</g>
		</g>
		<g>
			<title>mvaA (IHDLCKJI_02009)
3-hydroxy-3-methylglutaryl-coenzyme A reductase</title>
			<polygon class="mvaA (IHDLCKJI_02009)
3-hydroxy-3-methylglutaryl-coenzyme A reductase" points="506,25 518,25 518,10 548,40 518,70 518,55 506,55" fill="rgb(255,255,255)" fill-opacity="1.0" stroke="rgb(0,0,0)" stroke-width="2"  />
			<g>
				<title>HMG-CoA_red (PF00368)
"Hydroxymethylglutaryl-coenzyme A reductase"</title>
				<polygon class="PF00368" points="507,28 532,28 544,40 544,40 532,52 507,52" stroke-linejoin="round" width="37" height="24" fill="rgb(67,203,137)" stroke="rgb(53,162,109)" stroke-width="1" opacity="0.75" />
			</g>
		</g>
	</g>
</svg>
