<svg version="1.1" baseProfile="full" xmlns="http://www.w3.org/2000/svg" width="780.7333333333333" height="80">
	<g>
		<line x1="10" y1="40.0" x2="770.7333333333333" y2="40.0" style="stroke:rgb(70,70,70); stroke-width:3 "/>
		<g>
			<title>MHLOJDLD_01227_gene (MHLOJDLD_01227)
hypothetical protein</title>
			<polygon class="MHLOJDLD_01227_gene (MHLOJDLD_01227)
hypothetical protein" points="12,10 27,40 12,70" fill="rgb(255,255,255)" fill-opacity="1.0" stroke="rgb(0,0,0)" stroke-width="2"  />
		</g>
		<g>
			<title>MHLOJDLD_01228_gene (MHLOJDLD_01228)
hypothetical protein</title>
			<polygon class="MHLOJDLD_01228_gene (MHLOJDLD_01228)
hypothetical protein" points="32,40 42,10 42,70" fill="rgb(255,255,255)" fill-opacity="1.0" stroke="rgb(0,0,0)" stroke-width="2"  />
			<g>
				<title>YrhK (PF14145)
"YrhK-like protein"</title>
				<polygon class="PF14145" points="35,40 39,28 39,28 39,52 39,52" stroke-linejoin="round" width="5" height="24" fill="rgb(102,190,225)" stroke="rgb(81,152,180)" stroke-width="1" opacity="0.75" />
			</g>
		</g>
		<g>
			<title>ogt (MHLOJDLD_01229)
Methylated-DNA--protein-cysteine methyltransferase</title>
			<polygon class="ogt (MHLOJDLD_01229)
Methylated-DNA--protein-cysteine methyltransferase" points="46,10 63,40 46,70" fill="rgb(255,255,255)" fill-opacity="1.0" stroke="rgb(0,0,0)" stroke-width="2"  />
			<g>
				<title>Methyltransf_1N (PF02870)
"6-O-methylguanine DNA methyltransferase, ribonuclease-like domain"</title>
				<rect class="PF02870" x="46" y="28" stroke-linejoin="round" width="6" height="24" fill="rgb(96,209,110)" stroke="rgb(76,167,88)" stroke-width="1" opacity="0.75" />
			</g>
			<g>
				<title>DNA_binding_1 (PF01035)
"6-O-methylguanine DNA methyltransferase, DNA binding domain"</title>
				<polygon class="PF01035" points="53,29 59,40 53,51" stroke-linejoin="round" width="8" height="24" fill="rgb(79,155,220)" stroke="rgb(63,123,176)" stroke-width="1" opacity="0.75" />
			</g>
		</g>
		<g>
			<title>mvaS (MHLOJDLD_01230)
Hydroxymethylglutaryl-CoA synthase</title>
			<polygon class="mvaS (MHLOJDLD_01230)
Hydroxymethylglutaryl-CoA synthase" points="103,25 95,25 95,10 65,40 95,70 95,55 103,55" fill="rgb(255,255,255)" fill-opacity="1.0" stroke="rgb(0,0,0)" stroke-width="2"  />
			<g>
				<title>HMG_CoA_synt_C (PF08540)
"Hydroxymethylglutaryl-coenzyme A synthase C terminal"</title>
				<polygon class="PF08540" points="69,40 78,31 78,49" stroke-linejoin="round" width="13" height="24" fill="rgb(49,194,86)" stroke="rgb(39,155,68)" stroke-width="1" opacity="0.75" />
			</g>
			<g>
				<title>HMG_CoA_synt_N (PF01154)
"Hydroxymethylglutaryl-coenzyme A synthase N terminal"</title>
				<rect class="PF01154" x="87" y="28" stroke-linejoin="round" width="16" height="24" fill="rgb(88,216,218)" stroke="rgb(70,172,174)" stroke-width="1" opacity="0.75" />
			</g>
		</g>
		<g>
			<title>mvaA (MHLOJDLD_01231)
3-hydroxy-3-methylglutaryl-coenzyme A reductase</title>
			<polygon class="mvaA (MHLOJDLD_01231)
3-hydroxy-3-methylglutaryl-coenzyme A reductase" points="112,25 124,25 124,10 154,40 124,70 124,55 112,55" fill="rgb(255,255,255)" fill-opacity="1.0" stroke="rgb(0,0,0)" stroke-width="2"  />
			<g>
				<title>HMG-CoA_red (PF00368)
"Hydroxymethylglutaryl-coenzyme A reductase"</title>
				<polygon class="PF00368" points="113,28 138,28 150,40 150,40 138,52 113,52" stroke-linejoin="round" width="37" height="24" fill="rgb(67,203,137)" stroke="rgb(53,162,109)" stroke-width="1" opacity="0.75" />
			</g>
		</g>
		<g>
			<title>ssaA_2 (MHLOJDLD_01232)
Staphylococcal secretory antigen SsaA</title>
			<polygon class="ssaA_2 (MHLOJDLD_01232)
Staphylococcal secretory antigen SsaA" points="157,40 171,10 171,70" fill="rgb(255,255,255)" fill-opacity="1.0" stroke="rgb(0,0,0)" stroke-width="2"  />
			<g>
				<title>CHAP (PF05257)
"CHAP domain"</title>
				<polygon class="PF05257" points="160,40 166,28 167,28 167,52 166,52" stroke-linejoin="round" width="8" height="24" fill="rgb(54,187,84)" stroke="rgb(43,149,67)" stroke-width="1" opacity="0.75" />
			</g>
		</g>
		<g>
			<title>MHLOJDLD_01233_gene (MHLOJDLD_01233)
hypothetical protein</title>
			<polygon class="MHLOJDLD_01233_gene (MHLOJDLD_01233)
hypothetical protein" points="180,40 187,10 187,70" fill="rgb(255,255,255)" fill-opacity="1.0" stroke="rgb(0,0,0)" stroke-width="2"  />
			<g>
				<title>YozE_SAM_like (PF06855)
"YozE SAM-like fold"</title>
				<polygon class="PF06855" points="183,40 186,28 186,28 186,52 186,52" stroke-linejoin="round" width="6" height="24" fill="rgb(83,201,171)" stroke="rgb(66,160,136)" stroke-width="1" opacity="0.75" />
			</g>
		</g>
		<g>
			<title>cynR_2 (MHLOJDLD_01234)
HTH-type transcriptional regulator CynR</title>
			<polygon class="cynR_2 (MHLOJDLD_01234)
HTH-type transcriptional regulator CynR" points="193,10 222,40 193,70" fill="rgb(255,255,255)" fill-opacity="1.0" stroke="rgb(0,0,0)" stroke-width="2"  />
			<g>
				<title>HTH_1 (PF00126)
"Bacterial regulatory helix-turn-helix protein, lysR family"</title>
				<rect class="PF00126" x="193" y="28" stroke-linejoin="round" width="5" height="24" fill="rgb(125,227,79)" stroke="rgb(99,181,63)" stroke-width="1" opacity="0.75" />
			</g>
			<g>
				<title>LysR_substrate (PF03466)
"LysR substrate binding domain"</title>
				<polygon class="PF03466" points="201,28 206,28 218,40 206,52 201,52" stroke-linejoin="round" width="20" height="24" fill="rgb(55,136,195)" stroke="rgb(44,108,156)" stroke-width="1" opacity="0.75" />
			</g>
		</g>
		<g>
			<title>cidA (MHLOJDLD_01235)
Holin-like protein CidA</title>
			<polygon class="cidA (MHLOJDLD_01235)
Holin-like protein CidA" points="233,10 246,40 233,70" fill="rgb(255,255,255)" fill-opacity="1.0" stroke="rgb(0,0,0)" stroke-width="2"  />
			<g>
				<title>LrgA (PF03788)
"LrgA family"</title>
				<polygon class="PF03788" points="235,28 237,28 242,40 237,52 235,52" stroke-linejoin="round" width="9" height="24" fill="rgb(51,191,185)" stroke="rgb(40,152,148)" stroke-width="1" opacity="0.75" />
			</g>
		</g>
		<g>
			<title>cidB (MHLOJDLD_01236)
Holin-like protein CidB</title>
			<polygon class="cidB (MHLOJDLD_01236)
Holin-like protein CidB" points="246,10 269,40 246,70" fill="rgb(255,255,255)" fill-opacity="1.0" stroke="rgb(0,0,0)" stroke-width="2"  />
			<g>
				<title>LrgB (PF04172)
"LrgB-like family"</title>
				<polygon class="PF04172" points="247,28 256,28 265,40 256,52 247,52" stroke-linejoin="round" width="21" height="24" fill="rgb(57,227,179)" stroke="rgb(45,181,143)" stroke-width="1" opacity="0.75" />
			</g>
		</g>
		<g>
			<title>ydaP (MHLOJDLD_01237)
Putative thiamine pyrophosphate-containing protein YdaP</title>
			<polygon class="ydaP (MHLOJDLD_01237)
Putative thiamine pyrophosphate-containing protein YdaP" points="271,25 299,25 299,10 329,40 299,70 299,55 271,55" fill="rgb(255,255,255)" fill-opacity="1.0" stroke="rgb(0,0,0)" stroke-width="2"  />
			<g>
				<title>TPP_enzyme_N (PF02776)
"Thiamine pyrophosphate enzyme, N-terminal TPP binding domain"</title>
				<rect class="PF02776" x="271" y="28" stroke-linejoin="round" width="17" height="24" fill="rgb(55,81,185)" stroke="rgb(44,64,148)" stroke-width="1" opacity="0.75" />
			</g>
			<g>
				<title>TPP_enzyme_M (PF00205)
"Thiamine pyrophosphate enzyme, central domain"</title>
				<rect class="PF00205" x="290" y="28" stroke-linejoin="round" width="12" height="24" fill="rgb(149,194,69)" stroke="rgb(119,155,55)" stroke-width="1" opacity="0.75" />
			</g>
			<g>
				<title>TPP_enzyme_C (PF02775)
"Thiamine pyrophosphate enzyme, C-terminal TPP binding domain"</title>
				<polygon class="PF02775" points="309,28 312,28 323,39 323,41 312,52 309,52" stroke-linejoin="round" width="14" height="24" fill="rgb(156,179,45)" stroke="rgb(124,143,36)" stroke-width="1" opacity="0.75" />
			</g>
		</g>
		<g>
			<title>glcB (MHLOJDLD_01238)
PTS system glucoside-specific EIICBA component</title>
			<polygon class="glcB (MHLOJDLD_01238)
PTS system glucoside-specific EIICBA component" points="337,25 375,25 375,10 405,40 375,70 375,55 337,55" fill="rgb(255,255,255)" fill-opacity="1.0" stroke="rgb(0,0,0)" stroke-width="2"  />
			<g>
				<title>PTS_EIIC (PF02378)
"Phosphotransferase system, EIIC"</title>
				<rect class="PF02378" x="338" y="28" stroke-linejoin="round" width="34" height="24" fill="rgb(73,199,212)" stroke="rgb(58,159,169)" stroke-width="1" opacity="0.75" />
			</g>
			<g>
				<title>PTS_EIIB (PF00367)
"phosphotransferase system, EIIB"</title>
				<rect class="PF00367" x="381" y="28" stroke-linejoin="round" width="3" height="24" fill="rgb(188,77,92)" stroke="rgb(150,61,73)" stroke-width="1" opacity="0.75" />
			</g>
			<g>
				<title>PTS_EIIA_1 (PF00358)
"phosphoenolpyruvate-dependent sugar phosphotransferase system, EIIA 1"</title>
				<polygon class="PF00358" points="391,30 401,40 391,50" stroke-linejoin="round" width="12" height="24" fill="rgb(125,49,194)" stroke="rgb(100,39,155)" stroke-width="1" opacity="0.75" />
			</g>
		</g>
		<g>
			<title>MHLOJDLD_01239_gene (MHLOJDLD_01239)
hypothetical protein</title>
			<polygon class="MHLOJDLD_01239_gene (MHLOJDLD_01239)
hypothetical protein" points="411,10 436,40 411,70" fill="rgb(255,255,255)" fill-opacity="1.0" stroke="rgb(0,0,0)" stroke-width="2"  />
			<g>
				<title>CPBP (PF02517)
"CPBP intramembrane metalloprotease"</title>
				<polygon class="PF02517" points="425,32 432,40 425,48" stroke-linejoin="round" width="9" height="24" fill="rgb(150,86,216)" stroke="rgb(120,68,172)" stroke-width="1" opacity="0.75" />
			</g>
		</g>
		<g>
			<title>adh (MHLOJDLD_01240)
Alcohol dehydrogenase</title>
			<polygon class="adh (MHLOJDLD_01240)
Alcohol dehydrogenase" points="475,25 470,25 470,10 440,40 470,70 470,55 475,55" fill="rgb(255,255,255)" fill-opacity="1.0" stroke="rgb(0,0,0)" stroke-width="2"  />
			<g>
				<title>ADH_zinc_N (PF00107)
"Zinc-binding dehydrogenase"</title>
				<polygon class="PF00107" points="444,40 456,28 456,28 456,52 456,52 444,40" stroke-linejoin="round" width="12" height="24" fill="rgb(81,108,215)" stroke="rgb(64,86,172)" stroke-width="1" opacity="0.75" />
			</g>
			<g>
				<title>ADH_N (PF08240)
"Alcohol dehydrogenase GroES-like domain"</title>
				<rect class="PF08240" x="461" y="28" stroke-linejoin="round" width="11" height="24" fill="rgb(211,65,138)" stroke="rgb(168,51,110)" stroke-width="1" opacity="0.75" />
			</g>
		</g>
		<g>
			<title>MHLOJDLD_01241_gene (MHLOJDLD_01241)
hypothetical protein</title>
			<polygon class="MHLOJDLD_01241_gene (MHLOJDLD_01241)
hypothetical protein" points="481,10 494,40 481,70" fill="rgb(255,255,255)" fill-opacity="1.0" stroke="rgb(0,0,0)" stroke-width="2"  />
			<g>
				<title>4HBT_2 (PF13279)
"Thioesterase-like superfamily"</title>
				<polygon class="PF13279" points="482,28 485,28 491,40 485,52 482,52" stroke-linejoin="round" width="11" height="24" fill="rgb(213,114,82)" stroke="rgb(170,91,65)" stroke-width="1" opacity="0.75" />
			</g>
		</g>
		<g>
			<title>MHLOJDLD_01242_gene (MHLOJDLD_01242)
hypothetical protein</title>
			<polygon class="MHLOJDLD_01242_gene (MHLOJDLD_01242)
hypothetical protein" points="497,10 508,40 497,70" fill="rgb(255,255,255)" fill-opacity="1.0" stroke="rgb(0,0,0)" stroke-width="2"  />
			<g>
				<title>Thioredoxin (PF00085)
"Thioredoxin"</title>
				<polygon class="PF00085" points="497,28 500,28 504,40 500,52 497,52" stroke-linejoin="round" width="9" height="24" fill="rgb(220,109,180)" stroke="rgb(176,87,144)" stroke-width="1" opacity="0.75" />
			</g>
		</g>
		<g>
			<title>MHLOJDLD_01243_gene (MHLOJDLD_01243)
hypothetical protein</title>
			<polygon class="MHLOJDLD_01243_gene (MHLOJDLD_01243)
hypothetical protein" points="513,10 541,40 513,70" fill="rgb(255,255,255)" fill-opacity="1.0" stroke="rgb(0,0,0)" stroke-width="2"  />
			<g>
				<title>YitT_membrane (PF02588)
"Uncharacterised 5xTM membrane BCR, YitT family COG1284"</title>
				<polygon class="PF02588" points="514,28 525,28 534,37 534,43 525,52 514,52" stroke-linejoin="round" width="20" height="24" fill="rgb(155,63,204)" stroke="rgb(123,50,163)" stroke-width="1" opacity="0.75" />
			</g>
			<g>
				<title>DUF2179 (PF10035)
"Uncharacterized protein conserved in bacteria (DUF2179)"</title>
				<polygon class="PF10035" points="535,38 537,40 535,42" stroke-linejoin="round" width="5" height="24" fill="rgb(197,111,90)" stroke="rgb(157,88,72)" stroke-width="1" opacity="0.75" />
			</g>
		</g>
		<g>
			<title>mlhB (MHLOJDLD_01244)
Monoterpene epsilon-lactone hydrolase</title>
			<polygon class="mlhB (MHLOJDLD_01244)
Monoterpene epsilon-lactone hydrolase" points="545,25 547,25 547,10 577,40 547,70 547,55 545,55" fill="rgb(255,255,255)" fill-opacity="1.0" stroke="rgb(0,0,0)" stroke-width="2"  />
			<g>
				<title>Abhydrolase_3 (PF07859)
"alpha/beta hydrolase fold"</title>
				<polygon class="PF07859" points="555,28 561,28 573,40 561,52 555,52" stroke-linejoin="round" width="20" height="24" fill="rgb(183,51,179)" stroke="rgb(146,40,143)" stroke-width="1" opacity="0.75" />
			</g>
		</g>
		<g>
			<title>yicL (MHLOJDLD_01245)
putative inner membrane transporter YicL</title>
			<polygon class="yicL (MHLOJDLD_01245)
putative inner membrane transporter YicL" points="610,25 610,25 610,10 580,40 610,70 610,55 610,55" fill="rgb(255,255,255)" fill-opacity="1.0" stroke="rgb(0,0,0)" stroke-width="2"  />
			<g>
				<title>EamA (PF00892)
"EamA-like transporter family"</title>
				<polygon class="PF00892" points="584,40 593,31 593,49" stroke-linejoin="round" width="13" height="24" fill="rgb(105,217,77)" stroke="rgb(84,173,61)" stroke-width="1" opacity="0.75" />
			</g>
			<g>
				<title>EamA (PF00892)
"EamA-like transporter family"</title>
				<polygon class="PF00892" points="595,29 596,28 609,28 609,52 596,52 595,51" stroke-linejoin="round" width="14" height="24" fill="rgb(105,217,77)" stroke="rgb(84,173,61)" stroke-width="1" opacity="0.75" />
			</g>
		</g>
		<g>
			<title>MHLOJDLD_01246_gene (MHLOJDLD_01246)
hypothetical protein</title>
			<polygon class="MHLOJDLD_01246_gene (MHLOJDLD_01246)
hypothetical protein" points="614,10 630,40 614,70" fill="rgb(255,255,255)" fill-opacity="1.0" stroke="rgb(0,0,0)" stroke-width="2"  />
			<g>
				<title>AraC_binding (PF02311)
"AraC-like ligand binding domain"</title>
				<polygon class="PF02311" points="616,28 620,28 624,35 624,45 620,52 616,52" stroke-linejoin="round" width="8" height="24" fill="rgb(81,203,213)" stroke="rgb(64,162,170)" stroke-width="1" opacity="0.75" />
			</g>
		</g>
		<g>
			<title>chbR (MHLOJDLD_01247)
HTH-type transcriptional regulator ChbR</title>
			<polygon class="chbR (MHLOJDLD_01247)
HTH-type transcriptional regulator ChbR" points="637,10 643,40 637,70" fill="rgb(255,255,255)" fill-opacity="1.0" stroke="rgb(0,0,0)" stroke-width="2"  />
			<g>
				<title>HTH_18 (PF12833)
"Helix-turn-helix domain"</title>
				<polygon class="PF12833" points="637,28 637,28 640,40 637,52 637,52" stroke-linejoin="round" width="5" height="24" fill="rgb(216,58,224)" stroke="rgb(172,46,179)" stroke-width="1" opacity="0.75" />
			</g>
		</g>
		<g>
			<title>MHLOJDLD_01248_gene (MHLOJDLD_01248)
hypothetical protein</title>
			<polygon class="MHLOJDLD_01248_gene (MHLOJDLD_01248)
hypothetical protein" points="644,40 654,10 654,70" fill="rgb(255,255,255)" fill-opacity="1.0" stroke="rgb(0,0,0)" stroke-width="2"  />
		</g>
		<g>
			<title>capB (MHLOJDLD_01249)
Capsule biosynthesis protein CapB</title>
			<polygon class="capB (MHLOJDLD_01249)
Capsule biosynthesis protein CapB" points="670,25 678,25 678,10 708,40 678,70 678,55 670,55" fill="rgb(255,255,255)" fill-opacity="1.0" stroke="rgb(0,0,0)" stroke-width="2"  />
			<g>
				<title>Mur_ligase_M (PF08245)
"Mur ligase middle domain"</title>
				<polygon class="PF08245" points="673,28 692,28 693,29 693,51 692,52 673,52" stroke-linejoin="round" width="20" height="24" fill="rgb(57,133,195)" stroke="rgb(45,106,156)" stroke-width="1" opacity="0.75" />
			</g>
		</g>
		<g>
			<title>capC (MHLOJDLD_01250)
Capsule biosynthesis protein CapC</title>
			<polygon class="capC (MHLOJDLD_01250)
Capsule biosynthesis protein CapC" points="709,10 724,40 709,70" fill="rgb(255,255,255)" fill-opacity="1.0" stroke="rgb(0,0,0)" stroke-width="2"  />
			<g>
				<title>Caps_synth_CapC (PF14102)
"Capsule biosynthesis CapC"</title>
				<polygon class="PF14102" points="710,28 714,28 720,40 714,52 710,52" stroke-linejoin="round" width="11" height="24" fill="rgb(56,185,111)" stroke="rgb(44,148,88)" stroke-width="1" opacity="0.75" />
			</g>
		</g>
		<g>
			<title>capA_1 (MHLOJDLD_01251)
Capsule biosynthesis protein CapA</title>
			<polygon class="capA_1 (MHLOJDLD_01251)
Capsule biosynthesis protein CapA" points="725,25 730,25 730,10 760,40 730,70 730,55 725,55" fill="rgb(255,255,255)" fill-opacity="1.0" stroke="rgb(0,0,0)" stroke-width="2"  />
			<g>
				<title>PGA_cap (PF09587)
"Bacterial capsule synthesis protein PGA_cap"</title>
				<polygon class="PF09587" points="731,28 744,28 753,37 753,43 744,52 731,52" stroke-linejoin="round" width="22" height="24" fill="rgb(179,65,131)" stroke="rgb(143,52,104)" stroke-width="1" opacity="0.75" />
			</g>
		</g>
		<g>
			<title>MHLOJDLD_01252_gene (MHLOJDLD_01252)
hypothetical protein</title>
			<polygon class="MHLOJDLD_01252_gene (MHLOJDLD_01252)
hypothetical protein" points="760,10 765,40 760,70" fill="rgb(255,255,255)" fill-opacity="1.0" stroke="rgb(0,0,0)" stroke-width="2"  />
		</g>
	</g>
</svg>
