<svg version="1.1" baseProfile="full" xmlns="http://www.w3.org/2000/svg" width="519.7666666666667" height="80">
	<g>
		<line x1="10" y1="40.0" x2="509.76666666666665" y2="40.0" style="stroke:rgb(70,70,70); stroke-width:3 "/>
		<g>
			<title>yfmJ (MJAGDIAD_00948)
Putative NADP-dependent oxidoreductase YfmJ</title>
			<polygon class="yfmJ (MJAGDIAD_00948)
Putative NADP-dependent oxidoreductase YfmJ" points="32,25 35,25 35,10 65,40 35,70 35,55 32,55" fill="rgb(255,255,255)" fill-opacity="1.0" stroke="rgb(0,0,0)" stroke-width="2"  />
			<g>
				<title>ADH_N_2 (PF16884)
"N-terminal domain of oxidoreductase"</title>
				<rect class="PF16884" x="32" y="28" stroke-linejoin="round" width="10" height="24" fill="rgb(185,119,52)" stroke="rgb(148,95,41)" stroke-width="1" opacity="0.75" />
			</g>
			<g>
				<title>ADH_zinc_N (PF00107)
"Zinc-binding dehydrogenase"</title>
				<polygon class="PF00107" points="47,28 49,28 60,39 60,41 49,52 47,52" stroke-linejoin="round" width="13" height="24" fill="rgb(81,108,215)" stroke="rgb(64,86,172)" stroke-width="1" opacity="0.75" />
			</g>
		</g>
		<g>
			<title>MJAGDIAD_00949_gene (MJAGDIAD_00949)
Zinc-type alcohol dehydrogenase-like protein</title>
			<polygon class="MJAGDIAD_00949_gene (MJAGDIAD_00949)
Zinc-type alcohol dehydrogenase-like protein" points="69,25 72,25 72,10 102,40 72,70 72,55 69,55" fill="rgb(255,255,255)" fill-opacity="1.0" stroke="rgb(0,0,0)" stroke-width="2"  />
			<g>
				<title>ADH_N (PF08240)
"Alcohol dehydrogenase GroES-like domain"</title>
				<rect class="PF08240" x="72" y="28" stroke-linejoin="round" width="7" height="24" fill="rgb(211,65,138)" stroke="rgb(168,51,110)" stroke-width="1" opacity="0.75" />
			</g>
			<g>
				<title>ADH_zinc_N_2 (PF13602)
"Zinc-binding dehydrogenase"</title>
				<polygon class="PF13602" points="88,30 98,40 88,50" stroke-linejoin="round" width="14" height="24" fill="rgb(101,131,226)" stroke="rgb(80,104,180)" stroke-width="1" opacity="0.75" />
			</g>
		</g>
		<g>
			<title>MJAGDIAD_00950_gene (MJAGDIAD_00950)
hypothetical protein</title>
			<polygon class="MJAGDIAD_00950_gene (MJAGDIAD_00950)
hypothetical protein" points="129,10 146,40 129,70" fill="rgb(255,255,255)" fill-opacity="1.0" stroke="rgb(0,0,0)" stroke-width="2"  />
		</g>
		<g>
			<title>MJAGDIAD_00951_gene (MJAGDIAD_00951)
hypothetical protein</title>
			<polygon class="MJAGDIAD_00951_gene (MJAGDIAD_00951)
hypothetical protein" points="147,10 155,40 147,70" fill="rgb(255,255,255)" fill-opacity="1.0" stroke="rgb(0,0,0)" stroke-width="2"  />
			<g>
				<title>DUF2273 (PF10031)
"Small integral membrane protein (DUF2273)"</title>
				<polygon class="PF10031" points="148,28 148,28 151,40 148,52 148,52" stroke-linejoin="round" width="4" height="24" fill="rgb(203,147,56)" stroke="rgb(162,117,44)" stroke-width="1" opacity="0.75" />
			</g>
		</g>
		<g>
			<title>MJAGDIAD_00952_gene (MJAGDIAD_00952)
Alkaline shock protein 23</title>
			<polygon class="MJAGDIAD_00952_gene (MJAGDIAD_00952)
Alkaline shock protein 23" points="157,10 173,40 157,70" fill="rgb(255,255,255)" fill-opacity="1.0" stroke="rgb(0,0,0)" stroke-width="2"  />
			<g>
				<title>Asp23 (PF03780)
"Asp23 family, cell envelope-related function"</title>
				<polygon class="PF03780" points="160,28 163,28 170,40 170,40 163,52 160,52" stroke-linejoin="round" width="10" height="24" fill="rgb(195,60,141)" stroke="rgb(156,48,112)" stroke-width="1" opacity="0.75" />
			</g>
		</g>
		<g>
			<title>iucC_1 (MJAGDIAD_00953)
Aerobactin synthase</title>
			<polygon class="iucC_1 (MJAGDIAD_00953)
Aerobactin synthase" points="241,25 206,25 206,10 176,40 206,70 206,55 241,55" fill="rgb(255,255,255)" fill-opacity="1.0" stroke="rgb(0,0,0)" stroke-width="2"  />
			<g>
				<title>FhuF (PF06276)
"Ferric iron reductase FhuF-like transporter"</title>
				<polygon class="PF06276" points="180,40 192,28 194,28 194,52 192,52" stroke-linejoin="round" width="17" height="24" fill="rgb(76,151,221)" stroke="rgb(60,120,176)" stroke-width="1" opacity="0.75" />
			</g>
			<g>
				<title>IucA_IucC (PF04183)
"IucA / IucC family"</title>
				<rect class="PF04183" x="197" y="28" stroke-linejoin="round" width="24" height="24" fill="rgb(221,104,121)" stroke="rgb(176,83,96)" stroke-width="1" opacity="0.75" />
			</g>
		</g>
		<g>
			<title>MJAGDIAD_00954_gene (MJAGDIAD_00954)
hypothetical protein</title>
			<polygon class="MJAGDIAD_00954_gene (MJAGDIAD_00954)
hypothetical protein" points="245,25 254,25 254,10 284,40 254,70 254,55 245,55" fill="rgb(255,255,255)" fill-opacity="1.0" stroke="rgb(0,0,0)" stroke-width="2"  />
			<g>
				<title>MFS_3 (PF05977)
"Transmembrane secretion effector"</title>
				<polygon class="PF05977" points="245,28 268,28 280,40 268,52 245,52" stroke-linejoin="round" width="39" height="24" fill="rgb(80,62,217)" stroke="rgb(64,49,173)" stroke-width="1" opacity="0.75" />
			</g>
		</g>
		<g>
			<title>iucC_2 (MJAGDIAD_00955)
Aerobactin synthase</title>
			<polygon class="iucC_2 (MJAGDIAD_00955)
Aerobactin synthase" points="284,25 312,25 312,10 342,40 312,70 312,55 284,55" fill="rgb(255,255,255)" fill-opacity="1.0" stroke="rgb(0,0,0)" stroke-width="2"  />
			<g>
				<title>IucA_IucC (PF04183)
"IucA / IucC family"</title>
				<rect class="PF04183" x="299" y="28" stroke-linejoin="round" width="22" height="24" fill="rgb(221,104,121)" stroke="rgb(176,83,96)" stroke-width="1" opacity="0.75" />
			</g>
			<g>
				<title>FhuF (PF06276)
"Ferric iron reductase FhuF-like transporter"</title>
				<polygon class="PF06276" points="325,28 326,28 338,40 326,52 325,52" stroke-linejoin="round" width="16" height="24" fill="rgb(76,151,221)" stroke="rgb(60,120,176)" stroke-width="1" opacity="0.75" />
			</g>
		</g>
		<g>
			<title>orr (MJAGDIAD_00956)
Ornithine racemase</title>
			<polygon class="orr (MJAGDIAD_00956)
Ornithine racemase" points="343,25 348,25 348,10 378,40 348,70 348,55 343,55" fill="rgb(255,255,255)" fill-opacity="1.0" stroke="rgb(0,0,0)" stroke-width="2"  />
			<g>
				<title>Ala_racemase_N (PF01168)
"Alanine racemase, N-terminal domain"</title>
				<polygon class="PF01168" points="343,28 362,28 364,30 364,50 362,52 343,52" stroke-linejoin="round" width="21" height="24" fill="rgb(87,82,180)" stroke="rgb(69,65,144)" stroke-width="1" opacity="0.75" />
			</g>
		</g>
		<g>
			<title>yfmC (MJAGDIAD_00957)
Fe(3+)-citrate-binding protein YfmC</title>
			<polygon class="yfmC (MJAGDIAD_00957)
Fe(3+)-citrate-binding protein YfmC" points="385,25 388,25 388,10 418,40 388,70 388,55 385,55" fill="rgb(255,255,255)" fill-opacity="1.0" stroke="rgb(0,0,0)" stroke-width="2"  />
			<g>
				<title>Peripla_BP_2 (PF01497)
"Periplasmic binding protein"</title>
				<polygon class="PF01497" points="390,28 401,28 413,40 401,52 390,52" stroke-linejoin="round" width="24" height="24" fill="rgb(183,226,104)" stroke="rgb(146,180,83)" stroke-width="1" opacity="0.75" />
			</g>
		</g>
		<g>
			<title>yfiZ (MJAGDIAD_00958)
putative siderophore transport system permease protein YfiZ</title>
			<polygon class="yfiZ (MJAGDIAD_00958)
putative siderophore transport system permease protein YfiZ" points="418,25 422,25 422,10 452,40 422,70 422,55 418,55" fill="rgb(255,255,255)" fill-opacity="1.0" stroke="rgb(0,0,0)" stroke-width="2"  />
			<g>
				<title>FecCD (PF01032)
"FecCD transport family"</title>
				<polygon class="PF01032" points="421,28 436,28 448,40 436,52 421,52" stroke-linejoin="round" width="30" height="24" fill="rgb(210,177,70)" stroke="rgb(168,141,56)" stroke-width="1" opacity="0.75" />
			</g>
		</g>
		<g>
			<title>fecD_1 (MJAGDIAD_00959)
Fe(3+) dicitrate transport system permease protein FecD</title>
			<polygon class="fecD_1 (MJAGDIAD_00959)
Fe(3+) dicitrate transport system permease protein FecD" points="453,25 455,25 455,10 485,40 455,70 455,55 453,55" fill="rgb(255,255,255)" fill-opacity="1.0" stroke="rgb(0,0,0)" stroke-width="2"  />
			<g>
				<title>FecCD (PF01032)
"FecCD transport family"</title>
				<polygon class="PF01032" points="454,28 468,28 480,40 468,52 454,52" stroke-linejoin="round" width="30" height="24" fill="rgb(210,177,70)" stroke="rgb(168,141,56)" stroke-width="1" opacity="0.75" />
			</g>
		</g>
	</g>
</svg>
