<svg version="1.1" baseProfile="full" xmlns="http://www.w3.org/2000/svg" width="1726.7" height="80">
	<g>
		<line x1="10" y1="40.0" x2="510.53333333333336" y2="40.0" style="stroke:rgb(70,70,70); stroke-width:3 "/>
		<g>
			<title>NECOBKJD_02216_gene (NECOBKJD_02216)
Zinc-type alcohol dehydrogenase-like protein</title>
			<polygon class="NECOBKJD_02216_gene (NECOBKJD_02216)
Zinc-type alcohol dehydrogenase-like protein" points="24,25 27,25 27,10 57,40 27,70 27,55 24,55" fill="rgb(255,255,255)" fill-opacity="1.0" stroke="rgb(0,0,0)" stroke-width="2"  />
			<g>
				<title>ADH_N (PF08240)
"Alcohol dehydrogenase GroES-like domain"</title>
				<rect class="PF08240" x="27" y="28" stroke-linejoin="round" width="8" height="24" fill="rgb(211,65,138)" stroke="rgb(168,51,110)" stroke-width="1" opacity="0.75" />
			</g>
			<g>
				<title>ADH_zinc_N (PF00107)
"Zinc-binding dehydrogenase"</title>
				<polygon class="PF00107" points="40,28 41,28 52,39 52,41 41,52 40,52" stroke-linejoin="round" width="12" height="24" fill="rgb(81,108,215)" stroke="rgb(64,86,172)" stroke-width="1" opacity="0.75" />
			</g>
		</g>
		<g>
			<title>opuD_2 (NECOBKJD_02217)
Glycine betaine transporter OpuD</title>
			<polygon class="opuD_2 (NECOBKJD_02217)
Glycine betaine transporter OpuD" points="68,25 90,25 90,10 120,40 90,70 90,55 68,55" fill="rgb(255,255,255)" fill-opacity="1.0" stroke="rgb(0,0,0)" stroke-width="2"  />
			<g>
				<title>BCCT (PF02028)
"BCCT, betaine/carnitine/choline family transporter"</title>
				<polygon class="PF02028" points="68,28 103,28 115,40 103,52 68,52" stroke-linejoin="round" width="48" height="24" fill="rgb(206,109,74)" stroke="rgb(164,87,59)" stroke-width="1" opacity="0.75" />
			</g>
		</g>
		<g>
			<title>NECOBKJD_02218_gene (NECOBKJD_02218)
hypothetical protein</title>
			<polygon class="NECOBKJD_02218_gene (NECOBKJD_02218)
hypothetical protein" points="125,10 142,40 125,70" fill="rgb(255,255,255)" fill-opacity="1.0" stroke="rgb(0,0,0)" stroke-width="2"  />
		</g>
		<g>
			<title>NECOBKJD_02219_gene (NECOBKJD_02219)
hypothetical protein</title>
			<polygon class="NECOBKJD_02219_gene (NECOBKJD_02219)
hypothetical protein" points="144,10 152,40 144,70" fill="rgb(255,255,255)" fill-opacity="1.0" stroke="rgb(0,0,0)" stroke-width="2"  />
			<g>
				<title>DUF2273 (PF10031)
"Small integral membrane protein (DUF2273)"</title>
				<polygon class="PF10031" points="145,28 145,28 148,40 145,52 145,52" stroke-linejoin="round" width="4" height="24" fill="rgb(203,147,56)" stroke="rgb(162,117,44)" stroke-width="1" opacity="0.75" />
			</g>
		</g>
		<g>
			<title>NECOBKJD_02220_gene (NECOBKJD_02220)
Alkaline shock protein 23</title>
			<polygon class="NECOBKJD_02220_gene (NECOBKJD_02220)
Alkaline shock protein 23" points="154,10 171,40 154,70" fill="rgb(255,255,255)" fill-opacity="1.0" stroke="rgb(0,0,0)" stroke-width="2"  />
			<g>
				<title>Asp23 (PF03780)
"Asp23 family, cell envelope-related function"</title>
				<polygon class="PF03780" points="157,28 160,28 167,40 167,40 160,52 157,52" stroke-linejoin="round" width="10" height="24" fill="rgb(195,60,141)" stroke="rgb(156,48,112)" stroke-width="1" opacity="0.75" />
			</g>
		</g>
		<g>
			<title>iucC_3 (NECOBKJD_02221)
Aerobactin synthase</title>
			<polygon class="iucC_3 (NECOBKJD_02221)
Aerobactin synthase" points="241,25 206,25 206,10 176,40 206,70 206,55 241,55" fill="rgb(255,255,255)" fill-opacity="1.0" stroke="rgb(0,0,0)" stroke-width="2"  />
			<g>
				<title>FhuF (PF06276)
"Ferric iron reductase FhuF-like transporter"</title>
				<polygon class="PF06276" points="180,40 192,28 194,28 194,52 192,52" stroke-linejoin="round" width="17" height="24" fill="rgb(76,151,221)" stroke="rgb(60,120,176)" stroke-width="1" opacity="0.75" />
			</g>
			<g>
				<title>IucA_IucC (PF04183)
"IucA / IucC family"</title>
				<rect class="PF04183" x="198" y="28" stroke-linejoin="round" width="24" height="24" fill="rgb(221,104,121)" stroke="rgb(176,83,96)" stroke-width="1" opacity="0.75" />
			</g>
		</g>
		<g>
			<title>NECOBKJD_02222_gene (NECOBKJD_02222)
hypothetical protein</title>
			<polygon class="NECOBKJD_02222_gene (NECOBKJD_02222)
hypothetical protein" points="245,25 254,25 254,10 284,40 254,70 254,55 245,55" fill="rgb(255,255,255)" fill-opacity="1.0" stroke="rgb(0,0,0)" stroke-width="2"  />
			<g>
				<title>MFS_3 (PF05977)
"Transmembrane secretion effector"</title>
				<polygon class="PF05977" points="245,28 268,28 280,40 268,52 245,52" stroke-linejoin="round" width="39" height="24" fill="rgb(80,62,217)" stroke="rgb(64,49,173)" stroke-width="1" opacity="0.75" />
			</g>
		</g>
		<g>
			<title>iucC_4 (NECOBKJD_02223)
Aerobactin synthase</title>
			<polygon class="iucC_4 (NECOBKJD_02223)
Aerobactin synthase" points="285,25 313,25 313,10 343,40 313,70 313,55 285,55" fill="rgb(255,255,255)" fill-opacity="1.0" stroke="rgb(0,0,0)" stroke-width="2"  />
			<g>
				<title>IucA_IucC (PF04183)
"IucA / IucC family"</title>
				<rect class="PF04183" x="300" y="28" stroke-linejoin="round" width="22" height="24" fill="rgb(221,104,121)" stroke="rgb(176,83,96)" stroke-width="1" opacity="0.75" />
			</g>
			<g>
				<title>FhuF (PF06276)
"Ferric iron reductase FhuF-like transporter"</title>
				<polygon class="PF06276" points="326,28 327,28 339,40 327,52 326,52" stroke-linejoin="round" width="16" height="24" fill="rgb(76,151,221)" stroke="rgb(60,120,176)" stroke-width="1" opacity="0.75" />
			</g>
		</g>
		<g>
			<title>orr (NECOBKJD_02224)
Ornithine racemase</title>
			<polygon class="orr (NECOBKJD_02224)
Ornithine racemase" points="344,25 349,25 349,10 379,40 349,70 349,55 344,55" fill="rgb(255,255,255)" fill-opacity="1.0" stroke="rgb(0,0,0)" stroke-width="2"  />
			<g>
				<title>Ala_racemase_N (PF01168)
"Alanine racemase, N-terminal domain"</title>
				<polygon class="PF01168" points="344,28 363,28 365,30 365,50 363,52 344,52" stroke-linejoin="round" width="21" height="24" fill="rgb(87,82,180)" stroke="rgb(69,65,144)" stroke-width="1" opacity="0.75" />
			</g>
		</g>
		<g>
			<title>yfmC_2 (NECOBKJD_02225)
Fe(3+)-citrate-binding protein YfmC</title>
			<polygon class="yfmC_2 (NECOBKJD_02225)
Fe(3+)-citrate-binding protein YfmC" points="392,25 394,25 394,10 424,40 394,70 394,55 392,55" fill="rgb(255,255,255)" fill-opacity="1.0" stroke="rgb(0,0,0)" stroke-width="2"  />
			<g>
				<title>Peripla_BP_2 (PF01497)
"Periplasmic binding protein"</title>
				<polygon class="PF01497" points="397,28 408,28 420,40 408,52 397,52" stroke-linejoin="round" width="24" height="24" fill="rgb(183,226,104)" stroke="rgb(146,180,83)" stroke-width="1" opacity="0.75" />
			</g>
		</g>
		<g>
			<title>yfiZ_2 (NECOBKJD_02226)
putative siderophore transport system permease protein YfiZ</title>
			<polygon class="yfiZ_2 (NECOBKJD_02226)
putative siderophore transport system permease protein YfiZ" points="426,25 430,25 430,10 460,40 430,70 430,55 426,55" fill="rgb(255,255,255)" fill-opacity="1.0" stroke="rgb(0,0,0)" stroke-width="2"  />
			<g>
				<title>FecCD (PF01032)
"FecCD transport family"</title>
				<polygon class="PF01032" points="429,28 444,28 456,40 444,52 429,52" stroke-linejoin="round" width="30" height="24" fill="rgb(210,177,70)" stroke="rgb(168,141,56)" stroke-width="1" opacity="0.75" />
			</g>
		</g>
		<g>
			<title>fecD_2 (NECOBKJD_02227)
Fe(3+) dicitrate transport system permease protein FecD</title>
			<polygon class="fecD_2 (NECOBKJD_02227)
Fe(3+) dicitrate transport system permease protein FecD" points="460,25 462,25 462,10 492,40 462,70 462,55 460,55" fill="rgb(255,255,255)" fill-opacity="1.0" stroke="rgb(0,0,0)" stroke-width="2"  />
			<g>
				<title>FecCD (PF01032)
"FecCD transport family"</title>
				<polygon class="PF01032" points="461,28 476,28 488,40 476,52 461,52" stroke-linejoin="round" width="30" height="24" fill="rgb(210,177,70)" stroke="rgb(168,141,56)" stroke-width="1" opacity="0.75" />
			</g>
		</g>
	</g>
</svg>
