<svg version="1.1" baseProfile="full" xmlns="http://www.w3.org/2000/svg" width="2087.6" height="80">
	<g>
		<line x1="10" y1="40.0" x2="2077.6" y2="40.0" style="stroke:rgb(70,70,70); stroke-width:3 "/>
		<g>
			<title>mnhA1 (GCIAIJCE_02025)
Na(+)/H(+) antiporter subunit A1</title>
			<polygon class="mnhA1 (GCIAIJCE_02025)
Na(+)/H(+) antiporter subunit A1" points="21,25 71,25 71,10 101,40 71,70 71,55 21,55" fill="rgb(255,255,255)" fill-opacity="1.0" stroke="rgb(0,0,0)" stroke-width="2"  />
			<g>
				<title>Proton_antipo_N (PF00662)
"NADH-Ubiquinone oxidoreductase (complex I), chain 5 N-terminus"</title>
				<rect class="PF00662" x="27" y="28" stroke-linejoin="round" width="5" height="24" fill="rgb(120,87,218)" stroke="rgb(96,69,174)" stroke-width="1" opacity="0.75" />
			</g>
			<g>
				<title>Proton_antipo_M (PF00361)
"Proton-conducting membrane transporter"</title>
				<rect class="PF00361" x="33" y="28" stroke-linejoin="round" width="30" height="24" fill="rgb(54,193,132)" stroke="rgb(43,154,105)" stroke-width="1" opacity="0.75" />
			</g>
			<g>
				<title>DUF4040 (PF13244)
"Domain of unknown function (DUF4040)"</title>
				<polygon class="PF13244" points="84,28 85,28 90,33 90,47 85,52 84,52" stroke-linejoin="round" width="6" height="24" fill="rgb(225,104,219)" stroke="rgb(180,83,175)" stroke-width="1" opacity="0.75" />
			</g>
		</g>
		<g>
			<title>mnhB1 (GCIAIJCE_02026)
Na(+)/H(+) antiporter subunit B1</title>
			<polygon class="mnhB1 (GCIAIJCE_02026)
Na(+)/H(+) antiporter subunit B1" points="101,10 115,40 101,70" fill="rgb(255,255,255)" fill-opacity="1.0" stroke="rgb(0,0,0)" stroke-width="2"  />
			<g>
				<title>MnhB (PF04039)
"Domain related to MnhB subunit of Na+/H+ antiporter"</title>
				<polygon class="PF04039" points="101,28 106,28 111,40 106,52 101,52" stroke-linejoin="round" width="12" height="24" fill="rgb(153,222,110)" stroke="rgb(122,177,88)" stroke-width="1" opacity="0.75" />
			</g>
		</g>
		<g>
			<title>mnhC1_1 (GCIAIJCE_02027)
Na(+)/H(+) antiporter subunit C1</title>
			<polygon class="mnhC1_1 (GCIAIJCE_02027)
Na(+)/H(+) antiporter subunit C1" points="115,10 126,40 115,70" fill="rgb(255,255,255)" fill-opacity="1.0" stroke="rgb(0,0,0)" stroke-width="2"  />
			<g>
				<title>Oxidored_q2 (PF00420)
"NADH-ubiquinone/plastoquinone oxidoreductase chain 4L"</title>
				<polygon class="PF00420" points="115,28 118,28 123,40 118,52 115,52" stroke-linejoin="round" width="10" height="24" fill="rgb(73,55,194)" stroke="rgb(58,44,155)" stroke-width="1" opacity="0.75" />
			</g>
		</g>
		<g>
			<title>mnhD1 (GCIAIJCE_02028)
Na(+)/H(+) antiporter subunit D1</title>
			<polygon class="mnhD1 (GCIAIJCE_02028)
Na(+)/H(+) antiporter subunit D1" points="126,25 145,25 145,10 175,40 145,70 145,55 126,55" fill="rgb(255,255,255)" fill-opacity="1.0" stroke="rgb(0,0,0)" stroke-width="2"  />
			<g>
				<title>Proton_antipo_M (PF00361)
"Proton-conducting membrane transporter"</title>
				<polygon class="PF00361" points="138,28 159,28 167,36 167,44 159,52 138,52" stroke-linejoin="round" width="29" height="24" fill="rgb(54,193,132)" stroke="rgb(43,154,105)" stroke-width="1" opacity="0.75" />
			</g>
		</g>
		<g>
			<title>mnhE1 (GCIAIJCE_02029)
Na(+)/H(+) antiporter subunit E1</title>
			<polygon class="mnhE1 (GCIAIJCE_02029)
Na(+)/H(+) antiporter subunit E1" points="176,10 192,40 176,70" fill="rgb(255,255,255)" fill-opacity="1.0" stroke="rgb(0,0,0)" stroke-width="2"  />
			<g>
				<title>MNHE (PF01899)
"Na+/H+ ion antiporter subunit"</title>
				<polygon class="PF01899" points="176,28 182,28 188,40 182,52 176,52" stroke-linejoin="round" width="14" height="24" fill="rgb(77,64,195)" stroke="rgb(61,51,156)" stroke-width="1" opacity="0.75" />
			</g>
		</g>
		<g>
			<title>mnhF1 (GCIAIJCE_02030)
Na(+)/H(+) antiporter subunit F1</title>
			<polygon class="mnhF1 (GCIAIJCE_02030)
Na(+)/H(+) antiporter subunit F1" points="192,10 201,40 192,70" fill="rgb(255,255,255)" fill-opacity="1.0" stroke="rgb(0,0,0)" stroke-width="2"  />
			<g>
				<title>MrpF_PhaF (PF04066)
"Multiple resistance and pH regulation protein F (MrpF / PhaF)"</title>
				<polygon class="PF04066" points="195,30 198,40 195,50" stroke-linejoin="round" width="5" height="24" fill="rgb(98,190,89)" stroke="rgb(78,152,71)" stroke-width="1" opacity="0.75" />
			</g>
		</g>
		<g>
			<title>mnhG1 (GCIAIJCE_02031)
Na(+)/H(+) antiporter subunit G1</title>
			<polygon class="mnhG1 (GCIAIJCE_02031)
Na(+)/H(+) antiporter subunit G1" points="201,10 212,40 201,70" fill="rgb(255,255,255)" fill-opacity="1.0" stroke="rgb(0,0,0)" stroke-width="2"  />
			<g>
				<title>PhaG_MnhG_YufB (PF03334)
"Na+/H+ antiporter subunit"</title>
				<polygon class="PF03334" points="202,28 204,28 209,40 204,52 202,52" stroke-linejoin="round" width="8" height="24" fill="rgb(111,223,196)" stroke="rgb(88,178,156)" stroke-width="1" opacity="0.75" />
			</g>
		</g>
		<g>
			<title>GCIAIJCE_02032_gene (GCIAIJCE_02032)
hypothetical protein</title>
			<polygon class="GCIAIJCE_02032_gene (GCIAIJCE_02032)
hypothetical protein" points="217,25 226,25 226,10 256,40 226,70 226,55 217,55" fill="rgb(255,255,255)" fill-opacity="1.0" stroke="rgb(0,0,0)" stroke-width="2"  />
			<g>
				<title>K_oxygenase (PF13434)
"L-lysine 6-monooxygenase (NADPH-requiring)"</title>
				<polygon class="PF13434" points="217,28 239,28 247,36 247,44 239,52 217,52" stroke-linejoin="round" width="30" height="24" fill="rgb(81,213,119)" stroke="rgb(64,170,95)" stroke-width="1" opacity="0.75" />
			</g>
		</g>
		<g>
			<title>GCIAIJCE_02033_gene (GCIAIJCE_02033)
Putative esterase</title>
			<polygon class="GCIAIJCE_02033_gene (GCIAIJCE_02033)
Putative esterase" points="257,40 269,10 269,70" fill="rgb(255,255,255)" fill-opacity="1.0" stroke="rgb(0,0,0)" stroke-width="2"  />
			<g>
				<title>4HBT (PF03061)
"Thioesterase superfamily"</title>
				<polygon class="PF03061" points="260,40 265,28 265,28 265,52 265,52" stroke-linejoin="round" width="7" height="24" fill="rgb(143,103,215)" stroke="rgb(114,82,172)" stroke-width="1" opacity="0.75" />
			</g>
		</g>
		<g>
			<title>GCIAIJCE_02034_gene (GCIAIJCE_02034)
hypothetical protein</title>
			<polygon class="GCIAIJCE_02034_gene (GCIAIJCE_02034)
hypothetical protein" points="314,25 300,25 300,10 270,40 300,70 300,55 314,55" fill="rgb(255,255,255)" fill-opacity="1.0" stroke="rgb(0,0,0)" stroke-width="2"  />
			<g>
				<title>Na_H_antiporter (PF03553)
"Na+/H+ antiporter family"</title>
				<polygon class="PF03553" points="274,40 286,28 298,28 298,52 286,52" stroke-linejoin="round" width="28" height="24" fill="rgb(115,72,216)" stroke="rgb(91,57,172)" stroke-width="1" opacity="0.75" />
			</g>
			<g>
				<title>Na_H_antiport_2 (PF13726)
"Na+-H+ antiporter family"</title>
				<rect class="PF13726" x="305" y="28" stroke-linejoin="round" width="8" height="24" fill="rgb(136,93,202)" stroke="rgb(108,74,161)" stroke-width="1" opacity="0.75" />
			</g>
		</g>
		<g>
			<title>pepA_2 (GCIAIJCE_02035)
Cytosol aminopeptidase</title>
			<polygon class="pepA_2 (GCIAIJCE_02035)
Cytosol aminopeptidase" points="374,25 355,25 355,10 325,40 355,70 355,55 374,55" fill="rgb(255,255,255)" fill-opacity="1.0" stroke="rgb(0,0,0)" stroke-width="2"  />
			<g>
				<title>Peptidase_M17 (PF00883)
"Cytosol aminopeptidase family, catalytic domain"</title>
				<polygon class="PF00883" points="329,40 341,28 355,28 355,52 341,52" stroke-linejoin="round" width="30" height="24" fill="rgb(81,178,163)" stroke="rgb(64,142,130)" stroke-width="1" opacity="0.75" />
			</g>
			<g>
				<title>Peptidase_M17_N (PF02789)
"Cytosol aminopeptidase family, N-terminal domain"</title>
				<rect class="PF02789" x="359" y="28" stroke-linejoin="round" width="12" height="24" fill="rgb(216,155,96)" stroke="rgb(172,124,76)" stroke-width="1" opacity="0.75" />
			</g>
		</g>
		<g>
			<title>GCIAIJCE_02036_gene (GCIAIJCE_02036)
NADH dehydrogenase-like protein</title>
			<polygon class="GCIAIJCE_02036_gene (GCIAIJCE_02036)
NADH dehydrogenase-like protein" points="421,25 411,25 411,10 381,40 411,70 411,55 421,55" fill="rgb(255,255,255)" fill-opacity="1.0" stroke="rgb(0,0,0)" stroke-width="2"  />
			<g>
				<title>Pyr_redox_2 (PF07992)
"Pyridine nucleotide-disulphide oxidoreductase"</title>
				<polygon class="PF07992" points="388,37 397,28 420,28 420,52 397,52 388,43" stroke-linejoin="round" width="32" height="24" fill="rgb(83,223,167)" stroke="rgb(66,178,133)" stroke-width="1" opacity="0.75" />
			</g>
		</g>
		<g>
			<title>argC (GCIAIJCE_02037)
N-acetyl-gamma-glutamyl-phosphate reductase</title>
			<polygon class="argC (GCIAIJCE_02037)
N-acetyl-gamma-glutamyl-phosphate reductase" points="465,25 461,25 461,10 431,40 461,70 461,55 465,55" fill="rgb(255,255,255)" fill-opacity="1.0" stroke="rgb(0,0,0)" stroke-width="2"  />
			<g>
				<title>Sacchrp_dh_NADP (PF03435)
"Saccharopine dehydrogenase NADP binding domain"</title>
				<rect class="PF03435" x="453" y="28" stroke-linejoin="round" width="11" height="24" fill="rgb(90,186,91)" stroke="rgb(72,148,72)" stroke-width="1" opacity="0.75" />
			</g>
		</g>
		<g>
			<title>GCIAIJCE_02038_gene (GCIAIJCE_02038)
putative ABC transporter ATP-binding protein</title>
			<polygon class="GCIAIJCE_02038_gene (GCIAIJCE_02038)
putative ABC transporter ATP-binding protein" points="523,25 496,25 496,10 466,40 496,70 496,55 523,55" fill="rgb(255,255,255)" fill-opacity="1.0" stroke="rgb(0,0,0)" stroke-width="2"  />
			<g>
				<title>ABC_tran (PF00005)
"ABC transporter"</title>
				<polygon class="PF00005" points="473,37 482,28 487,28 487,52 482,52 473,43" stroke-linejoin="round" width="14" height="24" fill="rgb(129,201,63)" stroke="rgb(103,160,50)" stroke-width="1" opacity="0.75" />
			</g>
			<g>
				<title>ABC_membrane (PF00664)
"ABC transporter transmembrane region"</title>
				<rect class="PF00664" x="494" y="28" stroke-linejoin="round" width="27" height="24" fill="rgb(149,226,73)" stroke="rgb(119,180,58)" stroke-width="1" opacity="0.75" />
			</g>
		</g>
		<g>
			<title>irtA_2 (GCIAIJCE_02039)
Iron import ATP-binding/permease protein IrtA</title>
			<polygon class="irtA_2 (GCIAIJCE_02039)
Iron import ATP-binding/permease protein IrtA" points="582,25 554,25 554,10 524,40 554,70 554,55 582,55" fill="rgb(255,255,255)" fill-opacity="1.0" stroke="rgb(0,0,0)" stroke-width="2"  />
			<g>
				<title>ABC_tran (PF00005)
"ABC transporter"</title>
				<polygon class="PF00005" points="532,36 540,28 546,28 546,52 540,52 532,44" stroke-linejoin="round" width="14" height="24" fill="rgb(129,201,63)" stroke="rgb(103,160,50)" stroke-width="1" opacity="0.75" />
			</g>
			<g>
				<title>ABC_membrane (PF00664)
"ABC transporter transmembrane region"</title>
				<rect class="PF00664" x="553" y="28" stroke-linejoin="round" width="27" height="24" fill="rgb(149,226,73)" stroke="rgb(119,180,58)" stroke-width="1" opacity="0.75" />
			</g>
		</g>
		<g>
			<title>ykoD_3 (GCIAIJCE_02040)
Putative HMP/thiamine import ATP-binding protein YkoD</title>
			<polygon class="ykoD_3 (GCIAIJCE_02040)
Putative HMP/thiamine import ATP-binding protein YkoD" points="632,25 614,25 614,10 584,40 614,70 614,55 632,55" fill="rgb(255,255,255)" fill-opacity="1.0" stroke="rgb(0,0,0)" stroke-width="2"  />
			<g>
				<title>ABC_tran (PF00005)
"ABC transporter"</title>
				<polygon class="PF00005" points="591,37 600,28 604,28 604,52 600,52 591,43" stroke-linejoin="round" width="13" height="24" fill="rgb(129,201,63)" stroke="rgb(103,160,50)" stroke-width="1" opacity="0.75" />
			</g>
			<g>
				<title>ABC_tran (PF00005)
"ABC transporter"</title>
				<rect class="PF00005" x="615" y="28" stroke-linejoin="round" width="15" height="24" fill="rgb(129,201,63)" stroke="rgb(103,160,50)" stroke-width="1" opacity="0.75" />
			</g>
		</g>
		<g>
			<title>ecfT_3 (GCIAIJCE_02041)
Energy-coupling factor transporter transmembrane protein EcfT</title>
			<polygon class="ecfT_3 (GCIAIJCE_02041)
Energy-coupling factor transporter transmembrane protein EcfT" points="632,40 656,10 656,70" fill="rgb(255,255,255)" fill-opacity="1.0" stroke="rgb(0,0,0)" stroke-width="2"  />
			<g>
				<title>CbiQ (PF02361)
"Cobalt transport protein"</title>
				<polygon class="PF02361" points="636,40 646,28 655,28 655,52 646,52" stroke-linejoin="round" width="20" height="24" fill="rgb(217,92,216)" stroke="rgb(173,73,172)" stroke-width="1" opacity="0.75" />
			</g>
		</g>
		<g>
			<title>GCIAIJCE_02042_gene (GCIAIJCE_02042)
hypothetical protein</title>
			<polygon class="GCIAIJCE_02042_gene (GCIAIJCE_02042)
hypothetical protein" points="656,40 675,10 675,70" fill="rgb(255,255,255)" fill-opacity="1.0" stroke="rgb(0,0,0)" stroke-width="2"  />
			<g>
				<title>Trep_Strep (PF09605)
"Hypothetical bacterial integral membrane protein (Trep_Strep)"</title>
				<polygon class="PF09605" points="660,40 668,28 674,28 674,52 668,52" stroke-linejoin="round" width="18" height="24" fill="rgb(200,75,172)" stroke="rgb(160,60,137)" stroke-width="1" opacity="0.75" />
			</g>
		</g>
		<g>
			<title>mbtB (GCIAIJCE_02043)
Phenyloxazoline synthase MbtB</title>
			<polygon class="mbtB (GCIAIJCE_02043)
Phenyloxazoline synthase MbtB" points="767,25 706,25 706,10 676,40 706,70 706,55 767,55" fill="rgb(255,255,255)" fill-opacity="1.0" stroke="rgb(0,0,0)" stroke-width="2"  />
			<g>
				<title>Thioesterase (PF00975)
"Thioesterase domain"</title>
				<polygon class="PF00975" points="680,40 692,28 705,28 705,52 692,52" stroke-linejoin="round" width="29" height="24" fill="rgb(207,80,138)" stroke="rgb(165,63,110)" stroke-width="1" opacity="0.75" />
			</g>
			<g>
				<title>Condensation (PF00668)
"Condensation domain"</title>
				<rect class="PF00668" x="720" y="28" stroke-linejoin="round" width="41" height="24" fill="rgb(224,184,98)" stroke="rgb(179,147,78)" stroke-width="1" opacity="0.75" />
			</g>
			<g>
				<title>TubC_N (PF18563)
"TubC N-terminal docking domain"</title>
				<rect class="PF18563" x="762" y="28" stroke-linejoin="round" width="5" height="24" fill="rgb(95,217,77)" stroke="rgb(75,173,61)" stroke-width="1" opacity="0.75" />
			</g>
		</g>
		<g>
			<title>GCIAIJCE_02044_gene (GCIAIJCE_02044)
hypothetical protein</title>
			<polygon class="GCIAIJCE_02044_gene (GCIAIJCE_02044)
hypothetical protein" points="768,40 791,10 791,70" fill="rgb(255,255,255)" fill-opacity="1.0" stroke="rgb(0,0,0)" stroke-width="2"  />
			<g>
				<title>Glyoxalase_3 (PF13468)
"Glyoxalase-like domain"</title>
				<polygon class="PF13468" points="772,40 781,28 790,28 790,52 781,52 772,40" stroke-linejoin="round" width="18" height="24" fill="rgb(101,113,206)" stroke="rgb(80,90,164)" stroke-width="1" opacity="0.75" />
			</g>
		</g>
		<g>
			<title>pksM (GCIAIJCE_02045)
Polyketide synthase PksM</title>
			<polygon class="pksM (GCIAIJCE_02045)
Polyketide synthase PksM" points="861,25 821,25 821,10 791,40 821,70 821,55 861,55" fill="rgb(255,255,255)" fill-opacity="1.0" stroke="rgb(0,0,0)" stroke-width="2"  />
			<g>
				<title>Methyltransf_12 (PF08242)
"Methyltransferase domain"</title>
				<polygon class="PF08242" points="798,37 807,28 808,28 808,52 807,52 798,43" stroke-linejoin="round" width="10" height="24" fill="rgb(187,59,115)" stroke="rgb(149,47,92)" stroke-width="1" opacity="0.75" />
			</g>
			<g>
				<title>GFO_IDH_MocA (PF01408)
"Oxidoreductase family, NAD-binding Rossmann fold"</title>
				<rect class="PF01408" x="849" y="28" stroke-linejoin="round" width="11" height="24" fill="rgb(76,117,190)" stroke="rgb(60,93,152)" stroke-width="1" opacity="0.75" />
			</g>
		</g>
		<g>
			<title>angR_2 (GCIAIJCE_02046)
Anguibactin system regulator</title>
			<polygon class="angR_2 (GCIAIJCE_02046)
Anguibactin system regulator" points="1062,25 892,25 892,10 862,40 892,70 892,55 1062,55" fill="rgb(255,255,255)" fill-opacity="1.0" stroke="rgb(0,0,0)" stroke-width="2"  />
			<g>
				<title>PP-binding (PF00550)
"Phosphopantetheine attachment site"</title>
				<polygon class="PF00550" points="866,40 869,37 869,43" stroke-linejoin="round" width="6" height="24" fill="rgb(103,191,88)" stroke="rgb(82,152,70)" stroke-width="1" opacity="0.75" />
			</g>
			<g>
				<title>Condensation (PF00668)
"Condensation domain"</title>
				<polygon class="PF00668" points="871,35 878,28 915,28 915,52 878,52 871,45" stroke-linejoin="round" width="44" height="24" fill="rgb(224,184,98)" stroke="rgb(179,147,78)" stroke-width="1" opacity="0.75" />
			</g>
			<g>
				<title>PP-binding (PF00550)
"Phosphopantetheine attachment site"</title>
				<rect class="PF00550" x="918" y="28" stroke-linejoin="round" width="6" height="24" fill="rgb(103,191,88)" stroke="rgb(82,152,70)" stroke-width="1" opacity="0.75" />
			</g>
			<g>
				<title>AMP-binding (PF00501)
"AMP-binding enzyme"</title>
				<rect class="PF00501" x="967" y="28" stroke-linejoin="round" width="39" height="24" fill="rgb(60,217,223)" stroke="rgb(48,173,178)" stroke-width="1" opacity="0.75" />
			</g>
			<g>
				<title>Condensation (PF00668)
"Condensation domain"</title>
				<rect class="PF00668" x="1009" y="28" stroke-linejoin="round" width="43" height="24" fill="rgb(224,184,98)" stroke="rgb(179,147,78)" stroke-width="1" opacity="0.75" />
			</g>
			<g>
				<title>PP-binding (PF00550)
"Phosphopantetheine attachment site"</title>
				<rect class="PF00550" x="1055" y="28" stroke-linejoin="round" width="6" height="24" fill="rgb(103,191,88)" stroke="rgb(82,152,70)" stroke-width="1" opacity="0.75" />
			</g>
		</g>
		<g>
			<title>dhbE (GCIAIJCE_02047)
2,3-dihydroxybenzoate-AMP ligase</title>
			<polygon class="dhbE (GCIAIJCE_02047)
2,3-dihydroxybenzoate-AMP ligase" points="1115,25 1093,25 1093,10 1063,40 1093,70 1093,55 1115,55" fill="rgb(255,255,255)" fill-opacity="1.0" stroke="rgb(0,0,0)" stroke-width="2"  />
			<g>
				<title>AMP-binding_C (PF13193)
"AMP-binding enzyme C-terminal domain"</title>
				<polygon class="PF13193" points="1067,40 1070,37 1070,43" stroke-linejoin="round" width="7" height="24" fill="rgb(182,50,118)" stroke="rgb(145,39,94)" stroke-width="1" opacity="0.75" />
			</g>
			<g>
				<title>AMP-binding (PF00501)
"AMP-binding enzyme"</title>
				<polygon class="PF00501" points="1072,35 1079,28 1113,28 1113,52 1079,52 1072,45" stroke-linejoin="round" width="41" height="24" fill="rgb(60,217,223)" stroke="rgb(48,173,178)" stroke-width="1" opacity="0.75" />
			</g>
		</g>
		<g>
			<title>sfp_3 (GCIAIJCE_02048)
4'-phosphopantetheinyl transferase sfp</title>
			<polygon class="sfp_3 (GCIAIJCE_02048)
4'-phosphopantetheinyl transferase sfp" points="1116,40 1139,10 1139,70" fill="rgb(255,255,255)" fill-opacity="1.0" stroke="rgb(0,0,0)" stroke-width="2"  />
			<g>
				<title>ACPS (PF01648)
"4'-phosphopantetheinyl transferase superfamily"</title>
				<polygon class="PF01648" points="1120,40 1125,34 1125,46" stroke-linejoin="round" width="9" height="24" fill="rgb(85,184,135)" stroke="rgb(68,147,108)" stroke-width="1" opacity="0.75" />
			</g>
		</g>
		<g>
			<title>lgrE (GCIAIJCE_02049)
Linear gramicidin dehydrogenase LgrE</title>
			<polygon class="lgrE (GCIAIJCE_02049)
Linear gramicidin dehydrogenase LgrE" points="1139,40 1163,10 1163,70" fill="rgb(255,255,255)" fill-opacity="1.0" stroke="rgb(0,0,0)" stroke-width="2"  />
			<g>
				<title>Thioesterase (PF00975)
"Thioesterase domain"</title>
				<polygon class="PF00975" points="1143,40 1153,28 1161,28 1161,52 1153,52" stroke-linejoin="round" width="22" height="24" fill="rgb(207,80,138)" stroke="rgb(165,63,110)" stroke-width="1" opacity="0.75" />
			</g>
		</g>
		<g>
			<title>erpA (GCIAIJCE_02050)
Iron-sulfur cluster insertion protein ErpA</title>
			<polygon class="erpA (GCIAIJCE_02050)
Iron-sulfur cluster insertion protein ErpA" points="1171,40 1183,10 1183,70" fill="rgb(255,255,255)" fill-opacity="1.0" stroke="rgb(0,0,0)" stroke-width="2"  />
			<g>
				<title>Fe-S_biosyn (PF01521)
"Iron-sulphur cluster biosynthesis"</title>
				<polygon class="PF01521" points="1174,40 1179,28 1182,28 1182,52 1179,52" stroke-linejoin="round" width="10" height="24" fill="rgb(179,60,127)" stroke="rgb(143,47,101)" stroke-width="1" opacity="0.75" />
			</g>
		</g>
		<g>
			<title>GCIAIJCE_02051_gene (GCIAIJCE_02051)
hypothetical protein</title>
			<polygon class="GCIAIJCE_02051_gene (GCIAIJCE_02051)
hypothetical protein" points="1184,40 1191,10 1191,70" fill="rgb(255,255,255)" fill-opacity="1.0" stroke="rgb(0,0,0)" stroke-width="2"  />
			<g>
				<title>DUF1450 (PF07293)
"Protein of unknown function (DUF1450)"</title>
				<polygon class="PF07293" points="1187,40 1190,28 1191,28 1191,52 1190,52" stroke-linejoin="round" width="7" height="24" fill="rgb(181,86,110)" stroke="rgb(144,68,88)" stroke-width="1" opacity="0.75" />
			</g>
		</g>
		<g>
			<title>GCIAIJCE_02052_gene (GCIAIJCE_02052)
NADH dehydrogenase-like protein</title>
			<polygon class="GCIAIJCE_02052_gene (GCIAIJCE_02052)
NADH dehydrogenase-like protein" points="1202,25 1208,25 1208,10 1238,40 1208,70 1208,55 1202,55" fill="rgb(255,255,255)" fill-opacity="1.0" stroke="rgb(0,0,0)" stroke-width="2"  />
			<g>
				<title>Pyr_redox_2 (PF07992)
"Pyridine nucleotide-disulphide oxidoreductase"</title>
				<polygon class="PF07992" points="1203,28 1222,28 1231,37 1231,43 1222,52 1203,52" stroke-linejoin="round" width="28" height="24" fill="rgb(83,223,167)" stroke="rgb(66,178,133)" stroke-width="1" opacity="0.75" />
			</g>
		</g>
		<g>
			<title>GCIAIJCE_02053_gene (GCIAIJCE_02053)
hypothetical protein</title>
			<polygon class="GCIAIJCE_02053_gene (GCIAIJCE_02053)
hypothetical protein" points="1244,40 1254,10 1254,70" fill="rgb(255,255,255)" fill-opacity="1.0" stroke="rgb(0,0,0)" stroke-width="2"  />
			<g>
				<title>DUF1462 (PF07315)
"Protein of unknown function (DUF1462)"</title>
				<polygon class="PF07315" points="1247,40 1251,28 1253,28 1253,52 1251,52" stroke-linejoin="round" width="9" height="24" fill="rgb(96,220,79)" stroke="rgb(76,176,63)" stroke-width="1" opacity="0.75" />
			</g>
		</g>
		<g>
			<title>nfuA (GCIAIJCE_02054)
Fe/S biogenesis protein NfuA</title>
			<polygon class="nfuA (GCIAIJCE_02054)
Fe/S biogenesis protein NfuA" points="1258,10 1266,40 1258,70" fill="rgb(255,255,255)" fill-opacity="1.0" stroke="rgb(0,0,0)" stroke-width="2"  />
			<g>
				<title>NifU (PF01106)
"NifU-like domain"</title>
				<polygon class="PF01106" points="1259,28 1259,28 1262,40 1259,52 1259,52" stroke-linejoin="round" width="6" height="24" fill="rgb(183,133,85)" stroke="rgb(146,106,67)" stroke-width="1" opacity="0.75" />
			</g>
		</g>
		<g>
			<title>GCIAIJCE_02055_gene (GCIAIJCE_02055)
hypothetical protein</title>
			<polygon class="GCIAIJCE_02055_gene (GCIAIJCE_02055)
hypothetical protein" points="1313,25 1304,25 1304,10 1274,40 1304,70 1304,55 1313,55" fill="rgb(255,255,255)" fill-opacity="1.0" stroke="rgb(0,0,0)" stroke-width="2"  />
			<g>
				<title>DltD (PF04914)
"DltD protein"</title>
				<polygon class="PF04914" points="1278,40 1290,28 1308,28 1308,52 1290,52" stroke-linejoin="round" width="33" height="24" fill="rgb(57,82,191)" stroke="rgb(45,65,152)" stroke-width="1" opacity="0.75" />
			</g>
		</g>
		<g>
			<title>dltC (GCIAIJCE_02056)
D-alanine--poly(phosphoribitol) ligase subunit 2</title>
			<polygon class="dltC (GCIAIJCE_02056)
D-alanine--poly(phosphoribitol) ligase subunit 2" points="1313,40 1320,10 1320,70" fill="rgb(255,255,255)" fill-opacity="1.0" stroke="rgb(0,0,0)" stroke-width="2"  />
			<g>
				<title>PP-binding (PF00550)
"Phosphopantetheine attachment site"</title>
				<polygon class="PF00550" points="1316,40 1319,28 1319,28 1319,52 1319,52" stroke-linejoin="round" width="6" height="24" fill="rgb(103,191,88)" stroke="rgb(82,152,70)" stroke-width="1" opacity="0.75" />
			</g>
		</g>
		<g>
			<title>patA_3 (GCIAIJCE_02057)
Peptidoglycan O-acetyltransferase</title>
			<polygon class="patA_3 (GCIAIJCE_02057)
Peptidoglycan O-acetyltransferase" points="1361,25 1351,25 1351,10 1321,40 1351,70 1351,55 1361,55" fill="rgb(255,255,255)" fill-opacity="1.0" stroke="rgb(0,0,0)" stroke-width="2"  />
			<g>
				<title>MBOAT (PF03062)
"MBOAT, membrane-bound O-acyltransferase family"</title>
				<polygon class="PF03062" points="1325,40 1337,28 1356,28 1356,52 1337,52" stroke-linejoin="round" width="35" height="24" fill="rgb(116,79,215)" stroke="rgb(92,63,172)" stroke-width="1" opacity="0.75" />
			</g>
		</g>
		<g>
			<title>dltA (GCIAIJCE_02058)
D-alanine--poly(phosphoribitol) ligase subunit 1</title>
			<polygon class="dltA (GCIAIJCE_02058)
D-alanine--poly(phosphoribitol) ligase subunit 1" points="1410,25 1392,25 1392,10 1362,40 1392,70 1392,55 1410,55" fill="rgb(255,255,255)" fill-opacity="1.0" stroke="rgb(0,0,0)" stroke-width="2"  />
			<g>
				<title>AMP-binding_C (PF13193)
"AMP-binding enzyme C-terminal domain"</title>
				<polygon class="PF13193" points="1366,40 1370,36 1370,44" stroke-linejoin="round" width="7" height="24" fill="rgb(182,50,118)" stroke="rgb(145,39,94)" stroke-width="1" opacity="0.75" />
			</g>
			<g>
				<title>AMP-binding (PF00501)
"AMP-binding enzyme"</title>
				<polygon class="PF00501" points="1371,35 1378,28 1408,28 1408,52 1378,52 1371,45" stroke-linejoin="round" width="37" height="24" fill="rgb(60,217,223)" stroke="rgb(48,173,178)" stroke-width="1" opacity="0.75" />
			</g>
		</g>
		<g>
			<title>GCIAIJCE_02059_gene (GCIAIJCE_02059)
hypothetical protein</title>
			<polygon class="GCIAIJCE_02059_gene (GCIAIJCE_02059)
hypothetical protein" points="1411,40 1416,10 1416,70" fill="rgb(255,255,255)" fill-opacity="1.0" stroke="rgb(0,0,0)" stroke-width="2"  />
			<g>
				<title>DUF3687 (PF12459)
"D-Ala-teichoic acid biosynthesis protein"</title>
				<polygon class="PF12459" points="1414,40 1415,34 1415,46" stroke-linejoin="round" width="4" height="24" fill="rgb(65,191,154)" stroke="rgb(52,152,123)" stroke-width="1" opacity="0.75" />
			</g>
		</g>
		<g>
			<title>ghrB_2 (GCIAIJCE_02060)
Glyoxylate/hydroxypyruvate reductase B</title>
			<polygon class="ghrB_2 (GCIAIJCE_02060)
Glyoxylate/hydroxypyruvate reductase B" points="1459,25 1457,25 1457,10 1427,40 1457,70 1457,55 1459,55" fill="rgb(255,255,255)" fill-opacity="1.0" stroke="rgb(0,0,0)" stroke-width="2"  />
			<g>
				<title>2-Hacid_dh_C (PF02826)
"D-isomer specific 2-hydroxyacid dehydrogenase, NAD binding domain"</title>
				<polygon class="PF02826" points="1431,40 1443,28 1447,28 1447,52 1443,52" stroke-linejoin="round" width="17" height="24" fill="rgb(192,197,93)" stroke="rgb(153,157,74)" stroke-width="1" opacity="0.75" />
			</g>
		</g>
		<g>
			<title>yutF (GCIAIJCE_02061)
Acid sugar phosphatase</title>
			<polygon class="yutF (GCIAIJCE_02061)
Acid sugar phosphatase" points="1460,40 1486,10 1486,70" fill="rgb(255,255,255)" fill-opacity="1.0" stroke="rgb(0,0,0)" stroke-width="2"  />
			<g>
				<title>Hydrolase_like (PF13242)
"HAD-hyrolase-like"</title>
				<polygon class="PF13242" points="1464,40 1467,37 1467,43" stroke-linejoin="round" width="7" height="24" fill="rgb(202,89,70)" stroke="rgb(161,71,56)" stroke-width="1" opacity="0.75" />
			</g>
			<g>
				<title>Hydrolase_6 (PF13344)
"Haloacid dehalogenase-like hydrolase"</title>
				<rect class="PF13344" x="1475" y="28" stroke-linejoin="round" width="10" height="24" fill="rgb(78,107,184)" stroke="rgb(62,85,147)" stroke-width="1" opacity="0.75" />
			</g>
		</g>
		<g>
			<title>GCIAIJCE_02062_gene (GCIAIJCE_02062)
hypothetical protein</title>
			<polygon class="GCIAIJCE_02062_gene (GCIAIJCE_02062)
hypothetical protein" points="1486,40 1500,10 1500,70" fill="rgb(255,255,255)" fill-opacity="1.0" stroke="rgb(0,0,0)" stroke-width="2"  />
			<g>
				<title>DUF86 (PF01934)
"Protein of unknown function DUF86"</title>
				<polygon class="PF01934" points="1489,40 1495,28 1499,28 1499,52 1495,52" stroke-linejoin="round" width="11" height="24" fill="rgb(66,222,169)" stroke="rgb(52,177,135)" stroke-width="1" opacity="0.75" />
			</g>
		</g>
		<g>
			<title>GCIAIJCE_02063_gene (GCIAIJCE_02063)
hypothetical protein</title>
			<polygon class="GCIAIJCE_02063_gene (GCIAIJCE_02063)
hypothetical protein" points="1504,10 1512,40 1504,70" fill="rgb(255,255,255)" fill-opacity="1.0" stroke="rgb(0,0,0)" stroke-width="2"  />
			<g>
				<title>DUF3055 (PF11256)
"Protein of unknown function (DUF3055)"</title>
				<polygon class="PF11256" points="1504,28 1505,28 1509,40 1505,52 1504,52" stroke-linejoin="round" width="7" height="24" fill="rgb(149,194,62)" stroke="rgb(119,155,49)" stroke-width="1" opacity="0.75" />
			</g>
		</g>
		<g>
			<title>GCIAIJCE_02064_gene (GCIAIJCE_02064)
hypothetical protein</title>
			<polygon class="GCIAIJCE_02064_gene (GCIAIJCE_02064)
hypothetical protein" points="1517,40 1530,10 1530,70" fill="rgb(255,255,255)" fill-opacity="1.0" stroke="rgb(0,0,0)" stroke-width="2"  />
			<g>
				<title>DUF1027 (PF06265)
"Protein of unknown function (DUF1027)"</title>
				<polygon class="PF06265" points="1521,38 1525,28 1529,28 1529,52 1525,52 1521,42" stroke-linejoin="round" width="8" height="24" fill="rgb(119,197,64)" stroke="rgb(95,157,51)" stroke-width="1" opacity="0.75" />
			</g>
		</g>
		<g>
			<title>lipA (GCIAIJCE_02065)
Lipoyl synthase</title>
			<polygon class="lipA (GCIAIJCE_02065)
Lipoyl synthase" points="1566,25 1566,25 1566,10 1536,40 1566,70 1566,55 1566,55" fill="rgb(255,255,255)" fill-opacity="1.0" stroke="rgb(0,0,0)" stroke-width="2"  />
			<g>
				<title>Radical_SAM (PF04055)
"Radical SAM superfamily"</title>
				<polygon class="PF04055" points="1544,36 1552,28 1560,28 1560,52 1552,52 1544,44" stroke-linejoin="round" width="16" height="24" fill="rgb(149,56,222)" stroke="rgb(119,44,177)" stroke-width="1" opacity="0.75" />
			</g>
			<g>
				<title>LIAS_N (PF16881)
"N-terminal domain of lipoyl synthase of Radical_SAM family"</title>
				<rect class="PF16881" x="1562" y="28" stroke-linejoin="round" width="4" height="24" fill="rgb(197,81,150)" stroke="rgb(157,64,120)" stroke-width="1" opacity="0.75" />
			</g>
		</g>
		<g>
			<title>mggB (GCIAIJCE_02066)
Mannosylglucosyl-3-phosphoglycerate phosphatase</title>
			<polygon class="mggB (GCIAIJCE_02066)
Mannosylglucosyl-3-phosphoglycerate phosphatase" points="1613,25 1599,25 1599,10 1569,40 1599,70 1599,55 1613,55" fill="rgb(255,255,255)" fill-opacity="1.0" stroke="rgb(0,0,0)" stroke-width="2"  />
			<g>
				<title>5_nucleotid_C (PF02872)
"5'-nucleotidase, C-terminal domain"</title>
				<polygon class="PF02872" points="1573,40 1585,28 1585,28 1585,52 1585,52" stroke-linejoin="round" width="14" height="24" fill="rgb(215,156,101)" stroke="rgb(172,124,80)" stroke-width="1" opacity="0.75" />
			</g>
			<g>
				<title>Metallophos (PF00149)
"Calcineurin-like phosphoesterase"</title>
				<rect class="PF00149" x="1593" y="28" stroke-linejoin="round" width="19" height="24" fill="rgb(181,197,58)" stroke="rgb(144,157,46)" stroke-width="1" opacity="0.75" />
			</g>
		</g>
		<g>
			<title>GCIAIJCE_02067_gene (GCIAIJCE_02067)
hypothetical protein</title>
			<polygon class="GCIAIJCE_02067_gene (GCIAIJCE_02067)
hypothetical protein" points="1614,40 1641,10 1641,70" fill="rgb(255,255,255)" fill-opacity="1.0" stroke="rgb(0,0,0)" stroke-width="2"  />
			<g>
				<title>TauE (PF01925)
"Sulfite exporter TauE/SafE"</title>
				<polygon class="PF01925" points="1618,40 1629,28 1640,28 1640,52 1629,52" stroke-linejoin="round" width="26" height="24" fill="rgb(105,203,95)" stroke="rgb(84,162,76)" stroke-width="1" opacity="0.75" />
			</g>
		</g>
		<g>
			<title>GCIAIJCE_02068_gene (GCIAIJCE_02068)
hypothetical protein</title>
			<polygon class="GCIAIJCE_02068_gene (GCIAIJCE_02068)
hypothetical protein" points="1642,40 1671,10 1671,70" fill="rgb(255,255,255)" fill-opacity="1.0" stroke="rgb(0,0,0)" stroke-width="2"  />
			<g>
				<title>DUF72 (PF01904)
"Protein of unknown function DUF72"</title>
				<polygon class="PF01904" points="1646,40 1658,28 1668,28 1668,52 1658,52" stroke-linejoin="round" width="25" height="24" fill="rgb(63,151,204)" stroke="rgb(50,120,163)" stroke-width="1" opacity="0.75" />
			</g>
		</g>
		<g>
			<title>GCIAIJCE_02069_gene (GCIAIJCE_02069)
Putative monooxygenase</title>
			<polygon class="GCIAIJCE_02069_gene (GCIAIJCE_02069)
Putative monooxygenase" points="1708,25 1703,25 1703,10 1673,40 1703,70 1703,55 1708,55" fill="rgb(255,255,255)" fill-opacity="1.0" stroke="rgb(0,0,0)" stroke-width="2"  />
			<g>
				<title>NMO (PF03060)
"Nitronate monooxygenase"</title>
				<polygon class="PF03060" points="1677,40 1689,28 1707,28 1707,52 1689,52" stroke-linejoin="round" width="34" height="24" fill="rgb(100,193,226)" stroke="rgb(80,154,180)" stroke-width="1" opacity="0.75" />
			</g>
		</g>
		<g>
			<title>corC_1 (GCIAIJCE_02070)
Magnesium and cobalt efflux protein CorC</title>
			<polygon class="corC_1 (GCIAIJCE_02070)
Magnesium and cobalt efflux protein CorC" points="1743,25 1739,25 1739,10 1709,40 1739,70 1739,55 1743,55" fill="rgb(255,255,255)" fill-opacity="1.0" stroke="rgb(0,0,0)" stroke-width="2"  />
			<g>
				<title>CBS (PF00571)
"CBS domain"</title>
				<polygon class="PF00571" points="1713,40 1717,36 1717,44" stroke-linejoin="round" width="5" height="24" fill="rgb(220,56,105)" stroke="rgb(176,44,84)" stroke-width="1" opacity="0.75" />
			</g>
			<g>
				<title>DUF21 (PF01595)
"Cyclin M transmembrane N-terminal domain"</title>
				<polygon class="PF01595" points="1725,28 1725,28 1742,28 1742,52 1725,52 1725,52" stroke-linejoin="round" width="17" height="24" fill="rgb(76,67,187)" stroke="rgb(60,53,149)" stroke-width="1" opacity="0.75" />
			</g>
		</g>
		<g>
			<title>GCIAIJCE_02071_gene (GCIAIJCE_02071)
hypothetical protein</title>
			<polygon class="GCIAIJCE_02071_gene (GCIAIJCE_02071)
hypothetical protein" points="1755,40 1776,10 1776,70" fill="rgb(255,255,255)" fill-opacity="1.0" stroke="rgb(0,0,0)" stroke-width="2"  />
			<g>
				<title>DUF5079 (PF16882)
"Domain of unknown function (DUF5079)"</title>
				<polygon class="PF16882" points="1759,40 1768,28 1775,28 1775,52 1768,52" stroke-linejoin="round" width="20" height="24" fill="rgb(178,112,226)" stroke="rgb(142,89,180)" stroke-width="1" opacity="0.75" />
			</g>
		</g>
		<g>
			<title>GCIAIJCE_02072_gene (GCIAIJCE_02072)
hypothetical protein</title>
			<polygon class="GCIAIJCE_02072_gene (GCIAIJCE_02072)
hypothetical protein" points="1779,40 1801,10 1801,70" fill="rgb(255,255,255)" fill-opacity="1.0" stroke="rgb(0,0,0)" stroke-width="2"  />
		</g>
		<g>
			<title>GCIAIJCE_02073_gene (GCIAIJCE_02073)
hypothetical protein</title>
			<polygon class="GCIAIJCE_02073_gene (GCIAIJCE_02073)
hypothetical protein" points="1802,40 1824,10 1824,70" fill="rgb(255,255,255)" fill-opacity="1.0" stroke="rgb(0,0,0)" stroke-width="2"  />
			<g>
				<title>DUF5079 (PF16882)
"Domain of unknown function (DUF5079)"</title>
				<polygon class="PF16882" points="1806,40 1815,28 1823,28 1823,52 1815,52" stroke-linejoin="round" width="21" height="24" fill="rgb(178,112,226)" stroke="rgb(142,89,180)" stroke-width="1" opacity="0.75" />
			</g>
		</g>
		<g>
			<title>GCIAIJCE_02074_gene (GCIAIJCE_02074)
hypothetical protein</title>
			<polygon class="GCIAIJCE_02074_gene (GCIAIJCE_02074)
hypothetical protein" points="1831,40 1852,10 1852,70" fill="rgb(255,255,255)" fill-opacity="1.0" stroke="rgb(0,0,0)" stroke-width="2"  />
			<g>
				<title>DUF5079 (PF16882)
"Domain of unknown function (DUF5079)"</title>
				<polygon class="PF16882" points="1835,40 1844,28 1851,28 1851,52 1844,52" stroke-linejoin="round" width="20" height="24" fill="rgb(178,112,226)" stroke="rgb(142,89,180)" stroke-width="1" opacity="0.75" />
			</g>
		</g>
		<g>
			<title>GCIAIJCE_02075_gene (GCIAIJCE_02075)
hypothetical protein</title>
			<polygon class="GCIAIJCE_02075_gene (GCIAIJCE_02075)
hypothetical protein" points="1858,40 1879,10 1879,70" fill="rgb(255,255,255)" fill-opacity="1.0" stroke="rgb(0,0,0)" stroke-width="2"  />
			<g>
				<title>DUF5079 (PF16882)
"Domain of unknown function (DUF5079)"</title>
				<polygon class="PF16882" points="1862,40 1871,28 1878,28 1878,52 1871,52" stroke-linejoin="round" width="20" height="24" fill="rgb(178,112,226)" stroke="rgb(142,89,180)" stroke-width="1" opacity="0.75" />
			</g>
		</g>
		<g>
			<title>GCIAIJCE_02076_gene (GCIAIJCE_02076)
hypothetical protein</title>
			<polygon class="GCIAIJCE_02076_gene (GCIAIJCE_02076)
hypothetical protein" points="1883,40 1904,10 1904,70" fill="rgb(255,255,255)" fill-opacity="1.0" stroke="rgb(0,0,0)" stroke-width="2"  />
			<g>
				<title>DUF5079 (PF16882)
"Domain of unknown function (DUF5079)"</title>
				<polygon class="PF16882" points="1887,40 1896,28 1903,28 1903,52 1896,52" stroke-linejoin="round" width="20" height="24" fill="rgb(178,112,226)" stroke="rgb(142,89,180)" stroke-width="1" opacity="0.75" />
			</g>
		</g>
		<g>
			<title>GCIAIJCE_02077_gene (GCIAIJCE_02077)
hypothetical protein</title>
			<polygon class="GCIAIJCE_02077_gene (GCIAIJCE_02077)
hypothetical protein" points="1907,40 1922,10 1922,70" fill="rgb(255,255,255)" fill-opacity="1.0" stroke="rgb(0,0,0)" stroke-width="2"  />
		</g>
		<g>
			<title>GCIAIJCE_02078_gene (GCIAIJCE_02078)
hypothetical protein</title>
			<polygon class="GCIAIJCE_02078_gene (GCIAIJCE_02078)
hypothetical protein" points="1943,40 1949,10 1949,70" fill="rgb(255,255,255)" fill-opacity="1.0" stroke="rgb(0,0,0)" stroke-width="2"  />
		</g>
		<g>
			<title>GCIAIJCE_02079_gene (GCIAIJCE_02079)
hypothetical protein</title>
			<polygon class="GCIAIJCE_02079_gene (GCIAIJCE_02079)
hypothetical protein" points="1952,40 1964,10 1964,70" fill="rgb(255,255,255)" fill-opacity="1.0" stroke="rgb(0,0,0)" stroke-width="2"  />
			<g>
				<title>DUF4467 (PF14729)
"Domain of unknown function with cystatin-like fold (DUF4467)"</title>
				<polygon class="PF14729" points="1955,40 1960,28 1961,28 1961,52 1960,52" stroke-linejoin="round" width="9" height="24" fill="rgb(186,225,67)" stroke="rgb(148,180,53)" stroke-width="1" opacity="0.75" />
			</g>
		</g>
		<g>
			<title>GCIAIJCE_02080_gene (GCIAIJCE_02080)
hypothetical protein</title>
			<polygon class="GCIAIJCE_02080_gene (GCIAIJCE_02080)
hypothetical protein" points="2012,25 2002,25 2002,10 1972,40 2002,70 2002,55 2012,55" fill="rgb(255,255,255)" fill-opacity="1.0" stroke="rgb(0,0,0)" stroke-width="2"  />
			<g>
				<title>DUF5080 (PF16883)
"Domain of unknown function (DUF5080)"</title>
				<polygon class="PF16883" points="1976,40 1988,28 1991,28 1991,52 1988,52" stroke-linejoin="round" width="19" height="24" fill="rgb(179,198,58)" stroke="rgb(143,158,46)" stroke-width="1" opacity="0.75" />
			</g>
			<g>
				<title>DUF5080 (PF16883)
"Domain of unknown function (DUF5080)"</title>
				<rect class="PF16883" x="1992" y="28" stroke-linejoin="round" width="19" height="24" fill="rgb(179,198,58)" stroke="rgb(143,158,46)" stroke-width="1" opacity="0.75" />
			</g>
		</g>
		<g>
			<title>yezG_1 (GCIAIJCE_02081)
putative antitoxin YezG</title>
			<polygon class="yezG_1 (GCIAIJCE_02081)
putative antitoxin YezG" points="2047,25 2044,25 2044,10 2014,40 2044,70 2044,55 2047,55" fill="rgb(255,255,255)" fill-opacity="1.0" stroke="rgb(0,0,0)" stroke-width="2"  />
			<g>
				<title>DUF600 (PF04634)
"Protein of unknown function, DUF600"</title>
				<polygon class="PF04634" points="2018,40 2029,29 2029,51" stroke-linejoin="round" width="14" height="24" fill="rgb(108,195,218)" stroke="rgb(86,156,174)" stroke-width="1" opacity="0.75" />
			</g>
			<g>
				<title>DUF600 (PF04634)
"Protein of unknown function, DUF600"</title>
				<rect class="PF04634" x="2032" y="28" stroke-linejoin="round" width="14" height="24" fill="rgb(108,195,218)" stroke="rgb(86,156,174)" stroke-width="1" opacity="0.75" />
			</g>
		</g>
	</g>
</svg>
