<svg version="1.1" baseProfile="full" xmlns="http://www.w3.org/2000/svg" width="568.4333333333333" height="80">
	<g>
		<line x1="10" y1="40.0" x2="509.3333333333333" y2="40.0" style="stroke:rgb(70,70,70); stroke-width:3 "/>
		<g>
			<title>KKLCPFEP_01369_gene (KKLCPFEP_01369)
Zinc-type alcohol dehydrogenase-like protein</title>
			<polygon class="KKLCPFEP_01369_gene (KKLCPFEP_01369)
Zinc-type alcohol dehydrogenase-like protein" points="24,25 27,25 27,10 57,40 27,70 27,55 24,55" fill="rgb(255,255,255)" fill-opacity="1.0" stroke="rgb(0,0,0)" stroke-width="2"  />
			<g>
				<title>ADH_N (PF08240)
"Alcohol dehydrogenase GroES-like domain"</title>
				<rect class="PF08240" x="27" y="28" stroke-linejoin="round" width="7" height="24" fill="rgb(211,65,138)" stroke="rgb(168,51,110)" stroke-width="1" opacity="0.75" />
			</g>
			<g>
				<title>ADH_zinc_N (PF00107)
"Zinc-binding dehydrogenase"</title>
				<polygon class="PF00107" points="40,28 41,28 52,39 52,41 41,52 40,52" stroke-linejoin="round" width="12" height="24" fill="rgb(81,108,215)" stroke="rgb(64,86,172)" stroke-width="1" opacity="0.75" />
			</g>
		</g>
		<g>
			<title>opuD_1 (KKLCPFEP_01370)
Glycine betaine transporter OpuD</title>
			<polygon class="opuD_1 (KKLCPFEP_01370)
Glycine betaine transporter OpuD" points="65,25 88,25 88,10 118,40 88,70 88,55 65,55" fill="rgb(255,255,255)" fill-opacity="1.0" stroke="rgb(0,0,0)" stroke-width="2"  />
			<g>
				<title>BCCT (PF02028)
"BCCT, betaine/carnitine/choline family transporter"</title>
				<polygon class="PF02028" points="66,28 101,28 113,40 101,52 66,52" stroke-linejoin="round" width="48" height="24" fill="rgb(206,109,74)" stroke="rgb(164,87,59)" stroke-width="1" opacity="0.75" />
			</g>
		</g>
		<g>
			<title>KKLCPFEP_01371_gene (KKLCPFEP_01371)
hypothetical protein</title>
			<polygon class="KKLCPFEP_01371_gene (KKLCPFEP_01371)
hypothetical protein" points="124,10 141,40 124,70" fill="rgb(255,255,255)" fill-opacity="1.0" stroke="rgb(0,0,0)" stroke-width="2"  />
		</g>
		<g>
			<title>KKLCPFEP_01372_gene (KKLCPFEP_01372)
hypothetical protein</title>
			<polygon class="KKLCPFEP_01372_gene (KKLCPFEP_01372)
hypothetical protein" points="142,10 150,40 142,70" fill="rgb(255,255,255)" fill-opacity="1.0" stroke="rgb(0,0,0)" stroke-width="2"  />
			<g>
				<title>DUF2273 (PF10031)
"Small integral membrane protein (DUF2273)"</title>
				<polygon class="PF10031" points="143,28 143,28 146,40 143,52 143,52" stroke-linejoin="round" width="4" height="24" fill="rgb(203,147,56)" stroke="rgb(162,117,44)" stroke-width="1" opacity="0.75" />
			</g>
		</g>
		<g>
			<title>KKLCPFEP_01373_gene (KKLCPFEP_01373)
Alkaline shock protein 23</title>
			<polygon class="KKLCPFEP_01373_gene (KKLCPFEP_01373)
Alkaline shock protein 23" points="152,10 169,40 152,70" fill="rgb(255,255,255)" fill-opacity="1.0" stroke="rgb(0,0,0)" stroke-width="2"  />
			<g>
				<title>Asp23 (PF03780)
"Asp23 family, cell envelope-related function"</title>
				<polygon class="PF03780" points="155,28 158,28 165,39 165,41 158,52 155,52" stroke-linejoin="round" width="10" height="24" fill="rgb(195,60,141)" stroke="rgb(156,48,112)" stroke-width="1" opacity="0.75" />
			</g>
		</g>
		<g>
			<title>iucC (KKLCPFEP_01374)
Aerobactin synthase</title>
			<polygon class="iucC (KKLCPFEP_01374)
Aerobactin synthase" points="240,25 206,25 206,10 176,40 206,70 206,55 240,55" fill="rgb(255,255,255)" fill-opacity="1.0" stroke="rgb(0,0,0)" stroke-width="2"  />
			<g>
				<title>FhuF (PF06276)
"Ferric iron reductase FhuF-like transporter"</title>
				<polygon class="PF06276" points="180,40 192,28 194,28 194,52 192,52" stroke-linejoin="round" width="17" height="24" fill="rgb(76,151,221)" stroke="rgb(60,120,176)" stroke-width="1" opacity="0.75" />
			</g>
			<g>
				<title>IucA_IucC (PF04183)
"IucA / IucC family"</title>
				<rect class="PF04183" x="197" y="28" stroke-linejoin="round" width="24" height="24" fill="rgb(221,104,121)" stroke="rgb(176,83,96)" stroke-width="1" opacity="0.75" />
			</g>
		</g>
		<g>
			<title>KKLCPFEP_01375_gene (KKLCPFEP_01375)
hypothetical protein</title>
			<polygon class="KKLCPFEP_01375_gene (KKLCPFEP_01375)
hypothetical protein" points="245,25 254,25 254,10 284,40 254,70 254,55 245,55" fill="rgb(255,255,255)" fill-opacity="1.0" stroke="rgb(0,0,0)" stroke-width="2"  />
			<g>
				<title>MFS_3 (PF05977)
"Transmembrane secretion effector"</title>
				<polygon class="PF05977" points="245,28 268,28 280,40 268,52 245,52" stroke-linejoin="round" width="39" height="24" fill="rgb(80,62,217)" stroke="rgb(64,49,173)" stroke-width="1" opacity="0.75" />
			</g>
		</g>
		<g>
			<title>iucA (KKLCPFEP_01376)
N(2)-citryl-N(6)-acetyl-N(6)-hydroxylysine synthase</title>
			<polygon class="iucA (KKLCPFEP_01376)
N(2)-citryl-N(6)-acetyl-N(6)-hydroxylysine synthase" points="284,25 312,25 312,10 342,40 312,70 312,55 284,55" fill="rgb(255,255,255)" fill-opacity="1.0" stroke="rgb(0,0,0)" stroke-width="2"  />
			<g>
				<title>IucA_IucC (PF04183)
"IucA / IucC family"</title>
				<rect class="PF04183" x="299" y="28" stroke-linejoin="round" width="22" height="24" fill="rgb(221,104,121)" stroke="rgb(176,83,96)" stroke-width="1" opacity="0.75" />
			</g>
			<g>
				<title>FhuF (PF06276)
"Ferric iron reductase FhuF-like transporter"</title>
				<polygon class="PF06276" points="325,28 326,28 338,40 326,52 325,52" stroke-linejoin="round" width="16" height="24" fill="rgb(76,151,221)" stroke="rgb(60,120,176)" stroke-width="1" opacity="0.75" />
			</g>
		</g>
		<g>
			<title>orr (KKLCPFEP_01377)
Ornithine racemase</title>
			<polygon class="orr (KKLCPFEP_01377)
Ornithine racemase" points="342,25 347,25 347,10 377,40 347,70 347,55 342,55" fill="rgb(255,255,255)" fill-opacity="1.0" stroke="rgb(0,0,0)" stroke-width="2"  />
			<g>
				<title>Ala_racemase_N (PF01168)
"Alanine racemase, N-terminal domain"</title>
				<polygon class="PF01168" points="342,28 360,28 363,31 363,49 360,52 342,52" stroke-linejoin="round" width="21" height="24" fill="rgb(87,82,180)" stroke="rgb(69,65,144)" stroke-width="1" opacity="0.75" />
			</g>
		</g>
		<g>
			<title>yfmC_1 (KKLCPFEP_01378)
Fe(3+)-citrate-binding protein YfmC</title>
			<polygon class="yfmC_1 (KKLCPFEP_01378)
Fe(3+)-citrate-binding protein YfmC" points="387,25 390,25 390,10 420,40 390,70 390,55 387,55" fill="rgb(255,255,255)" fill-opacity="1.0" stroke="rgb(0,0,0)" stroke-width="2"  />
			<g>
				<title>Peripla_BP_2 (PF01497)
"Periplasmic binding protein"</title>
				<polygon class="PF01497" points="392,28 404,28 416,40 416,40 404,52 392,52" stroke-linejoin="round" width="24" height="24" fill="rgb(183,226,104)" stroke="rgb(146,180,83)" stroke-width="1" opacity="0.75" />
			</g>
		</g>
		<g>
			<title>yfiZ (KKLCPFEP_01379)
putative siderophore transport system permease protein YfiZ</title>
			<polygon class="yfiZ (KKLCPFEP_01379)
putative siderophore transport system permease protein YfiZ" points="421,25 425,25 425,10 455,40 425,70 425,55 421,55" fill="rgb(255,255,255)" fill-opacity="1.0" stroke="rgb(0,0,0)" stroke-width="2"  />
			<g>
				<title>FecCD (PF01032)
"FecCD transport family"</title>
				<polygon class="PF01032" points="424,28 439,28 451,40 439,52 424,52" stroke-linejoin="round" width="30" height="24" fill="rgb(210,177,70)" stroke="rgb(168,141,56)" stroke-width="1" opacity="0.75" />
			</g>
		</g>
		<g>
			<title>fecD (KKLCPFEP_01380)
Fe(3+) dicitrate transport system permease protein FecD</title>
			<polygon class="fecD (KKLCPFEP_01380)
Fe(3+) dicitrate transport system permease protein FecD" points="455,25 457,25 457,10 487,40 457,70 457,55 455,55" fill="rgb(255,255,255)" fill-opacity="1.0" stroke="rgb(0,0,0)" stroke-width="2"  />
			<g>
				<title>FecCD (PF01032)
"FecCD transport family"</title>
				<polygon class="PF01032" points="456,28 471,28 483,40 471,52 456,52" stroke-linejoin="round" width="30" height="24" fill="rgb(210,177,70)" stroke="rgb(168,141,56)" stroke-width="1" opacity="0.75" />
			</g>
		</g>
	</g>
</svg>
