<svg version="1.1" baseProfile="full" xmlns="http://www.w3.org/2000/svg" width="1141.8666666666666" height="80">
	<g>
		<line x1="10" y1="40.0" x2="1131.8666666666666" y2="40.0" style="stroke:rgb(70,70,70); stroke-width:3 "/>
		<g>
			<title>MHLOJDLD_01674_gene (MHLOJDLD_01674)
hypothetical protein</title>
			<polygon class="MHLOJDLD_01674_gene (MHLOJDLD_01674)
hypothetical protein" points="12,10 33,40 12,70" fill="rgb(255,255,255)" fill-opacity="1.0" stroke="rgb(0,0,0)" stroke-width="2"  />
		</g>
		<g>
			<title>MHLOJDLD_01675_gene (MHLOJDLD_01675)
hypothetical protein</title>
			<polygon class="MHLOJDLD_01675_gene (MHLOJDLD_01675)
hypothetical protein" points="36,10 65,40 36,70" fill="rgb(255,255,255)" fill-opacity="1.0" stroke="rgb(0,0,0)" stroke-width="2"  />
		</g>
		<g>
			<title>emrB_3 (MHLOJDLD_01676)
Multidrug export protein EmrB</title>
			<polygon class="emrB_3 (MHLOJDLD_01676)
Multidrug export protein EmrB" points="78,25 95,25 95,10 125,40 95,70 95,55 78,55" fill="rgb(255,255,255)" fill-opacity="1.0" stroke="rgb(0,0,0)" stroke-width="2"  />
			<g>
				<title>MFS_1 (PF07690)
"Major Facilitator Superfamily"</title>
				<polygon class="PF07690" points="79,28 109,28 118,37 118,43 109,52 79,52" stroke-linejoin="round" width="39" height="24" fill="rgb(193,224,74)" stroke="rgb(154,179,59)" stroke-width="1" opacity="0.75" />
			</g>
		</g>
		<g>
			<title>MHLOJDLD_01677_gene (MHLOJDLD_01677)
hypothetical protein</title>
			<polygon class="MHLOJDLD_01677_gene (MHLOJDLD_01677)
hypothetical protein" points="129,40 136,10 136,70" fill="rgb(255,255,255)" fill-opacity="1.0" stroke="rgb(0,0,0)" stroke-width="2"  />
		</g>
		<g>
			<title>bdhA (MHLOJDLD_01678)
D-beta-hydroxybutyrate dehydrogenase</title>
			<polygon class="bdhA (MHLOJDLD_01678)
D-beta-hydroxybutyrate dehydrogenase" points="149,10 174,40 149,70" fill="rgb(255,255,255)" fill-opacity="1.0" stroke="rgb(0,0,0)" stroke-width="2"  />
			<g>
				<title>adh_short_C2 (PF13561)
"Enoyl-(Acyl carrier protein) reductase"</title>
				<polygon class="PF13561" points="150,28 161,28 170,40 161,52 150,52" stroke-linejoin="round" width="24" height="24" fill="rgb(73,205,127)" stroke="rgb(58,164,101)" stroke-width="1" opacity="0.75" />
			</g>
		</g>
		<g>
			<title>MHLOJDLD_01679_gene (MHLOJDLD_01679)
hypothetical protein</title>
			<polygon class="MHLOJDLD_01679_gene (MHLOJDLD_01679)
hypothetical protein" points="178,25 189,25 189,10 219,40 189,70 189,55 178,55" fill="rgb(255,255,255)" fill-opacity="1.0" stroke="rgb(0,0,0)" stroke-width="2"  />
			<g>
				<title>MFS_1 (PF07690)
"Major Facilitator Superfamily"</title>
				<polygon class="PF07690" points="179,28 203,28 214,39 214,41 203,52 179,52" stroke-linejoin="round" width="35" height="24" fill="rgb(193,224,74)" stroke="rgb(154,179,59)" stroke-width="1" opacity="0.75" />
			</g>
		</g>
		<g>
			<title>tycC (MHLOJDLD_01680)
Tyrocidine synthase 3</title>
			<polygon class="tycC (MHLOJDLD_01680)
Tyrocidine synthase 3" points="226,25 434,25 434,10 464,40 434,70 434,55 226,55" fill="rgb(255,255,255)" fill-opacity="1.0" stroke="rgb(0,0,0)" stroke-width="2"  />
			<g>
				<title>AMP-binding (PF00501)
"AMP-binding enzyme"</title>
				<rect class="PF00501" x="268" y="28" stroke-linejoin="round" width="39" height="24" fill="rgb(60,217,223)" stroke="rgb(48,173,178)" stroke-width="1" opacity="0.75" />
			</g>
			<g>
				<title>AMP-binding_C (PF13193)
"AMP-binding enzyme C-terminal domain"</title>
				<rect class="PF13193" x="308" y="28" stroke-linejoin="round" width="7" height="24" fill="rgb(182,50,118)" stroke="rgb(145,39,94)" stroke-width="1" opacity="0.75" />
			</g>
			<g>
				<title>PP-binding (PF00550)
"Phosphopantetheine attachment site"</title>
				<rect class="PF00550" x="318" y="28" stroke-linejoin="round" width="6" height="24" fill="rgb(103,191,88)" stroke="rgb(82,152,70)" stroke-width="1" opacity="0.75" />
			</g>
			<g>
				<title>Condensation (PF00668)
"Condensation domain"</title>
				<rect class="PF00668" x="326" y="28" stroke-linejoin="round" width="42" height="24" fill="rgb(224,184,98)" stroke="rgb(179,147,78)" stroke-width="1" opacity="0.75" />
			</g>
			<g>
				<title>AMP-binding (PF00501)
"AMP-binding enzyme"</title>
				<rect class="PF00501" x="370" y="28" stroke-linejoin="round" width="38" height="24" fill="rgb(60,217,223)" stroke="rgb(48,173,178)" stroke-width="1" opacity="0.75" />
			</g>
			<g>
				<title>AMP-binding_C (PF13193)
"AMP-binding enzyme C-terminal domain"</title>
				<rect class="PF13193" x="409" y="28" stroke-linejoin="round" width="7" height="24" fill="rgb(182,50,118)" stroke="rgb(145,39,94)" stroke-width="1" opacity="0.75" />
			</g>
			<g>
				<title>PP-binding (PF00550)
"Phosphopantetheine attachment site"</title>
				<rect class="PF00550" x="419" y="28" stroke-linejoin="round" width="6" height="24" fill="rgb(103,191,88)" stroke="rgb(82,152,70)" stroke-width="1" opacity="0.75" />
			</g>
			<g>
				<title>NAD_binding_4 (PF07993)
"Male sterility protein"</title>
				<polygon class="PF07993" points="430,28 448,28 453,33 453,47 448,52 430,52" stroke-linejoin="round" width="23" height="24" fill="rgb(100,212,204)" stroke="rgb(80,169,163)" stroke-width="1" opacity="0.75" />
			</g>
		</g>
		<g>
			<title>sfp (MHLOJDLD_01681)
4'-phosphopantetheinyl transferase sfp</title>
			<polygon class="sfp (MHLOJDLD_01681)
4'-phosphopantetheinyl transferase sfp" points="465,10 485,40 465,70" fill="rgb(255,255,255)" fill-opacity="1.0" stroke="rgb(0,0,0)" stroke-width="2"  />
			<g>
				<title>ACPS (PF01648)
"4'-phosphopantetheinyl transferase superfamily"</title>
				<polygon class="PF01648" points="475,30 482,40 475,50" stroke-linejoin="round" width="9" height="24" fill="rgb(85,184,135)" stroke="rgb(68,147,108)" stroke-width="1" opacity="0.75" />
			</g>
		</g>
		<g>
			<title>lipA_2 (MHLOJDLD_01682)
Lipase 1</title>
			<polygon class="lipA_2 (MHLOJDLD_01682)
Lipase 1" points="498,25 545,25 545,10 575,40 545,70 545,55 498,55" fill="rgb(255,255,255)" fill-opacity="1.0" stroke="rgb(0,0,0)" stroke-width="2"  />
			<g>
				<title>YSIRK_signal (PF04650)
"YSIRK type signal peptide"</title>
				<rect class="PF04650" x="498" y="28" stroke-linejoin="round" width="2" height="24" fill="rgb(74,138,184)" stroke="rgb(59,110,147)" stroke-width="1" opacity="0.75" />
			</g>
		</g>
		<g>
			<title>csbC (MHLOJDLD_01683)
putative metabolite transport protein CsbC</title>
			<polygon class="csbC (MHLOJDLD_01683)
putative metabolite transport protein CsbC" points="583,25 597,25 597,10 627,40 597,70 597,55 583,55" fill="rgb(255,255,255)" fill-opacity="1.0" stroke="rgb(0,0,0)" stroke-width="2"  />
			<g>
				<title>Sugar_tr (PF00083)
"Sugar (and other) transporter"</title>
				<polygon class="PF00083" points="583,28 611,28 623,40 611,52 583,52" stroke-linejoin="round" width="42" height="24" fill="rgb(48,186,105)" stroke="rgb(38,148,84)" stroke-width="1" opacity="0.75" />
			</g>
		</g>
		<g>
			<title>MHLOJDLD_01684_gene (MHLOJDLD_01684)
hypothetical protein</title>
			<polygon class="MHLOJDLD_01684_gene (MHLOJDLD_01684)
hypothetical protein" points="633,25 660,25 660,10 690,40 660,70 660,55 633,55" fill="rgb(255,255,255)" fill-opacity="1.0" stroke="rgb(0,0,0)" stroke-width="2"  />
			<g>
				<title>ABC_ATPase (PF09818)
"Predicted ATPase of the ABC class"</title>
				<polygon class="PF09818" points="633,28 673,28 677,32 677,48 673,52 633,52" stroke-linejoin="round" width="44" height="24" fill="rgb(224,114,112)" stroke="rgb(179,91,89)" stroke-width="1" opacity="0.75" />
			</g>
		</g>
		<g>
			<title>MHLOJDLD_01685_gene (MHLOJDLD_01685)
KsdD-like steroid dehydrogenase</title>
			<polygon class="MHLOJDLD_01685_gene (MHLOJDLD_01685)
KsdD-like steroid dehydrogenase" points="753,25 728,25 728,10 698,40 728,70 728,55 753,55" fill="rgb(255,255,255)" fill-opacity="1.0" stroke="rgb(0,0,0)" stroke-width="2"  />
			<g>
				<title>FAD_binding_2 (PF00890)
"FAD binding domain"</title>
				<polygon class="PF00890" points="702,40 714,28 752,28 752,52 714,52" stroke-linejoin="round" width="52" height="24" fill="rgb(63,199,116)" stroke="rgb(50,159,92)" stroke-width="1" opacity="0.75" />
			</g>
		</g>
		<g>
			<title>slyA (MHLOJDLD_01686)
Transcriptional regulator SlyA</title>
			<polygon class="slyA (MHLOJDLD_01686)
Transcriptional regulator SlyA" points="761,10 775,40 761,70" fill="rgb(255,255,255)" fill-opacity="1.0" stroke="rgb(0,0,0)" stroke-width="2"  />
			<g>
				<title>HTH_27 (PF13463)
"Winged helix DNA-binding domain"</title>
				<polygon class="PF13463" points="764,28 765,28 771,39 771,41 765,52 764,52" stroke-linejoin="round" width="7" height="24" fill="rgb(130,111,228)" stroke="rgb(103,88,182)" stroke-width="1" opacity="0.75" />
			</g>
		</g>
		<g>
			<title>MHLOJDLD_01687_gene (MHLOJDLD_01687)
hypothetical protein</title>
			<polygon class="MHLOJDLD_01687_gene (MHLOJDLD_01687)
hypothetical protein" points="776,10 792,40 776,70" fill="rgb(255,255,255)" fill-opacity="1.0" stroke="rgb(0,0,0)" stroke-width="2"  />
			<g>
				<title>MepB (PF08877)
"MepB protein"</title>
				<polygon class="PF08877" points="778,28 782,28 788,40 782,52 778,52" stroke-linejoin="round" width="12" height="24" fill="rgb(183,87,168)" stroke="rgb(146,69,134)" stroke-width="1" opacity="0.75" />
			</g>
		</g>
		<g>
			<title>pbuE_1 (MHLOJDLD_01688)
Purine efflux pump PbuE</title>
			<polygon class="pbuE_1 (MHLOJDLD_01688)
Purine efflux pump PbuE" points="831,25 823,25 823,10 793,40 823,70 823,55 831,55" fill="rgb(255,255,255)" fill-opacity="1.0" stroke="rgb(0,0,0)" stroke-width="2"  />
			<g>
				<title>MFS_1 (PF07690)
"Major Facilitator Superfamily"</title>
				<polygon class="PF07690" points="797,40 809,28 830,28 830,52 809,52 797,40" stroke-linejoin="round" width="33" height="24" fill="rgb(193,224,74)" stroke="rgb(154,179,59)" stroke-width="1" opacity="0.75" />
			</g>
		</g>
		<g>
			<title>ampR (MHLOJDLD_01689)
HTH-type transcriptional activator AmpR</title>
			<polygon class="ampR (MHLOJDLD_01689)
HTH-type transcriptional activator AmpR" points="835,10 862,40 835,70" fill="rgb(255,255,255)" fill-opacity="1.0" stroke="rgb(0,0,0)" stroke-width="2"  />
			<g>
				<title>HTH_1 (PF00126)
"Bacterial regulatory helix-turn-helix protein, lysR family"</title>
				<rect class="PF00126" x="835" y="28" stroke-linejoin="round" width="5" height="24" fill="rgb(125,227,79)" stroke="rgb(99,181,63)" stroke-width="1" opacity="0.75" />
			</g>
		</g>
		<g>
			<title>yfiT (MHLOJDLD_01690)
Putative metal-dependent hydrolase YfiT</title>
			<polygon class="yfiT (MHLOJDLD_01690)
Putative metal-dependent hydrolase YfiT" points="867,10 884,40 867,70" fill="rgb(255,255,255)" fill-opacity="1.0" stroke="rgb(0,0,0)" stroke-width="2"  />
			<g>
				<title>DinB_2 (PF12867)
"DinB superfamily"</title>
				<polygon class="PF12867" points="869,28 873,28 880,40 873,52 869,52" stroke-linejoin="round" width="13" height="24" fill="rgb(184,90,185)" stroke="rgb(147,72,148)" stroke-width="1" opacity="0.75" />
			</g>
		</g>
		<g>
			<title>MHLOJDLD_01691_gene (MHLOJDLD_01691)
hypothetical protein</title>
			<polygon class="MHLOJDLD_01691_gene (MHLOJDLD_01691)
hypothetical protein" points="891,25 894,25 894,10 924,40 894,70 894,55 891,55" fill="rgb(255,255,255)" fill-opacity="1.0" stroke="rgb(0,0,0)" stroke-width="2"  />
			<g>
				<title>DUF418 (PF04235)
"Protein of unknown function (DUF418)"</title>
				<polygon class="PF04235" points="908,29 919,40 908,51" stroke-linejoin="round" width="15" height="24" fill="rgb(90,202,54)" stroke="rgb(72,161,43)" stroke-width="1" opacity="0.75" />
			</g>
		</g>
		<g>
			<title>MHLOJDLD_01692_gene (MHLOJDLD_01692)
hypothetical protein</title>
			<polygon class="MHLOJDLD_01692_gene (MHLOJDLD_01692)
hypothetical protein" points="928,10 935,40 928,70" fill="rgb(255,255,255)" fill-opacity="1.0" stroke="rgb(0,0,0)" stroke-width="2"  />
			<g>
				<title>zinc_ribbon_13 (PF09855)
"Nucleic-acid-binding protein containing Zn-ribbon domain (DUF2082)"</title>
				<polygon class="PF09855" points="928,28 928,28 931,40 928,52 928,52" stroke-linejoin="round" width="6" height="24" fill="rgb(162,223,70)" stroke="rgb(129,178,56)" stroke-width="1" opacity="0.75" />
			</g>
		</g>
		<g>
			<title>MHLOJDLD_01693_gene (MHLOJDLD_01693)
hypothetical protein</title>
			<polygon class="MHLOJDLD_01693_gene (MHLOJDLD_01693)
hypothetical protein" points="940,25 940,25 940,10 970,40 940,70 940,55 940,55" fill="rgb(255,255,255)" fill-opacity="1.0" stroke="rgb(0,0,0)" stroke-width="2"  />
			<g>
				<title>EamA (PF00892)
"EamA-like transporter family"</title>
				<polygon class="PF00892" points="940,28 953,28 954,29 954,51 953,52 940,52" stroke-linejoin="round" width="14" height="24" fill="rgb(105,217,77)" stroke="rgb(84,173,61)" stroke-width="1" opacity="0.75" />
			</g>
			<g>
				<title>EamA (PF00892)
"EamA-like transporter family"</title>
				<polygon class="PF00892" points="955,30 965,40 955,50" stroke-linejoin="round" width="13" height="24" fill="rgb(105,217,77)" stroke="rgb(84,173,61)" stroke-width="1" opacity="0.75" />
			</g>
		</g>
		<g>
			<title>yflS (MHLOJDLD_01694)
Putative malate transporter YflS</title>
			<polygon class="yflS (MHLOJDLD_01694)
Putative malate transporter YflS" points="1020,25 1003,25 1003,10 973,40 1003,70 1003,55 1020,55" fill="rgb(255,255,255)" fill-opacity="1.0" stroke="rgb(0,0,0)" stroke-width="2"  />
			<g>
				<title>Na_sulph_symp (PF00939)
"Sodium:sulfate symporter transmembrane region"</title>
				<polygon class="PF00939" points="977,40 989,28 1019,28 1019,52 989,52" stroke-linejoin="round" width="46" height="24" fill="rgb(94,204,141)" stroke="rgb(75,163,112)" stroke-width="1" opacity="0.75" />
			</g>
		</g>
		<g>
			<title>MHLOJDLD_01695_gene (MHLOJDLD_01695)
hypothetical protein</title>
			<polygon class="MHLOJDLD_01695_gene (MHLOJDLD_01695)
hypothetical protein" points="1026,40 1041,10 1041,70" fill="rgb(255,255,255)" fill-opacity="1.0" stroke="rgb(0,0,0)" stroke-width="2"  />
		</g>
		<g>
			<title>MHLOJDLD_01696_gene (MHLOJDLD_01696)
hypothetical protein</title>
			<polygon class="MHLOJDLD_01696_gene (MHLOJDLD_01696)
hypothetical protein" points="1047,10 1066,40 1047,70" fill="rgb(255,255,255)" fill-opacity="1.0" stroke="rgb(0,0,0)" stroke-width="2"  />
		</g>
		<g>
			<title>pcp (MHLOJDLD_01697)
Pyrrolidone-carboxylate peptidase</title>
			<polygon class="pcp (MHLOJDLD_01697)
Pyrrolidone-carboxylate peptidase" points="1072,40 1093,10 1093,70" fill="rgb(255,255,255)" fill-opacity="1.0" stroke="rgb(0,0,0)" stroke-width="2"  />
			<g>
				<title>Peptidase_C15 (PF01470)
"Pyroglutamyl peptidase"</title>
				<polygon class="PF01470" points="1076,40 1085,28 1093,28 1093,52 1085,52" stroke-linejoin="round" width="20" height="24" fill="rgb(213,151,77)" stroke="rgb(170,120,61)" stroke-width="1" opacity="0.75" />
			</g>
		</g>
		<g>
			<title>glpE_2 (MHLOJDLD_01698)
Thiosulfate sulfurtransferase GlpE</title>
			<polygon class="glpE_2 (MHLOJDLD_01698)
Thiosulfate sulfurtransferase GlpE" points="1129,25 1127,25 1127,10 1097,40 1127,70 1127,55 1129,55" fill="rgb(255,255,255)" fill-opacity="1.0" stroke="rgb(0,0,0)" stroke-width="2"  />
			<g>
				<title>Rhodanese_C (PF12368)
"Rhodanase C-terminal"</title>
				<polygon class="PF12368" points="1101,40 1106,35 1106,45" stroke-linejoin="round" width="6" height="24" fill="rgb(224,104,148)" stroke="rgb(179,83,118)" stroke-width="1" opacity="0.75" />
			</g>
			<g>
				<title>Rhodanese (PF00581)
"Rhodanese-like domain"</title>
				<polygon class="PF00581" points="1108,33 1113,28 1117,28 1117,52 1113,52 1108,47" stroke-linejoin="round" width="9" height="24" fill="rgb(145,191,76)" stroke="rgb(116,152,60)" stroke-width="1" opacity="0.75" />
			</g>
			<g>
				<title>UPF0176_N (PF17773)
"UPF0176 acylphosphatase like domain"</title>
				<rect class="PF17773" x="1119" y="28" stroke-linejoin="round" width="9" height="24" fill="rgb(73,125,224)" stroke="rgb(58,99,179)" stroke-width="1" opacity="0.75" />
			</g>
		</g>
	</g>
</svg>
