<svg version="1.1" baseProfile="full" xmlns="http://www.w3.org/2000/svg" width="710.2666666666667" height="80">
	<g>
		<line x1="10" y1="40.0" x2="353.1333333333333" y2="40.0" style="stroke:rgb(70,70,70); stroke-width:3 "/>
		<g>
			<title>IJOLGDCI_01702_gene (IJOLGDCI_01702)
hypothetical protein</title>
			<polygon class="IJOLGDCI_01702_gene (IJOLGDCI_01702)
hypothetical protein" points="27,40 45,10 45,70" fill="rgb(255,255,255)" fill-opacity="1.0" stroke="rgb(0,0,0)" stroke-width="2"  />
		</g>
		<g>
			<title>pre_1 (IJOLGDCI_01703)
Plasmid recombination enzyme</title>
			<polygon class="pre_1 (IJOLGDCI_01703)
Plasmid recombination enzyme" points="49,40 59,10 59,70" fill="rgb(255,255,255)" fill-opacity="1.0" stroke="rgb(0,0,0)" stroke-width="2"  />
			<g>
				<title>Mob_Pre (PF01076)
"Plasmid recombination enzyme"</title>
				<polygon class="PF01076" points="52,40 56,28 58,28 58,52 56,52" stroke-linejoin="round" width="8" height="24" fill="rgb(51,103,188)" stroke="rgb(40,82,150)" stroke-width="1" opacity="0.75" />
			</g>
		</g>
		<g>
			<title>pre_2 (IJOLGDCI_01704)
Plasmid recombination enzyme</title>
			<polygon class="pre_2 (IJOLGDCI_01704)
Plasmid recombination enzyme" points="59,40 69,10 69,70" fill="rgb(255,255,255)" fill-opacity="1.0" stroke="rgb(0,0,0)" stroke-width="2"  />
			<g>
				<title>Mob_Pre (PF01076)
"Plasmid recombination enzyme"</title>
				<polygon class="PF01076" points="62,40 66,28 69,28 69,52 66,52" stroke-linejoin="round" width="10" height="24" fill="rgb(51,103,188)" stroke="rgb(40,82,150)" stroke-width="1" opacity="0.75" />
			</g>
		</g>
		<g>
			<title>IJOLGDCI_01705_gene (IJOLGDCI_01705)
putative ABC transporter ATP-binding protein</title>
			<polygon class="IJOLGDCI_01705_gene (IJOLGDCI_01705)
putative ABC transporter ATP-binding protein" points="77,40 97,10 97,70" fill="rgb(255,255,255)" fill-opacity="1.0" stroke="rgb(0,0,0)" stroke-width="2"  />
			<g>
				<title>ABC_tran (PF00005)
"ABC transporter"</title>
				<polygon class="PF00005" points="81,40 89,28 95,28 95,52 89,52 81,40" stroke-linejoin="round" width="14" height="24" fill="rgb(129,201,63)" stroke="rgb(103,160,50)" stroke-width="1" opacity="0.75" />
			</g>
		</g>
		<g>
			<title>IJOLGDCI_01706_gene (IJOLGDCI_01706)
hypothetical protein</title>
			<polygon class="IJOLGDCI_01706_gene (IJOLGDCI_01706)
hypothetical protein" points="99,40 109,10 109,70" fill="rgb(255,255,255)" fill-opacity="1.0" stroke="rgb(0,0,0)" stroke-width="2"  />
		</g>
		<g>
			<title>IJOLGDCI_01707_gene (IJOLGDCI_01707)
hypothetical protein</title>
			<polygon class="IJOLGDCI_01707_gene (IJOLGDCI_01707)
hypothetical protein" points="173,25 139,25 139,10 109,40 139,70 139,55 173,55" fill="rgb(255,255,255)" fill-opacity="1.0" stroke="rgb(0,0,0)" stroke-width="2"  />
			<g>
				<title>DUF1430 (PF07242)
"Protein of unknown function (DUF1430)"</title>
				<polygon class="PF07242" points="113,40 118,35 118,45" stroke-linejoin="round" width="9" height="24" fill="rgb(183,55,187)" stroke="rgb(146,44,149)" stroke-width="1" opacity="0.75" />
			</g>
		</g>
		<g>
			<title>IJOLGDCI_01708_gene (IJOLGDCI_01708)
hypothetical protein</title>
			<polygon class="IJOLGDCI_01708_gene (IJOLGDCI_01708)
hypothetical protein" points="176,40 185,10 185,70" fill="rgb(255,255,255)" fill-opacity="1.0" stroke="rgb(0,0,0)" stroke-width="2"  />
			<g>
				<title>Lactococcin_972 (PF09683)
"Bacteriocin (Lactococcin_972)"</title>
				<polygon class="PF09683" points="179,40 182,31 182,49" stroke-linejoin="round" width="6" height="24" fill="rgb(202,100,222)" stroke="rgb(161,80,177)" stroke-width="1" opacity="0.75" />
			</g>
		</g>
		<g>
			<title>bin3 (IJOLGDCI_01709)
Putative transposon Tn552 DNA-invertase bin3</title>
			<polygon class="bin3 (IJOLGDCI_01709)
Putative transposon Tn552 DNA-invertase bin3" points="200,40 217,10 217,70" fill="rgb(255,255,255)" fill-opacity="1.0" stroke="rgb(0,0,0)" stroke-width="2"  />
			<g>
				<title>HTH_7 (PF02796)
"Helix-turn-helix domain of resolvase"</title>
				<polygon class="PF02796" points="203,40 205,37 205,43" stroke-linejoin="round" width="5" height="24" fill="rgb(223,208,93)" stroke="rgb(178,166,74)" stroke-width="1" opacity="0.75" />
			</g>
			<g>
				<title>Resolvase (PF00239)
"Resolvase, N terminal domain"</title>
				<polygon class="PF00239" points="210,28 210,28 217,28 217,52 210,52 210,52" stroke-linejoin="round" width="7" height="24" fill="rgb(99,177,201)" stroke="rgb(79,141,160)" stroke-width="1" opacity="0.75" />
			</g>
		</g>
		<g>
			<title>blaZ (IJOLGDCI_01710)
Beta-lactamase</title>
			<polygon class="blaZ (IJOLGDCI_01710)
Beta-lactamase" points="230,40 258,10 258,70" fill="rgb(255,255,255)" fill-opacity="1.0" stroke="rgb(0,0,0)" stroke-width="2"  />
			<g>
				<title>Beta-lactamase2 (PF13354)
"Beta-lactamase enzyme family"</title>
				<polygon class="PF13354" points="234,40 245,28 252,28 252,52 245,52" stroke-linejoin="round" width="20" height="24" fill="rgb(72,61,190)" stroke="rgb(57,48,152)" stroke-width="1" opacity="0.75" />
			</g>
		</g>
		<g>
			<title>blaR1 (IJOLGDCI_01711)
Regulatory protein BlaR1</title>
			<polygon class="blaR1 (IJOLGDCI_01711)
Regulatory protein BlaR1" points="262,25 290,25 290,10 320,40 290,70 290,55 262,55" fill="rgb(255,255,255)" fill-opacity="1.0" stroke="rgb(0,0,0)" stroke-width="2"  />
			<g>
				<title>Peptidase_M56 (PF05569)
"BlaR1 peptidase M56"</title>
				<rect class="PF05569" x="262" y="28" stroke-linejoin="round" width="29" height="24" fill="rgb(60,182,225)" stroke="rgb(48,145,180)" stroke-width="1" opacity="0.75" />
			</g>
			<g>
				<title>Transpeptidase (PF00905)
"Penicillin binding protein transpeptidase domain"</title>
				<polygon class="PF00905" points="297,28 304,28 316,40 304,52 297,52" stroke-linejoin="round" width="21" height="24" fill="rgb(161,226,87)" stroke="rgb(128,180,69)" stroke-width="1" opacity="0.75" />
			</g>
		</g>
		<g>
			<title>blaI (IJOLGDCI_01712)
Penicillinase repressor</title>
			<polygon class="blaI (IJOLGDCI_01712)
Penicillinase repressor" points="320,10 332,40 320,70" fill="rgb(255,255,255)" fill-opacity="1.0" stroke="rgb(0,0,0)" stroke-width="2"  />
			<g>
				<title>Penicillinase_R (PF03965)
"Penicillinase repressor"</title>
				<polygon class="PF03965" points="320,28 324,28 329,40 324,52 320,52" stroke-linejoin="round" width="11" height="24" fill="rgb(208,59,133)" stroke="rgb(166,47,106)" stroke-width="1" opacity="0.75" />
			</g>
		</g>
	</g>
</svg>
