<svg version="1.1" baseProfile="full" xmlns="http://www.w3.org/2000/svg" width="755.1" height="80">
	<g>
		<line x1="10" y1="40.0" x2="745.1" y2="40.0" style="stroke:rgb(70,70,70); stroke-width:3 "/>
		<g>
			<title>PHEHJLOB_01232_gene (PHEHJLOB_01232)
hypothetical protein</title>
			<polygon class="PHEHJLOB_01232_gene (PHEHJLOB_01232)
hypothetical protein" points="22,40 42,10 42,70" fill="rgb(255,255,255)" fill-opacity="1.0" stroke="rgb(0,0,0)" stroke-width="2"  />
			<g>
				<title>Sortase (PF04203)
"Sortase domain"</title>
				<polygon class="PF04203" points="26,40 34,28 34,28 34,52 34,52" stroke-linejoin="round" width="12" height="24" fill="rgb(213,184,62)" stroke="rgb(170,147,49)" stroke-width="1" opacity="0.75" />
			</g>
		</g>
		<g>
			<title>pitA_2 (PHEHJLOB_01233)
L-methionine sulfoximine/L-methionine sulfone acetyltransferase</title>
			<polygon class="pitA_2 (PHEHJLOB_01233)
L-methionine sulfoximine/L-methionine sulfone acetyltransferase" points="49,10 65,40 49,70" fill="rgb(255,255,255)" fill-opacity="1.0" stroke="rgb(0,0,0)" stroke-width="2"  />
			<g>
				<title>Acetyltransf_4 (PF13420)
"Acetyltransferase (GNAT) domain"</title>
				<polygon class="PF13420" points="49,28 55,28 61,40 55,52 49,52" stroke-linejoin="round" width="15" height="24" fill="rgb(162,66,181)" stroke="rgb(129,52,144)" stroke-width="1" opacity="0.75" />
			</g>
		</g>
		<g>
			<title>PHEHJLOB_01234_gene (PHEHJLOB_01234)
hypothetical protein</title>
			<polygon class="PHEHJLOB_01234_gene (PHEHJLOB_01234)
hypothetical protein" points="80,40 85,10 85,70" fill="rgb(255,255,255)" fill-opacity="1.0" stroke="rgb(0,0,0)" stroke-width="2"  />
		</g>
		<g>
			<title>sdhA (PHEHJLOB_01235)
L-serine dehydratase, alpha chain</title>
			<polygon class="sdhA (PHEHJLOB_01235)
L-serine dehydratase, alpha chain" points="122,25 122,25 122,10 92,40 122,70 122,55 122,55" fill="rgb(255,255,255)" fill-opacity="1.0" stroke="rgb(0,0,0)" stroke-width="2"  />
			<g>
				<title>SDH_alpha (PF03313)
"Serine dehydratase alpha chain"</title>
				<polygon class="PF03313" points="96,40 108,28 120,28 120,52 108,52" stroke-linejoin="round" width="26" height="24" fill="rgb(104,203,99)" stroke="rgb(83,162,79)" stroke-width="1" opacity="0.75" />
			</g>
		</g>
		<g>
			<title>sdhB (PHEHJLOB_01236)
L-serine dehydratase, beta chain</title>
			<polygon class="sdhB (PHEHJLOB_01236)
L-serine dehydratase, beta chain" points="123,40 145,10 145,70" fill="rgb(255,255,255)" fill-opacity="1.0" stroke="rgb(0,0,0)" stroke-width="2"  />
			<g>
				<title>SDH_beta (PF03315)
"Serine dehydratase beta chain"</title>
				<polygon class="PF03315" points="131,35 136,28 144,28 144,52 136,52 131,45" stroke-linejoin="round" width="13" height="24" fill="rgb(68,217,124)" stroke="rgb(54,173,99)" stroke-width="1" opacity="0.75" />
			</g>
		</g>
		<g>
			<title>PHEHJLOB_01237_gene (PHEHJLOB_01237)
hypothetical protein</title>
			<polygon class="PHEHJLOB_01237_gene (PHEHJLOB_01237)
hypothetical protein" points="179,25 175,25 175,10 145,40 175,70 175,55 179,55" fill="rgb(255,255,255)" fill-opacity="1.0" stroke="rgb(0,0,0)" stroke-width="2"  />
			<g>
				<title>PTS_EIIC_2 (PF13303)
"Phosphotransferase system, EIIC"</title>
				<polygon class="PF13303" points="149,40 161,28 176,28 176,52 161,52" stroke-linejoin="round" width="30" height="24" fill="rgb(100,202,191)" stroke="rgb(80,161,152)" stroke-width="1" opacity="0.75" />
			</g>
		</g>
		<g>
			<title>PHEHJLOB_01238_gene (PHEHJLOB_01238)
hypothetical protein</title>
			<polygon class="PHEHJLOB_01238_gene (PHEHJLOB_01238)
hypothetical protein" points="198,10 204,40 198,70" fill="rgb(255,255,255)" fill-opacity="1.0" stroke="rgb(0,0,0)" stroke-width="2"  />
		</g>
		<g>
			<title>yicL (PHEHJLOB_01239)
putative inner membrane transporter YicL</title>
			<polygon class="yicL (PHEHJLOB_01239)
putative inner membrane transporter YicL" points="210,25 212,25 212,10 242,40 212,70 212,55 210,55" fill="rgb(255,255,255)" fill-opacity="1.0" stroke="rgb(0,0,0)" stroke-width="2"  />
			<g>
				<title>EamA (PF00892)
"EamA-like transporter family"</title>
				<polygon class="PF00892" points="212,28 225,28 226,29 226,51 225,52 212,52" stroke-linejoin="round" width="14" height="24" fill="rgb(105,217,77)" stroke="rgb(84,173,61)" stroke-width="1" opacity="0.75" />
			</g>
			<g>
				<title>EamA (PF00892)
"EamA-like transporter family"</title>
				<polygon class="PF00892" points="227,30 237,40 227,50" stroke-linejoin="round" width="13" height="24" fill="rgb(105,217,77)" stroke="rgb(84,173,61)" stroke-width="1" opacity="0.75" />
			</g>
		</g>
		<g>
			<title>lipR (PHEHJLOB_01240)
Putative acetyl-hydrolase LipR</title>
			<polygon class="lipR (PHEHJLOB_01240)
Putative acetyl-hydrolase LipR" points="277,25 275,25 275,10 245,40 275,70 275,55 277,55" fill="rgb(255,255,255)" fill-opacity="1.0" stroke="rgb(0,0,0)" stroke-width="2"  />
			<g>
				<title>Abhydrolase_3 (PF07859)
"alpha/beta hydrolase fold"</title>
				<polygon class="PF07859" points="249,40 261,28 267,28 267,52 261,52" stroke-linejoin="round" width="20" height="24" fill="rgb(183,51,179)" stroke="rgb(146,40,143)" stroke-width="1" opacity="0.75" />
			</g>
		</g>
		<g>
			<title>PHEHJLOB_01241_gene (PHEHJLOB_01241)
hypothetical protein</title>
			<polygon class="PHEHJLOB_01241_gene (PHEHJLOB_01241)
hypothetical protein" points="282,40 293,10 293,70" fill="rgb(255,255,255)" fill-opacity="1.0" stroke="rgb(0,0,0)" stroke-width="2"  />
			<g>
				<title>Thioredoxin (PF00085)
"Thioredoxin"</title>
				<polygon class="PF00085" points="285,40 290,28 293,28 293,52 290,52" stroke-linejoin="round" width="10" height="24" fill="rgb(220,109,180)" stroke="rgb(176,87,144)" stroke-width="1" opacity="0.75" />
			</g>
		</g>
		<g>
			<title>PHEHJLOB_01242_gene (PHEHJLOB_01242)
Putative esterase</title>
			<polygon class="PHEHJLOB_01242_gene (PHEHJLOB_01242)
Putative esterase" points="295,40 308,10 308,70" fill="rgb(255,255,255)" fill-opacity="1.0" stroke="rgb(0,0,0)" stroke-width="2"  />
			<g>
				<title>4HBT_2 (PF13279)
"Thioesterase-like superfamily"</title>
				<polygon class="PF13279" points="298,40 303,28 306,28 306,52 303,52" stroke-linejoin="round" width="11" height="24" fill="rgb(213,114,82)" stroke="rgb(170,91,65)" stroke-width="1" opacity="0.75" />
			</g>
		</g>
		<g>
			<title>glcB (PHEHJLOB_01243)
PTS system glucoside-specific EIICBA component</title>
			<polygon class="glcB (PHEHJLOB_01243)
PTS system glucoside-specific EIICBA component" points="389,25 351,25 351,10 321,40 351,70 351,55 389,55" fill="rgb(255,255,255)" fill-opacity="1.0" stroke="rgb(0,0,0)" stroke-width="2"  />
			<g>
				<title>PTS_EIIA_1 (PF00358)
"phosphoenolpyruvate-dependent sugar phosphotransferase system, EIIA 1"</title>
				<polygon class="PF00358" points="325,40 335,30 335,50" stroke-linejoin="round" width="12" height="24" fill="rgb(125,49,194)" stroke="rgb(100,39,155)" stroke-width="1" opacity="0.75" />
			</g>
			<g>
				<title>PTS_EIIB (PF00367)
"phosphotransferase system, EIIB"</title>
				<rect class="PF00367" x="342" y="28" stroke-linejoin="round" width="3" height="24" fill="rgb(188,77,92)" stroke="rgb(150,61,73)" stroke-width="1" opacity="0.75" />
			</g>
			<g>
				<title>PTS_EIIC (PF02378)
"Phosphotransferase system, EIIC"</title>
				<rect class="PF02378" x="354" y="28" stroke-linejoin="round" width="34" height="24" fill="rgb(73,199,212)" stroke="rgb(58,159,169)" stroke-width="1" opacity="0.75" />
			</g>
		</g>
		<g>
			<title>ydaP (PHEHJLOB_01244)
Putative thiamine pyrophosphate-containing protein YdaP</title>
			<polygon class="ydaP (PHEHJLOB_01244)
Putative thiamine pyrophosphate-containing protein YdaP" points="458,25 430,25 430,10 400,40 430,70 430,55 458,55" fill="rgb(255,255,255)" fill-opacity="1.0" stroke="rgb(0,0,0)" stroke-width="2"  />
			<g>
				<title>TPP_enzyme_C (PF02775)
"Thiamine pyrophosphate enzyme, C-terminal TPP binding domain"</title>
				<polygon class="PF02775" points="405,39 416,28 419,28 419,52 416,52 405,41" stroke-linejoin="round" width="14" height="24" fill="rgb(156,179,45)" stroke="rgb(124,143,36)" stroke-width="1" opacity="0.75" />
			</g>
			<g>
				<title>TPP_enzyme_M (PF00205)
"Thiamine pyrophosphate enzyme, central domain"</title>
				<rect class="PF00205" x="425" y="28" stroke-linejoin="round" width="12" height="24" fill="rgb(149,194,69)" stroke="rgb(119,155,55)" stroke-width="1" opacity="0.75" />
			</g>
			<g>
				<title>TPP_enzyme_N (PF02776)
"Thiamine pyrophosphate enzyme, N-terminal TPP binding domain"</title>
				<rect class="PF02776" x="440" y="28" stroke-linejoin="round" width="17" height="24" fill="rgb(55,81,185)" stroke="rgb(44,64,148)" stroke-width="1" opacity="0.75" />
			</g>
		</g>
		<g>
			<title>cidB (PHEHJLOB_01245)
Holin-like protein CidB</title>
			<polygon class="cidB (PHEHJLOB_01245)
Holin-like protein CidB" points="460,40 483,10 483,70" fill="rgb(255,255,255)" fill-opacity="1.0" stroke="rgb(0,0,0)" stroke-width="2"  />
			<g>
				<title>LrgB (PF04172)
"LrgB-like family"</title>
				<polygon class="PF04172" points="464,40 473,28 481,28 481,52 473,52" stroke-linejoin="round" width="21" height="24" fill="rgb(57,227,179)" stroke="rgb(45,181,143)" stroke-width="1" opacity="0.75" />
			</g>
		</g>
		<g>
			<title>cidA (PHEHJLOB_01246)
Holin-like protein CidA</title>
			<polygon class="cidA (PHEHJLOB_01246)
Holin-like protein CidA" points="482,40 495,10 495,70" fill="rgb(255,255,255)" fill-opacity="1.0" stroke="rgb(0,0,0)" stroke-width="2"  />
			<g>
				<title>LrgA (PF03788)
"LrgA family"</title>
				<polygon class="PF03788" points="485,40 490,28 492,28 492,52 490,52" stroke-linejoin="round" width="9" height="24" fill="rgb(51,191,185)" stroke="rgb(40,152,148)" stroke-width="1" opacity="0.75" />
			</g>
		</g>
		<g>
			<title>cynR_1 (PHEHJLOB_01247)
HTH-type transcriptional regulator CynR</title>
			<polygon class="cynR_1 (PHEHJLOB_01247)
HTH-type transcriptional regulator CynR" points="503,40 531,10 531,70" fill="rgb(255,255,255)" fill-opacity="1.0" stroke="rgb(0,0,0)" stroke-width="2"  />
			<g>
				<title>LysR_substrate (PF03466)
"LysR substrate binding domain"</title>
				<polygon class="PF03466" points="507,40 519,28 523,28 523,52 519,52" stroke-linejoin="round" width="20" height="24" fill="rgb(55,136,195)" stroke="rgb(44,108,156)" stroke-width="1" opacity="0.75" />
			</g>
			<g>
				<title>HTH_1 (PF00126)
"Bacterial regulatory helix-turn-helix protein, lysR family"</title>
				<rect class="PF00126" x="526" y="28" stroke-linejoin="round" width="5" height="24" fill="rgb(125,227,79)" stroke="rgb(99,181,63)" stroke-width="1" opacity="0.75" />
			</g>
		</g>
		<g>
			<title>PHEHJLOB_01248_gene (PHEHJLOB_01248)
hypothetical protein</title>
			<polygon class="PHEHJLOB_01248_gene (PHEHJLOB_01248)
hypothetical protein" points="537,10 544,40 537,70" fill="rgb(255,255,255)" fill-opacity="1.0" stroke="rgb(0,0,0)" stroke-width="2"  />
			<g>
				<title>YozE_SAM_like (PF06855)
"YozE SAM-like fold"</title>
				<polygon class="PF06855" points="537,28 537,28 541,40 537,52 537,52" stroke-linejoin="round" width="6" height="24" fill="rgb(83,201,171)" stroke="rgb(66,160,136)" stroke-width="1" opacity="0.75" />
			</g>
		</g>
		<g>
			<title>ssaA2_1 (PHEHJLOB_01249)
Staphylococcal secretory antigen ssaA2</title>
			<polygon class="ssaA2_1 (PHEHJLOB_01249)
Staphylococcal secretory antigen ssaA2" points="558,10 572,40 558,70" fill="rgb(255,255,255)" fill-opacity="1.0" stroke="rgb(0,0,0)" stroke-width="2"  />
			<g>
				<title>CHAP (PF05257)
"CHAP domain"</title>
				<polygon class="PF05257" points="561,28 563,28 569,40 569,40 563,52 561,52" stroke-linejoin="round" width="8" height="24" fill="rgb(54,187,84)" stroke="rgb(43,149,67)" stroke-width="1" opacity="0.75" />
			</g>
		</g>
		<g>
			<title>PHEHJLOB_01250_gene (PHEHJLOB_01250)
hypothetical protein</title>
			<polygon class="PHEHJLOB_01250_gene (PHEHJLOB_01250)
hypothetical protein" points="597,40 605,10 605,70" fill="rgb(255,255,255)" fill-opacity="1.0" stroke="rgb(0,0,0)" stroke-width="2"  />
		</g>
		<g>
			<title>mvaA (PHEHJLOB_01251)
3-hydroxy-3-methylglutaryl-coenzyme A reductase</title>
			<polygon class="mvaA (PHEHJLOB_01251)
3-hydroxy-3-methylglutaryl-coenzyme A reductase" points="667,25 655,25 655,10 625,40 655,70 655,55 667,55" fill="rgb(255,255,255)" fill-opacity="1.0" stroke="rgb(0,0,0)" stroke-width="2"  />
			<g>
				<title>HMG-CoA_red (PF00368)
"Hydroxymethylglutaryl-coenzyme A reductase"</title>
				<polygon class="PF00368" points="629,40 641,28 666,28 666,52 641,52 629,40" stroke-linejoin="round" width="37" height="24" fill="rgb(67,203,137)" stroke="rgb(53,162,109)" stroke-width="1" opacity="0.75" />
			</g>
		</g>
		<g>
			<title>mvaS (PHEHJLOB_01252)
Hydroxymethylglutaryl-CoA synthase</title>
			<polygon class="mvaS (PHEHJLOB_01252)
Hydroxymethylglutaryl-CoA synthase" points="676,25 684,25 684,10 714,40 684,70 684,55 676,55" fill="rgb(255,255,255)" fill-opacity="1.0" stroke="rgb(0,0,0)" stroke-width="2"  />
			<g>
				<title>HMG_CoA_synt_N (PF01154)
"Hydroxymethylglutaryl-coenzyme A synthase N terminal"</title>
				<rect class="PF01154" x="676" y="28" stroke-linejoin="round" width="16" height="24" fill="rgb(88,216,218)" stroke="rgb(70,172,174)" stroke-width="1" opacity="0.75" />
			</g>
			<g>
				<title>HMG_CoA_synt_C (PF08540)
"Hydroxymethylglutaryl-coenzyme A synthase C terminal"</title>
				<polygon class="PF08540" points="701,31 710,40 701,49" stroke-linejoin="round" width="13" height="24" fill="rgb(49,194,86)" stroke="rgb(39,155,68)" stroke-width="1" opacity="0.75" />
			</g>
		</g>
		<g>
			<title>ogt (PHEHJLOB_01253)
Methylated-DNA--protein-cysteine methyltransferase</title>
			<polygon class="ogt (PHEHJLOB_01253)
Methylated-DNA--protein-cysteine methyltransferase" points="721,40 738,10 738,70" fill="rgb(255,255,255)" fill-opacity="1.0" stroke="rgb(0,0,0)" stroke-width="2"  />
			<g>
				<title>DNA_binding_1 (PF01035)
"6-O-methylguanine DNA methyltransferase, DNA binding domain"</title>
				<polygon class="PF01035" points="724,40 730,30 730,50" stroke-linejoin="round" width="8" height="24" fill="rgb(79,155,220)" stroke="rgb(63,123,176)" stroke-width="1" opacity="0.75" />
			</g>
			<g>
				<title>Methyltransf_1N (PF02870)
"6-O-methylguanine DNA methyltransferase, ribonuclease-like domain"</title>
				<polygon class="PF02870" points="731,28 731,28 737,28 737,52 731,52 731,52" stroke-linejoin="round" width="6" height="24" fill="rgb(96,209,110)" stroke="rgb(76,167,88)" stroke-width="1" opacity="0.75" />
			</g>
		</g>
	</g>
</svg>
