<svg version="1.1" baseProfile="full" xmlns="http://www.w3.org/2000/svg" width="218.06666666666666" height="80">
	<g>
		<line x1="10" y1="40.0" x2="208.06666666666666" y2="40.0" style="stroke:rgb(70,70,70); stroke-width:3 "/>
		<g>
			<title>cynR_2 (ONKOLKPD_02111)
HTH-type transcriptional regulator CynR</title>
			<polygon class="cynR_2 (ONKOLKPD_02111)
HTH-type transcriptional regulator CynR" points="16,40 45,10 45,70" fill="rgb(255,255,255)" fill-opacity="1.0" stroke="rgb(0,0,0)" stroke-width="2"  />
			<g>
				<title>LysR_substrate (PF03466)
"LysR substrate binding domain"</title>
				<polygon class="PF03466" points="20,40 32,28 36,28 36,52 32,52" stroke-linejoin="round" width="20" height="24" fill="rgb(55,136,195)" stroke="rgb(44,108,156)" stroke-width="1" opacity="0.75" />
			</g>
			<g>
				<title>HTH_1 (PF00126)
"Bacterial regulatory helix-turn-helix protein, lysR family"</title>
				<rect class="PF00126" x="39" y="28" stroke-linejoin="round" width="5" height="24" fill="rgb(125,227,79)" stroke="rgb(99,181,63)" stroke-width="1" opacity="0.75" />
			</g>
		</g>
		<g>
			<title>ONKOLKPD_02112_gene (ONKOLKPD_02112)
hypothetical protein</title>
			<polygon class="ONKOLKPD_02112_gene (ONKOLKPD_02112)
hypothetical protein" points="52,10 59,40 52,70" fill="rgb(255,255,255)" fill-opacity="1.0" stroke="rgb(0,0,0)" stroke-width="2"  />
			<g>
				<title>YozE_SAM_like (PF06855)
"YozE SAM-like fold"</title>
				<polygon class="PF06855" points="52,28 52,28 56,40 52,52 52,52" stroke-linejoin="round" width="6" height="24" fill="rgb(83,201,171)" stroke="rgb(66,160,136)" stroke-width="1" opacity="0.75" />
			</g>
		</g>
		<g>
			<title>ssaA_2 (ONKOLKPD_02113)
Staphylococcal secretory antigen SsaA</title>
			<polygon class="ssaA_2 (ONKOLKPD_02113)
Staphylococcal secretory antigen SsaA" points="67,10 81,40 67,70" fill="rgb(255,255,255)" fill-opacity="1.0" stroke="rgb(0,0,0)" stroke-width="2"  />
			<g>
				<title>CHAP (PF05257)
"CHAP domain"</title>
				<polygon class="PF05257" points="70,28 72,28 78,40 78,40 72,52 70,52" stroke-linejoin="round" width="8" height="24" fill="rgb(54,187,84)" stroke="rgb(43,149,67)" stroke-width="1" opacity="0.75" />
			</g>
		</g>
		<g>
			<title>mvaA (ONKOLKPD_02114)
3-hydroxy-3-methylglutaryl-coenzyme A reductase</title>
			<polygon class="mvaA (ONKOLKPD_02114)
3-hydroxy-3-methylglutaryl-coenzyme A reductase" points="127,25 115,25 115,10 85,40 115,70 115,55 127,55" fill="rgb(255,255,255)" fill-opacity="1.0" stroke="rgb(0,0,0)" stroke-width="2"  />
			<g>
				<title>HMG-CoA_red (PF00368)
"Hydroxymethylglutaryl-coenzyme A reductase"</title>
				<polygon class="PF00368" points="89,40 101,28 126,28 126,52 101,52 89,40" stroke-linejoin="round" width="37" height="24" fill="rgb(67,203,137)" stroke="rgb(53,162,109)" stroke-width="1" opacity="0.75" />
			</g>
		</g>
		<g>
			<title>mvaS (ONKOLKPD_02115)
Hydroxymethylglutaryl-CoA synthase</title>
			<polygon class="mvaS (ONKOLKPD_02115)
Hydroxymethylglutaryl-CoA synthase" points="135,25 143,25 143,10 173,40 143,70 143,55 135,55" fill="rgb(255,255,255)" fill-opacity="1.0" stroke="rgb(0,0,0)" stroke-width="2"  />
			<g>
				<title>HMG_CoA_synt_N (PF01154)
"Hydroxymethylglutaryl-coenzyme A synthase N terminal"</title>
				<rect class="PF01154" x="135" y="28" stroke-linejoin="round" width="16" height="24" fill="rgb(88,216,218)" stroke="rgb(70,172,174)" stroke-width="1" opacity="0.75" />
			</g>
			<g>
				<title>HMG_CoA_synt_C (PF08540)
"Hydroxymethylglutaryl-coenzyme A synthase C terminal"</title>
				<polygon class="PF08540" points="159,30 169,40 159,50" stroke-linejoin="round" width="14" height="24" fill="rgb(49,194,86)" stroke="rgb(39,155,68)" stroke-width="1" opacity="0.75" />
			</g>
		</g>
		<g>
			<title>ogt (ONKOLKPD_02116)
Methylated-DNA--protein-cysteine methyltransferase</title>
			<polygon class="ogt (ONKOLKPD_02116)
Methylated-DNA--protein-cysteine methyltransferase" points="176,40 193,10 193,70" fill="rgb(255,255,255)" fill-opacity="1.0" stroke="rgb(0,0,0)" stroke-width="2"  />
			<g>
				<title>DNA_binding_1 (PF01035)
"6-O-methylguanine DNA methyltransferase, DNA binding domain"</title>
				<polygon class="PF01035" points="179,40 185,30 185,50" stroke-linejoin="round" width="8" height="24" fill="rgb(79,155,220)" stroke="rgb(63,123,176)" stroke-width="1" opacity="0.75" />
			</g>
			<g>
				<title>Methyltransf_1N (PF02870)
"6-O-methylguanine DNA methyltransferase, ribonuclease-like domain"</title>
				<polygon class="PF02870" points="186,28 186,28 192,28 192,52 186,52 186,52" stroke-linejoin="round" width="6" height="24" fill="rgb(96,209,110)" stroke="rgb(76,167,88)" stroke-width="1" opacity="0.75" />
			</g>
		</g>
		<g>
			<title>ONKOLKPD_02117_gene (ONKOLKPD_02117)
hypothetical protein</title>
			<polygon class="ONKOLKPD_02117_gene (ONKOLKPD_02117)
hypothetical protein" points="196,10 206,40 196,70" fill="rgb(255,255,255)" fill-opacity="1.0" stroke="rgb(0,0,0)" stroke-width="2"  />
			<g>
				<title>YrhK (PF14145)
"YrhK-like protein"</title>
				<polygon class="PF14145" points="199,28 203,40 199,52" stroke-linejoin="round" width="5" height="24" fill="rgb(102,190,225)" stroke="rgb(81,152,180)" stroke-width="1" opacity="0.75" />
			</g>
		</g>
	</g>
</svg>
