<svg version="1.1" baseProfile="full" xmlns="http://www.w3.org/2000/svg" width="117.26666666666667" height="80">
	<g>
		<line x1="10" y1="40.0" x2="107.26666666666667" y2="40.0" style="stroke:rgb(70,70,70); stroke-width:3 "/>
		<g>
			<title>GFBPJCFC_02053_gene (GFBPJCFC_02053)
hypothetical protein</title>
			<polygon class="GFBPJCFC_02053_gene (GFBPJCFC_02053)
hypothetical protein" points="14,10 26,40 14,70" fill="rgb(255,255,255)" fill-opacity="1.0" stroke="rgb(0,0,0)" stroke-width="2"  />
		</g>
		<g>
			<title>GFBPJCFC_02054_gene (GFBPJCFC_02054)
hypothetical protein</title>
			<polygon class="GFBPJCFC_02054_gene (GFBPJCFC_02054)
hypothetical protein" points="31,40 41,10 41,70" fill="rgb(255,255,255)" fill-opacity="1.0" stroke="rgb(0,0,0)" stroke-width="2"  />
			<g>
				<title>YrhK (PF14145)
"YrhK-like protein"</title>
				<polygon class="PF14145" points="34,40 38,28 38,28 38,52 38,52" stroke-linejoin="round" width="5" height="24" fill="rgb(102,190,225)" stroke="rgb(81,152,180)" stroke-width="1" opacity="0.75" />
			</g>
		</g>
		<g>
			<title>ogt (GFBPJCFC_02055)
Methylated-DNA--protein-cysteine methyltransferase</title>
			<polygon class="ogt (GFBPJCFC_02055)
Methylated-DNA--protein-cysteine methyltransferase" points="45,10 62,40 45,70" fill="rgb(255,255,255)" fill-opacity="1.0" stroke="rgb(0,0,0)" stroke-width="2"  />
			<g>
				<title>Methyltransf_1N (PF02870)
"6-O-methylguanine DNA methyltransferase, ribonuclease-like domain"</title>
				<rect class="PF02870" x="45" y="28" stroke-linejoin="round" width="6" height="24" fill="rgb(96,209,110)" stroke="rgb(76,167,88)" stroke-width="1" opacity="0.75" />
			</g>
			<g>
				<title>DNA_binding_1 (PF01035)
"6-O-methylguanine DNA methyltransferase, DNA binding domain"</title>
				<polygon class="PF01035" points="52,29 58,40 52,51" stroke-linejoin="round" width="8" height="24" fill="rgb(79,155,220)" stroke="rgb(63,123,176)" stroke-width="1" opacity="0.75" />
			</g>
		</g>
		<g>
			<title>mvaS (GFBPJCFC_02056)
Hydroxymethylglutaryl-CoA synthase</title>
			<polygon class="mvaS (GFBPJCFC_02056)
Hydroxymethylglutaryl-CoA synthase" points="102,25 94,25 94,10 64,40 94,70 94,55 102,55" fill="rgb(255,255,255)" fill-opacity="1.0" stroke="rgb(0,0,0)" stroke-width="2"  />
			<g>
				<title>HMG_CoA_synt_C (PF08540)
"Hydroxymethylglutaryl-coenzyme A synthase C terminal"</title>
				<polygon class="PF08540" points="68,40 78,30 78,50" stroke-linejoin="round" width="14" height="24" fill="rgb(49,194,86)" stroke="rgb(39,155,68)" stroke-width="1" opacity="0.75" />
			</g>
			<g>
				<title>HMG_CoA_synt_N (PF01154)
"Hydroxymethylglutaryl-coenzyme A synthase N terminal"</title>
				<rect class="PF01154" x="86" y="28" stroke-linejoin="round" width="16" height="24" fill="rgb(88,216,218)" stroke="rgb(70,172,174)" stroke-width="1" opacity="0.75" />
			</g>
		</g>
	</g>
</svg>
